<svg width="1512" height="291" viewBox="0 0 1512 291" fill="none" xmlns="http://www.w3.org/2000/svg">
<rect width="1512" height="279" transform="matrix(1 0 0 -1 0 279)" fill="#FAF4F4"/>
<mask id="mask0_2089_34030" style="mask-type:alpha" maskUnits="userSpaceOnUse" x="0" y="0" width="542" height="291">
<rect width="542" height="291" transform="matrix(1 0 0 -1 0 291)" fill="#FAF4F4"/>
</mask>
<g mask="url(#mask0_2089_34030)">
<g opacity="0.4">
<path d="M-54.7061 272.721C-58.8438 214.432 -13.7211 81.0225 199.871 13.7054C466.862 -70.4411 643.565 -107.924 765.456 -281.977" stroke="#F6D0B9"/>
<path d="M-39.5225 295.919C-43.6602 237.629 1.46249 104.22 215.055 36.9031C482.046 -47.2434 658.748 -84.7263 780.64 -258.78" stroke="#F6D0B9"/>
<path d="M-24.337 319.117C-28.4747 260.828 16.648 127.419 230.241 60.1014C497.231 -24.0451 673.934 -61.528 795.825 -235.581" stroke="#F6D0B9"/>
<path d="M-9.15339 342.315C-13.2911 284.025 31.8316 150.616 245.424 83.2991C512.415 -0.847361 689.117 -38.3303 811.009 -212.384" stroke="#F6D0B9"/>
</g>
</g>
<path d="M1197.55 90.7414C1184.66 96.5977 1177.39 100.38 1173.98 105.698C1169.96 111.931 1171.4 120.277 1175.45 136.563C1168.25 120.727 1164.15 113.359 1156.63 111.26C1150.78 109.608 1142.81 111.195 1129.66 114.477C1142.51 108.638 1149.83 104.838 1153.21 99.5861C1157.26 93.2871 1155.83 84.9899 1151.77 68.6558C1158.2 82.7515 1162.13 90.1217 1168.21 93.0518C1174.28 95.9818 1182.57 94.5032 1197.55 90.7414Z" fill="#F9E8E0"/>
<path d="M1143.02 83.3261C1137.19 85.9715 1133.91 87.6802 1132.37 90.0821C1130.55 92.898 1131.21 96.6678 1133.04 104.024C1129.78 96.871 1127.93 93.5428 1124.53 92.5947C1121.89 91.8482 1118.29 92.5655 1112.35 94.0479C1118.16 91.4102 1121.46 89.6939 1122.99 87.3214C1124.82 84.476 1124.17 80.7281 1122.34 73.3497C1125.25 79.717 1127.02 83.0462 1129.76 84.3698C1132.51 85.6933 1136.25 85.0254 1143.02 83.3261Z" fill="#F9E8E0"/>
<path d="M1173.02 51.3261C1167.19 53.9715 1163.91 55.6802 1162.37 58.0821C1160.55 60.898 1161.21 64.6678 1163.04 72.0243C1159.78 64.871 1157.93 61.5428 1154.53 60.5947C1151.89 59.8482 1148.29 60.5655 1142.35 62.0479C1148.16 59.4102 1151.46 57.6939 1152.99 55.3214C1154.82 52.476 1154.17 48.7281 1152.34 41.3497C1155.25 47.717 1157.02 51.0462 1159.76 52.3698C1162.51 53.6933 1166.25 53.0254 1173.02 51.3261Z" fill="#F9E8E0"/>
</svg>
