<svg width="37" height="37" viewBox="0 0 37 37" fill="none" xmlns="http://www.w3.org/2000/svg">
<rect x="0.173828" y="0.173828" width="35.8696" height="35.8696" rx="17.9348" fill="white"/>
<path d="M19.4015 11.7643L20.7168 14.3948C20.8961 14.7609 21.3744 15.1122 21.7779 15.1794L24.1617 15.5755C25.6862 15.8295 26.0449 16.9355 24.9464 18.0266L23.0931 19.8798C22.7793 20.1937 22.6074 20.799 22.7045 21.2324L23.2351 23.5266C23.6536 25.3425 22.6896 26.0449 21.0829 25.0959L18.8486 23.7732C18.445 23.534 17.7799 23.534 17.3689 23.7732L15.1346 25.0959C13.5354 26.0449 12.5639 25.335 12.9824 23.5266L13.513 21.2324C13.6101 20.799 13.4382 20.1937 13.1244 19.8798L11.2711 18.0266C10.1801 16.9355 10.5313 15.8295 12.0558 15.5755L14.4396 15.1794C14.8356 15.1122 15.3139 14.7609 15.4933 14.3948L16.8085 11.7643C17.5259 10.337 18.6916 10.337 19.4015 11.7643Z" stroke="#ED7B30" stroke-width="1.5" stroke-linecap="round" stroke-linejoin="round"/>
</svg>
