<svg width="15" height="14" viewBox="0 0 17 15" fill="none" xmlns="http://www.w3.org/2000/svg">
<path d="M4.31 3.46069C4.14672 3.46069 3.99012 3.39992 3.87466 3.29176C3.7592 3.18359 3.69434 3.03688 3.69434 2.88391V0.576782C3.69434 0.42381 3.7592 0.277103 3.87466 0.168936C3.99012 0.0607679 4.14672 0 4.31 0C4.47329 0 4.62988 0.0607679 4.74534 0.168936C4.8608 0.277103 4.92567 0.42381 4.92567 0.576782V2.88391C4.92567 3.03688 4.8608 3.18359 4.74534 3.29176C4.62988 3.39992 4.47329 3.46069 4.31 3.46069ZM11.698 3.46069C11.5347 3.46069 11.3781 3.39992 11.2626 3.29176C11.1472 3.18359 11.0823 3.03688 11.0823 2.88391V0.576782C11.0823 0.42381 11.1472 0.277103 11.2626 0.168936C11.3781 0.0607679 11.5347 0 11.698 0C11.8613 0 12.0179 0.0607679 12.1333 0.168936C12.2488 0.277103 12.3137 0.42381 12.3137 0.576782V2.88391C12.3137 3.03688 12.2488 3.18359 12.1333 3.29176C12.0179 3.39992 11.8613 3.46069 11.698 3.46069Z" fill="#F23B3B"/>
<path d="M14.1603 14.9956H1.847C0.828686 14.9956 0 14.2193 0 13.2653V2.88318C0 1.92918 0.828686 1.15283 1.847 1.15283H14.1603C15.1786 1.15283 16.0073 1.92918 16.0073 2.88318V13.2653C16.0073 14.2193 15.1786 14.9956 14.1603 14.9956ZM1.847 2.3064C1.68371 2.3064 1.52712 2.36716 1.41166 2.47533C1.2962 2.5835 1.23133 2.73021 1.23133 2.88318V13.2653C1.23133 13.4182 1.2962 13.5649 1.41166 13.6731C1.52712 13.7813 1.68371 13.842 1.847 13.842H14.1603C14.3236 13.842 14.4802 13.7813 14.5956 13.6731C14.7111 13.5649 14.776 13.4182 14.776 13.2653V2.88318C14.776 2.73021 14.7111 2.5835 14.5956 2.47533C14.4802 2.36716 14.3236 2.3064 14.1603 2.3064H1.847Z" fill="#F23B3B"/>
<path d="M15.3916 5.76733H0.615666C0.452381 5.76733 0.295784 5.70657 0.180324 5.5984C0.0648646 5.49023 0 5.34352 0 5.19055C0 5.03758 0.0648646 4.89087 0.180324 4.78271C0.295784 4.67454 0.452381 4.61377 0.615666 4.61377H15.3916C15.5549 4.61377 15.7115 4.67454 15.827 4.78271C15.9424 4.89087 16.0073 5.03758 16.0073 5.19055C16.0073 5.34352 15.9424 5.49023 15.827 5.5984C15.7115 5.70657 15.5549 5.76733 15.3916 5.76733ZM4.92532 6.9209H6.15666V8.07446H4.92532V6.9209ZM7.38799 6.9209H8.61932V8.07446H7.38799V6.9209ZM9.85065 6.9209H11.082V8.07446H9.85065V6.9209ZM12.3133 6.9209H13.5446V8.07446H12.3133V6.9209ZM2.46266 9.22803H3.69399V10.3816H2.46266V9.22803ZM4.92532 9.22803H6.15666V10.3816H4.92532V9.22803ZM7.38799 9.22803H8.61932V10.3816H7.38799V9.22803ZM9.85065 9.22803H11.082V10.3816H9.85065V9.22803ZM12.3133 9.22803H13.5446V10.3816H12.3133V9.22803ZM2.46266 11.5352H3.69399V12.6887H2.46266V11.5352ZM4.92532 11.5352H6.15666V12.6887H4.92532V11.5352ZM7.38799 11.5352H8.61932V12.6887H7.38799V11.5352Z" fill="#F23B3B"/>
</svg>
