<svg width="42" height="36" viewBox="0 0 42 36" fill="none" xmlns="http://www.w3.org/2000/svg">
<rect x="0.5" y="0.5" width="41" height="35" rx="11.5" stroke="#193B68"/>
<path d="M25.2348 17.5421V20.7088C25.2348 20.9146 25.2269 21.1125 25.2032 21.3025C25.0211 23.44 23.7623 24.5008 21.4427 24.5008H21.1261C20.9282 24.5008 20.7381 24.5958 20.6194 24.7542L19.6694 26.0208C19.2498 26.5829 18.569 26.5829 18.1494 26.0208L17.1994 24.7542C17.0965 24.6196 16.8669 24.5008 16.6927 24.5008H16.3761C13.8507 24.5008 12.584 23.8754 12.584 20.7088V17.5421C12.584 15.2225 13.6527 13.9638 15.7823 13.7817C15.9723 13.7579 16.1702 13.75 16.3761 13.75H21.4427C23.9682 13.75 25.2348 15.0167 25.2348 17.5421Z" stroke="#193B68" stroke-width="1.5" stroke-miterlimit="10" stroke-linecap="round" stroke-linejoin="round"/>
<path d="M28.4014 14.3756V17.5423C28.4014 19.8698 27.3326 21.1206 25.2031 21.3027C25.2268 21.1127 25.2347 20.9148 25.2347 20.7089V17.5423C25.2347 15.0168 23.9681 13.7502 21.4426 13.7502H16.376C16.1701 13.7502 15.9722 13.7581 15.7822 13.7818C15.9643 11.6523 17.2231 10.5835 19.5426 10.5835H24.6093C27.1347 10.5835 28.4014 11.8502 28.4014 14.3756Z" stroke="#193B68" stroke-width="1.5" stroke-miterlimit="10" stroke-linecap="round" stroke-linejoin="round"/>
<path d="M21.6843 19.4896H21.6914" stroke="#193B68" stroke-width="2" stroke-linecap="round" stroke-linejoin="round"/>
<path d="M18.9128 19.4896H18.9199" stroke="#193B68" stroke-width="2" stroke-linecap="round" stroke-linejoin="round"/>
<path d="M16.1423 19.4896H16.1494" stroke="#193B68" stroke-width="2" stroke-linecap="round" stroke-linejoin="round"/>
</svg>
