<svg width="130" height="130" viewBox="0 0 130 130" fill="none" xmlns="http://www.w3.org/2000/svg">
<path d="M65 130C100.899 130 130 100.899 130 65C130 29.1015 100.899 0 65 0C29.1015 0 0 29.1015 0 65C0 100.899 29.1015 130 65 130Z" fill="#FEAB74"/>
<path d="M78.6757 128.467C79.9222 128.225 81.1613 127.947 82.3915 127.632C84.4774 127.049 86.5329 126.362 88.5502 125.574C90.5701 124.792 92.5497 123.91 94.4815 122.931C96.4138 121.948 98.2958 120.868 100.12 119.697C101.943 118.526 103.705 117.264 105.401 115.916C107.101 114.567 108.731 113.133 110.287 111.621C111.841 110.112 113.318 108.527 114.713 106.87C116.109 105.213 117.421 103.486 118.645 101.697C119.869 99.9117 121.002 98.0659 122.042 96.1671C123.081 94.2654 124.025 92.313 124.869 90.3171C125.714 88.3207 126.459 86.2833 127.101 84.2125C127.65 82.3994 128.12 80.5632 128.509 78.7091L89.8882 40.0937C86.6266 36.8178 82.7495 34.2191 78.4798 32.4473C74.2101 30.6754 69.6321 29.7654 65.0094 29.7696C60.3825 29.7645 55.8003 30.674 51.526 32.4458C47.2518 34.2176 43.37 36.8167 40.1036 40.0937C36.829 43.3611 34.231 47.2423 32.4584 51.5151C30.6859 55.7878 29.7734 60.3683 29.7734 64.9941C29.7734 69.62 30.6859 74.2005 32.4584 78.4732C34.231 82.746 36.829 86.6272 40.1036 89.8946L78.6757 128.461V128.467Z" fill="#ED7B30"/>
<path d="M65.0055 29.7754C74.008 29.7754 83.0105 33.215 89.9005 40.0996C93.1751 43.367 95.773 47.2481 97.5456 51.5209C99.3182 55.7937 100.231 60.3741 100.231 65C100.231 69.6259 99.3182 74.2063 97.5456 78.4791C95.773 82.7518 93.1751 86.633 89.9005 89.9004C86.6331 93.175 82.7519 95.7729 78.4792 97.5455C74.2064 99.3181 69.626 100.231 65.0001 100.231C60.3742 100.231 55.7938 99.3181 51.521 97.5455C47.2482 95.7729 43.3671 93.175 40.0997 89.9004C36.8251 86.633 34.2271 82.7518 32.4545 78.4791C30.6819 74.2063 29.7695 69.6259 29.7695 65C29.7695 60.3741 30.6819 55.7937 32.4545 51.5209C34.2271 47.2481 36.8251 43.367 40.0997 40.0996C43.366 36.8225 47.2479 34.2234 51.5221 32.4517C55.7964 30.6799 60.3786 29.7704 65.0055 29.7754ZM81.0388 54.1612C80.5261 54.2104 80.0378 54.4038 79.6305 54.7192L59.838 69.5608L50.6676 60.3958C48.6797 58.3267 44.7634 62.2375 46.838 64.2254L57.6713 75.0587C58.141 75.5029 58.7498 75.7708 59.3944 75.8172C60.0391 75.8636 60.68 75.6856 61.2084 75.3133L82.8751 59.0633C84.6951 57.7362 83.5738 54.1992 81.3205 54.1667C81.2285 54.162 81.1363 54.162 81.0443 54.1667L81.0388 54.1612Z" fill="white"/>
</svg>
