<svg width="1512" height="554" viewBox="0 0 1512 554" fill="none" xmlns="http://www.w3.org/2000/svg">
<g opacity="0.4">
<mask id="mask0_902_15181" style="mask-type:alpha" maskUnits="userSpaceOnUse" x="0" y="0" width="1512" height="554">
<rect width="1512" height="554" transform="matrix(1 0 0 -1 0 554)" fill="#FAF4F4"/>
</mask>
<g mask="url(#mask0_902_15181)">
<path d="M-54.7061 272.721C-58.8438 214.432 -13.7211 81.0225 199.871 13.7054C466.862 -70.4411 643.565 -107.924 765.456 -281.977" stroke="#F6D0B9"/>
<path d="M-39.5225 295.919C-43.6602 237.629 1.46249 104.22 215.055 36.9031C482.046 -47.2434 658.748 -84.7263 780.64 -258.78" stroke="#F6D0B9"/>
<path d="M-24.337 319.117C-28.4747 260.828 16.648 127.419 230.241 60.1014C497.231 -24.0451 673.934 -61.528 795.825 -235.581" stroke="#F6D0B9"/>
<path d="M-9.15339 342.315C-13.2911 284.025 31.8316 150.616 245.424 83.2991C512.415 -0.847361 689.117 -38.3303 811.009 -212.384" stroke="#F6D0B9"/>
<g opacity="0.5">
<circle cx="1067" cy="340" r="257.5" stroke="#ED7B30"/>
<circle cx="1067" cy="340" r="222.129" stroke="#ED7B30"/>
<circle cx="1067" cy="340" r="183.637" stroke="#ED7B30"/>
</g>
</g>
</g>
</svg>
