<svg width="80" height="35" viewBox="0 0 80 35" fill="none" xmlns="http://www.w3.org/2000/svg">
<rect width="80" height="35" rx="6" fill="#0F2F62"/>
<path d="M25.228 11.27C26.264 11.27 27.1693 11.4707 27.944 11.872C28.728 12.264 29.33 12.8333 29.75 13.58C30.1793 14.3173 30.394 15.1807 30.394 16.17C30.394 17.1593 30.1793 18.018 29.75 18.746C29.33 19.474 28.728 20.034 27.944 20.426C27.1693 20.8087 26.264 21 25.228 21H22.05V11.27H25.228ZM25.228 19.698C26.3667 19.698 27.2393 19.39 27.846 18.774C28.4527 18.158 28.756 17.29 28.756 16.17C28.756 15.0407 28.4527 14.1587 27.846 13.524C27.2393 12.8893 26.3667 12.572 25.228 12.572H23.646V19.698H25.228ZM35.3218 21.126C34.5938 21.126 33.9358 20.9627 33.3478 20.636C32.7598 20.3 32.2978 19.8333 31.9618 19.236C31.6258 18.6293 31.4578 17.9293 31.4578 17.136C31.4578 16.352 31.6304 15.6567 31.9758 15.05C32.3211 14.4433 32.7924 13.9767 33.3898 13.65C33.9871 13.3233 34.6544 13.16 35.3918 13.16C36.1291 13.16 36.7964 13.3233 37.3938 13.65C37.9911 13.9767 38.4624 14.4433 38.8078 15.05C39.1531 15.6567 39.3258 16.352 39.3258 17.136C39.3258 17.92 39.1484 18.6153 38.7938 19.222C38.4391 19.8287 37.9538 20.3 37.3378 20.636C36.7311 20.9627 36.0591 21.126 35.3218 21.126ZM35.3218 19.74C35.7324 19.74 36.1151 19.642 36.4698 19.446C36.8338 19.25 37.1278 18.956 37.3518 18.564C37.5758 18.172 37.6878 17.696 37.6878 17.136C37.6878 16.576 37.5804 16.1047 37.3658 15.722C37.1511 15.33 36.8664 15.036 36.5118 14.84C36.1571 14.644 35.7744 14.546 35.3638 14.546C34.9531 14.546 34.5704 14.644 34.2158 14.84C33.8704 15.036 33.5951 15.33 33.3898 15.722C33.1844 16.1047 33.0818 16.576 33.0818 17.136C33.0818 17.9667 33.2918 18.6107 33.7118 19.068C34.1411 19.516 34.6778 19.74 35.3218 19.74ZM44.7955 13.16C45.4022 13.16 45.9435 13.286 46.4195 13.538C46.9048 13.79 47.2828 14.1633 47.5535 14.658C47.8242 15.1527 47.9595 15.75 47.9595 16.45V21H46.3775V16.688C46.3775 15.9973 46.2048 15.47 45.8595 15.106C45.5142 14.7327 45.0428 14.546 44.4455 14.546C43.8482 14.546 43.3722 14.7327 43.0175 15.106C42.6722 15.47 42.4995 15.9973 42.4995 16.688V21H40.9035V13.286H42.4995V14.168C42.7608 13.8507 43.0922 13.6033 43.4935 13.426C43.9042 13.2487 44.3382 13.16 44.7955 13.16ZM57.0653 16.954C57.0653 17.2433 57.0466 17.5047 57.0093 17.738H51.1153C51.162 18.354 51.3906 18.8487 51.8013 19.222C52.212 19.5953 52.716 19.782 53.3133 19.782C54.172 19.782 54.7786 19.4227 55.1333 18.704H56.8553C56.622 19.4133 56.1973 19.9967 55.5813 20.454C54.9746 20.902 54.2186 21.126 53.3133 21.126C52.576 21.126 51.9133 20.9627 51.3253 20.636C50.7466 20.3 50.2893 19.8333 49.9533 19.236C49.6266 18.6293 49.4633 17.9293 49.4633 17.136C49.4633 16.3427 49.622 15.6473 49.9393 15.05C50.266 14.4433 50.7186 13.9767 51.2973 13.65C51.8853 13.3233 52.5573 13.16 53.3133 13.16C54.0413 13.16 54.69 13.3187 55.2593 13.636C55.8286 13.9533 56.272 14.4013 56.5893 14.98C56.9066 15.5493 57.0653 16.2073 57.0653 16.954ZM55.3993 16.45C55.39 15.862 55.18 15.3907 54.7693 15.036C54.3586 14.6813 53.85 14.504 53.2433 14.504C52.6926 14.504 52.2213 14.6813 51.8293 15.036C51.4373 15.3813 51.204 15.8527 51.1293 16.45H55.3993Z" fill="white"/>
</svg>
