<svg width="32" height="32" viewBox="0 0 32 32" fill="none" xmlns="http://www.w3.org/2000/svg">
<circle cx="16" cy="16" r="16" fill="#F7F0EB"/>
<path d="M16.0001 9.33325C15.7791 9.33325 15.5671 9.42105 15.4108 9.57733C15.2545 9.73361 15.1667 9.94557 15.1667 10.1666V18.1074L11.6517 14.5883C11.571 14.5074 11.4752 14.4433 11.3696 14.3995C11.2641 14.3558 11.151 14.3333 11.0367 14.3333C10.9225 14.3333 10.8094 14.3558 10.7039 14.3995C10.5983 14.4433 10.5025 14.5074 10.4217 14.5883C10.2586 14.7517 10.167 14.9732 10.167 15.2041C10.167 15.435 10.2586 15.6565 10.4217 15.8199L15.3417 20.7449C15.5226 20.9258 15.7634 21.0108 16.0001 20.9991C16.2367 21.0108 16.4776 20.9258 16.6584 20.7449L21.5784 15.8199C21.7416 15.6565 21.8332 15.435 21.8332 15.2041C21.8332 14.9732 21.7416 14.7517 21.5784 14.5883C21.4977 14.5074 21.4018 14.4433 21.2963 14.3995C21.1908 14.3558 21.0777 14.3333 20.9634 14.3333C20.8492 14.3333 20.7361 14.3558 20.6305 14.3995C20.525 14.4433 20.4291 14.5074 20.3484 14.5883L16.8334 18.1074V10.1666C16.8334 9.94557 16.7456 9.73361 16.5893 9.57733C16.4331 9.42105 16.2211 9.33325 16.0001 9.33325ZM10.1667 23.4999C10.1667 23.2789 10.2545 23.0669 10.4108 22.9107C10.5671 22.7544 10.7791 22.6666 11.0001 22.6666H21.0001C21.2211 22.6666 21.4331 22.7544 21.5893 22.9107C21.7456 23.0669 21.8334 23.2789 21.8334 23.4999C21.8334 23.7209 21.7456 23.9329 21.5893 24.0892C21.4331 24.2455 21.2211 24.3333 21.0001 24.3333H11.0001C10.7791 24.3333 10.5671 24.2455 10.4108 24.0892C10.2545 23.9329 10.1667 23.7209 10.1667 23.4999Z" fill="#0F2F62"/>
</svg>
