<svg width="38" height="38" viewBox="0 0 38 38" fill="none" xmlns="http://www.w3.org/2000/svg">
<rect opacity="0.8" x="0.5" y="0.5" width="37" height="37" rx="11.5" stroke="#0F2F62"/>
<path d="M19.0003 12.3335C18.7793 12.3335 18.5674 12.4213 18.4111 12.5776C18.2548 12.7339 18.167 12.9458 18.167 13.1668V21.1077L14.652 17.5885C14.5713 17.5077 14.4754 17.4435 14.3699 17.3998C14.2643 17.356 14.1512 17.3335 14.037 17.3335C13.9228 17.3335 13.8096 17.356 13.7041 17.3998C13.5986 17.4435 13.5027 17.5077 13.422 17.5885C13.2588 17.7519 13.1672 17.9734 13.1672 18.2043C13.1672 18.4353 13.2588 18.6567 13.422 18.8202L18.342 23.7452C18.5228 23.926 18.7637 24.011 19.0003 23.9993C19.237 24.011 19.4778 23.926 19.6587 23.7452L24.5787 18.8202C24.7418 18.6567 24.8334 18.4353 24.8334 18.2043C24.8334 17.9734 24.7418 17.7519 24.5787 17.5885C24.4979 17.5077 24.4021 17.4435 24.2965 17.3998C24.191 17.356 24.0779 17.3335 23.9637 17.3335C23.8494 17.3335 23.7363 17.356 23.6308 17.3998C23.5253 17.4435 23.4294 17.5077 23.3487 17.5885L19.8337 21.1077V13.1668C19.8337 12.9458 19.7459 12.7339 19.5896 12.5776C19.4333 12.4213 19.2213 12.3335 19.0003 12.3335ZM13.167 26.5002C13.167 26.2791 13.2548 26.0672 13.4111 25.9109C13.5674 25.7546 13.7793 25.6668 14.0003 25.6668H24.0003C24.2213 25.6668 24.4333 25.7546 24.5896 25.9109C24.7459 26.0672 24.8337 26.2791 24.8337 26.5002C24.8337 26.7212 24.7459 26.9331 24.5896 27.0894C24.4333 27.2457 24.2213 27.3335 24.0003 27.3335H14.0003C13.7793 27.3335 13.5674 27.2457 13.4111 27.0894C13.2548 26.9331 13.167 26.7212 13.167 26.5002Z" fill="#0F2F62"/>
</svg>
