<svg width="165" height="42" viewBox="0 0 165 42" fill="none" xmlns="http://www.w3.org/2000/svg">
<g clip-path="url(#clip0_1655_4416)">
<path d="M10.0569 22.5788V28.1052L13.8283 30.3157L13.6712 33.3157L7.54258 29.0525V15.9473L3.14258 19.1052V31.7367L18.3854 41.9999V28.1052L10.0569 22.5788Z" fill="white"/>
<path d="M29.6997 22.5788V28.1052L25.9282 30.3157L26.0854 33.3157L32.214 29.0525V15.9473L36.614 19.1052V31.7367L21.3711 41.9999V28.1052L29.6997 22.5788Z" fill="white"/>
<path d="M22.0001 15.1577V12.1577H17.6001V15.1577H14.7715V19.5788H17.6001V22.4209H22.0001V19.5788H24.8286V15.1577H22.0001Z" fill="#0F2F62"/>
<path d="M0 12.6316V17.8421L20.1143 5.36842L39.4429 17.8421V12.6316L19.6429 0L0 12.6316Z" fill="white"/>
<path d="M50.7852 20.5264H53.5634V13.8431L56.832 17.2751L60.1006 13.8431V20.5264H62.8789V8.94959H60.9014L56.832 13.4818L52.779 8.94959H50.7852V20.5264ZM72.6252 17.3572C72.6742 17.1109 72.6906 16.8481 72.6906 16.5361C72.6906 14.0894 71.0399 12.3159 68.5068 12.3159C65.99 12.3159 64.2576 14.0894 64.2576 16.5525C64.2576 19.0157 65.99 20.7892 68.5068 20.7892C70.1574 20.7892 71.6119 20.1159 72.331 18.8022L70.2064 17.7677C69.8142 18.2932 69.2095 18.5887 68.5395 18.5887C67.6733 18.5887 67.1176 18.129 66.9052 17.3572H72.6252ZM66.9379 15.6494C67.1503 14.9269 67.706 14.4999 68.5068 14.4999C69.3239 14.4999 69.8306 14.8776 70.043 15.6494H66.9379ZM76.588 19.7875C77.1764 20.4279 78.0425 20.7235 79.0068 20.7235C81.2294 20.7235 82.7329 18.8679 82.7329 16.5361C82.7329 14.2043 81.2621 12.3816 79.0068 12.3816C78.0752 12.3816 77.1764 12.6443 76.588 13.1862V8.53906H73.9405V20.5264H76.588V19.7875ZM80.0527 16.5361C80.0527 17.6363 79.35 18.4081 78.2877 18.4081C77.1927 18.4081 76.5063 17.6363 76.5063 16.5361C76.5063 15.4687 77.1927 14.6805 78.2877 14.6805C79.35 14.6805 80.0527 15.4687 80.0527 16.5361ZM91.9717 17.3572C92.0207 17.1109 92.037 16.8481 92.037 16.5361C92.037 14.0894 90.3864 12.3159 87.8533 12.3159C85.3365 12.3159 83.6041 14.0894 83.6041 16.5525C83.6041 19.0157 85.3365 20.7892 87.8533 20.7892C89.5039 20.7892 90.9584 20.1159 91.6775 18.8022L89.5529 17.7677C89.1607 18.2932 88.556 18.5887 87.886 18.5887C87.0198 18.5887 86.4641 18.129 86.2517 17.3572H91.9717ZM86.2844 15.6494C86.4968 14.9269 87.0525 14.4999 87.8533 14.4999C88.6704 14.4999 89.177 14.8776 89.3895 15.6494H86.2844ZM93.2866 20.5264H95.9342V8.53906H93.2866V20.5264ZM101.099 9.03169V20.5264H103.894V16.0435H108.503V20.5264H111.281V9.03169H108.503V13.4654H103.894V9.03169H101.099ZM112.64 16.5361C112.64 18.9829 114.454 20.7892 117.02 20.7892C119.57 20.7892 121.416 18.9829 121.416 16.5361C121.416 14.0894 119.57 12.3159 117.02 12.3159C114.454 12.3159 112.64 14.0894 112.64 16.5361ZM118.834 16.5361C118.834 17.6527 118.132 18.4574 117.02 18.4574C115.909 18.4574 115.223 17.6527 115.223 16.5361C115.223 15.4359 115.909 14.6477 117.02 14.6477C118.132 14.6477 118.834 15.4359 118.834 16.5361ZM122.055 18.6873C122.496 20.0502 123.951 20.7892 125.732 20.7892C127.562 20.7892 129.131 19.7711 129.131 18.0797C129.131 16.766 128.2 15.8957 126.745 15.5016L125.748 15.2389C125.307 15.1075 125.095 14.9433 125.095 14.7298C125.095 14.4671 125.356 14.3357 125.667 14.3357C126.075 14.3357 126.467 14.5327 126.663 14.9104L128.674 14.0073C128.265 12.8906 127.056 12.3323 125.618 12.3323C123.951 12.3323 122.447 13.2355 122.447 14.7955C122.447 15.9942 123.182 16.8153 124.67 17.2422L125.699 17.5378C126.108 17.6692 126.484 17.8826 126.484 18.2111C126.484 18.5395 126.14 18.7201 125.699 18.7201C124.996 18.7201 124.49 18.3589 124.163 17.7513L122.055 18.6873ZM130.353 23.8106H133V19.9189C133.589 20.4936 134.488 20.7399 135.419 20.7399C137.674 20.7399 139.145 18.9172 139.145 16.5854C139.145 14.2536 137.642 12.398 135.419 12.398C134.455 12.398 133.589 12.6936 133 13.334V12.5951H130.353V23.8106ZM136.465 16.5854C136.465 17.6363 135.762 18.4245 134.7 18.4245C133.605 18.4245 132.919 17.6363 132.919 16.5854C132.919 15.4852 133.605 14.7134 134.7 14.7134C135.762 14.7134 136.465 15.4852 136.465 16.5854ZM140.163 10.1155C140.163 10.9858 140.85 11.6262 141.749 11.6262C142.647 11.6262 143.317 10.9858 143.317 10.1155C143.317 9.24517 142.647 8.60475 141.749 8.60475C140.85 8.60475 140.163 9.24517 140.163 10.1155ZM140.425 12.5951V20.5264H143.072V12.5951H140.425ZM148.346 10.1319H146.793L143.901 14.8447H145.699V20.5264H148.346V14.8447H150.569V12.5951H148.346V10.1319ZM150.824 16.5361C150.824 18.8679 152.36 20.7235 154.615 20.7235C155.547 20.7235 156.396 20.4279 157.001 19.7875V20.5264H159.632V12.5951H157.001V13.3012C156.429 12.6936 155.628 12.3816 154.615 12.3816C152.36 12.3816 150.824 14.2043 150.824 16.5361ZM157.034 16.5361C157.034 17.6363 156.364 18.4081 155.269 18.4081C154.174 18.4081 153.504 17.6363 153.504 16.5361C153.504 15.4687 154.174 14.6805 155.269 14.6805C156.364 14.6805 157.034 15.4687 157.034 16.5361ZM161.321 20.5264H163.968V8.53906H161.321V20.5264Z" fill="#0F2F62"/>
<path d="M51.3439 28.9057V33.1575H52.0146V28.9057H53.5703V28.2944H49.7812V28.9057H51.3439ZM54.0574 28.0859V33.1575H54.6935V31.2956C54.6935 30.7607 55.0185 30.3994 55.544 30.3994C56.0626 30.3994 56.3875 30.7607 56.3875 31.2956V33.1575H57.0237V31.2331C57.0237 30.4133 56.5327 29.795 55.7099 29.795C55.2674 29.795 54.8941 29.9617 54.6728 30.3021V28.0859H54.0574ZM60.8743 31.7541C60.8881 31.6708 60.895 31.5874 60.895 31.511C60.895 30.5384 60.2797 29.795 59.284 29.795C58.2883 29.795 57.6315 30.5384 57.6315 31.5179C57.6315 32.4975 58.2883 33.2478 59.284 33.2478C59.9754 33.2478 60.5286 32.9283 60.7982 32.3655L60.2451 32.1154C60.0515 32.4697 59.7058 32.6643 59.284 32.6643C58.7378 32.6643 58.3713 32.303 58.2883 31.7541H60.8743ZM58.3022 31.2331C58.392 30.7259 58.7585 30.3716 59.284 30.3716C59.8164 30.3716 60.1483 30.7051 60.2313 31.2331H58.3022ZM63.2176 28.2944V33.1575H63.8883V31.0038H66.6333V33.1575H67.3039V28.2944H66.6333V30.3786H63.8883V28.2944H63.2176ZM71.3004 31.7541C71.3142 31.6708 71.3211 31.5874 71.3211 31.511C71.3211 30.5384 70.7058 29.795 69.7101 29.795C68.7145 29.795 68.0576 30.5384 68.0576 31.5179C68.0576 32.4975 68.7145 33.2478 69.7101 33.2478C70.4015 33.2478 70.9547 32.9283 71.2243 32.3655L70.6712 32.1154C70.4776 32.4697 70.1319 32.6643 69.7101 32.6643C69.1639 32.6643 68.7974 32.303 68.7145 31.7541H71.3004ZM68.7283 31.2331C68.8182 30.7259 69.1846 30.3716 69.7101 30.3716C70.2425 30.3716 70.5744 30.7051 70.6574 31.2331H68.7283ZM71.7511 31.511C71.7511 32.4836 72.3941 33.2478 73.3345 33.2478C73.8323 33.2478 74.2471 33.0533 74.5306 32.6712V33.1575H75.1667V29.8853H74.5306V30.3716C74.2541 29.9895 73.8254 29.795 73.3345 29.795C72.3941 29.795 71.7511 30.5592 71.7511 31.511ZM74.4961 31.5179C74.4961 32.1779 74.1089 32.6504 73.452 32.6504C72.809 32.6504 72.4079 32.164 72.4079 31.5179C72.4079 31.1984 72.4978 30.9274 72.6845 30.712C72.8712 30.4967 73.127 30.3855 73.452 30.3855C74.095 30.3855 74.4961 30.8718 74.4961 31.5179ZM76.0442 33.1575H76.6803V28.0859H76.0442V33.1575ZM78.4831 28.7668H78.2065L77.1832 30.4689H77.847V33.1575H78.4831V30.4689H79.5686V29.8853H78.4831V28.7668ZM80.0218 28.0859V33.1575H80.6579V31.2956C80.6579 30.7607 80.9829 30.3994 81.5084 30.3994C82.027 30.3994 82.3519 30.7607 82.3519 31.2956V33.1575H82.988V31.2331C82.988 30.4133 82.4971 29.795 81.6743 29.795C81.2318 29.795 80.8585 29.9617 80.6372 30.3021V28.0859H80.0218ZM85.1701 30.7259C85.1494 32.0737 86.1865 33.2756 87.6939 33.2478C88.7172 33.2478 89.5123 32.7546 89.9202 31.9695L89.3118 31.6569C89.0283 32.2405 88.4613 32.6087 87.6939 32.6087C86.5599 32.6295 85.8408 31.7055 85.8546 30.7259C85.8408 29.7464 86.5599 28.8224 87.6939 28.8432C88.4613 28.8432 89.0283 29.2114 89.3118 29.795L89.9202 29.4824C89.5123 28.6973 88.7172 28.204 87.6939 28.204C86.1865 28.1832 85.1494 29.3781 85.1701 30.7259ZM90.2873 31.511C90.2873 32.4836 90.9304 33.2478 91.8707 33.2478C92.3685 33.2478 92.7834 33.0533 93.0669 32.6712V33.1575H93.703V29.8853H93.0669V30.3716C92.7903 29.9895 92.3616 29.795 91.8707 29.795C90.9304 29.795 90.2873 30.5592 90.2873 31.511ZM93.0323 31.5179C93.0323 32.1779 92.6451 32.6504 91.9883 32.6504C91.3452 32.6504 90.9442 32.164 90.9442 31.5179C90.9442 31.1984 91.0341 30.9274 91.2208 30.712C91.4075 30.4967 91.6633 30.3855 91.9883 30.3855C92.6313 30.3855 93.0323 30.8718 93.0323 31.5179ZM94.5805 33.1575H95.2166V31.0455C95.2166 30.6495 95.4033 30.3925 95.7283 30.3925C96.0325 30.3925 96.2053 30.587 96.1984 30.8927H96.8276C96.8484 30.2535 96.5234 29.8367 95.9357 29.8367C95.6107 29.8367 95.348 29.9687 95.2166 30.2466V29.8853H94.5805V33.1575ZM100.337 31.7541C100.351 31.6708 100.358 31.5874 100.358 31.511C100.358 30.5384 99.7426 29.795 98.747 29.795C97.7513 29.795 97.0944 30.5384 97.0944 31.5179C97.0944 32.4975 97.7513 33.2478 98.747 33.2478C99.4384 33.2478 99.9915 32.9283 100.261 32.3655L99.7081 32.1154C99.5145 32.4697 99.1687 32.6643 98.747 32.6643C98.2007 32.6643 97.8343 32.303 97.7513 31.7541H100.337ZM97.7651 31.2331C97.855 30.7259 98.2215 30.3716 98.747 30.3716C99.2794 30.3716 99.6113 30.7051 99.6942 31.2331H97.7651ZM102.681 28.2944V33.1575H103.351V31.0038H106.096V33.1575H106.767V28.2944H106.096V30.3786H103.351V28.2944H102.681ZM107.514 31.511C107.514 32.4906 108.226 33.2478 109.249 33.2478C110.272 33.2478 110.985 32.4906 110.985 31.511C110.985 30.5592 110.272 29.795 109.249 29.795C108.226 29.795 107.514 30.5592 107.514 31.511ZM110.342 31.511C110.342 32.1779 109.913 32.6504 109.249 32.6504C108.924 32.6504 108.661 32.5461 108.461 32.3308C108.26 32.1154 108.164 31.8375 108.164 31.511C108.164 31.1845 108.26 30.9205 108.461 30.7051C108.661 30.4897 108.924 30.3855 109.249 30.3855C109.574 30.3855 109.837 30.4897 110.037 30.7051C110.238 30.9205 110.342 31.1845 110.342 31.511ZM111.361 32.4697C111.506 32.9491 112.018 33.2478 112.661 33.2478C113.332 33.2478 113.919 32.8588 113.919 32.2266C113.919 31.6986 113.553 31.3512 112.965 31.1914L112.606 31.0872C112.35 31.0108 112.184 30.9066 112.184 30.7051C112.184 30.4828 112.391 30.3647 112.647 30.3647C112.917 30.3647 113.097 30.4619 113.187 30.6565L113.733 30.4064C113.56 30.0104 113.152 29.8019 112.647 29.8019C112.066 29.8019 111.52 30.1563 111.52 30.719C111.52 31.1706 111.804 31.4832 112.378 31.6569L112.772 31.768C113.097 31.8653 113.263 32.0251 113.263 32.2544C113.263 32.5323 112.993 32.6851 112.661 32.6851C112.301 32.6851 112.025 32.5184 111.907 32.2127L111.361 32.4697ZM114.548 34.547H115.184V32.7059C115.454 33.0603 115.883 33.2478 116.381 33.2478C117.335 33.2478 117.957 32.5045 117.957 31.5249C117.957 30.5661 117.321 29.795 116.381 29.795C115.883 29.795 115.461 29.9895 115.184 30.3716V29.8853H114.548V34.547ZM117.3 31.5318C117.3 32.1779 116.899 32.6573 116.263 32.6573C115.606 32.6573 115.212 32.1779 115.212 31.5318C115.212 30.8649 115.606 30.3925 116.263 30.3925C116.899 30.3925 117.3 30.8718 117.3 31.5318ZM118.468 28.8571C118.468 29.128 118.676 29.3156 118.945 29.3156C119.201 29.3156 119.422 29.128 119.422 28.8571C119.422 28.5792 119.215 28.3916 118.945 28.3916C118.676 28.3916 118.468 28.5792 118.468 28.8571ZM118.627 29.8853V33.1575H119.263V29.8853H118.627ZM121.066 28.7668H120.789L119.766 30.4689H120.43V33.1575H121.066V30.4689H122.152V29.8853H121.066V28.7668ZM122.187 31.511C122.187 32.4836 122.83 33.2478 123.771 33.2478C124.269 33.2478 124.683 33.0533 124.967 32.6712V33.1575H125.603V29.8853H124.967V30.3716C124.69 29.9895 124.262 29.795 123.771 29.795C122.83 29.795 122.187 30.5592 122.187 31.511ZM124.932 31.5179C124.932 32.1779 124.545 32.6504 123.888 32.6504C123.245 32.6504 122.844 32.164 122.844 31.5179C122.844 31.1984 122.934 30.9274 123.121 30.712C123.307 30.4967 123.563 30.3855 123.888 30.3855C124.531 30.3855 124.932 30.8718 124.932 31.5179ZM126.48 33.1575H127.117V28.0859H126.48V33.1575Z" fill="#0F2F62"/>
<path d="M164.999 30.9473H130.742V32.842H164.999V30.9473Z" fill="#0F2F62"/>
</g>
<defs>
<clipPath id="clip0_1655_4416">
<rect width="165" height="42" fill="white"/>
</clipPath>
</defs>
</svg>
