<svg width="38" height="38" viewBox="0 0 38 38" fill="none" xmlns="http://www.w3.org/2000/svg">
<rect opacity="0.8" x="0.5" y="0.5" width="37" height="37" rx="11.5" stroke="#0F2F62"/>
<path d="M19.0001 12.3335C18.7791 12.3335 18.5671 12.4213 18.4108 12.5776C18.2545 12.7339 18.1667 12.9458 18.1667 13.1668V21.1077L14.6517 17.5885C14.571 17.5077 14.4752 17.4435 14.3696 17.3998C14.2641 17.356 14.151 17.3335 14.0367 17.3335C13.9225 17.3335 13.8094 17.356 13.7039 17.3998C13.5983 17.4435 13.5025 17.5077 13.4217 17.5885C13.2586 17.7519 13.167 17.9734 13.167 18.2043C13.167 18.4353 13.2586 18.6567 13.4217 18.8202L18.3417 23.7452C18.5226 23.926 18.7634 24.011 19.0001 23.9993C19.2367 24.011 19.4776 23.926 19.6584 23.7452L24.5784 18.8202C24.7416 18.6567 24.8332 18.4353 24.8332 18.2043C24.8332 17.9734 24.7416 17.7519 24.5784 17.5885C24.4977 17.5077 24.4018 17.4435 24.2963 17.3998C24.1908 17.356 24.0777 17.3335 23.9634 17.3335C23.8492 17.3335 23.7361 17.356 23.6305 17.3998C23.525 17.4435 23.4291 17.5077 23.3484 17.5885L19.8334 21.1077V13.1668C19.8334 12.9458 19.7456 12.7339 19.5893 12.5776C19.4331 12.4213 19.2211 12.3335 19.0001 12.3335ZM13.1667 26.5002C13.1667 26.2791 13.2545 26.0672 13.4108 25.9109C13.5671 25.7546 13.7791 25.6668 14.0001 25.6668H24.0001C24.2211 25.6668 24.4331 25.7546 24.5893 25.9109C24.7456 26.0672 24.8334 26.2791 24.8334 26.5002C24.8334 26.7212 24.7456 26.9331 24.5893 27.0894C24.4331 27.2457 24.2211 27.3335 24.0001 27.3335H14.0001C13.7791 27.3335 13.5671 27.2457 13.4108 27.0894C13.2545 26.9331 13.1667 26.7212 13.1667 26.5002Z" fill="#0F2F62"/>
</svg>
