<svg width="114" height="142" viewBox="0 0 114 142" fill="none" xmlns="http://www.w3.org/2000/svg">
<path d="M101.642 95.6132L68.8337 88.3653V82.9811C69.861 82.4834 70.8499 81.9099 71.792 81.2653C74.4095 81.5524 77.0534 81.0568 79.3892 79.8412C81.725 78.6256 83.6479 76.7446 84.9146 74.436C86.1813 72.1275 86.7349 69.4952 86.5054 66.872C86.2759 64.2488 85.2736 61.7526 83.6253 59.6991C83.6253 55.4982 83.0337 56.2082 85.1045 56.2082C87.8506 56.2082 90.4842 55.1173 92.426 53.1756C94.3678 51.2338 95.4587 48.6001 95.4587 45.854C95.4587 43.108 94.3678 40.4743 92.426 38.5326C90.4842 36.5908 87.8506 35.4999 85.1045 35.4999C82.1462 35.4999 84.8382 36.3578 82.6787 28.4886C90.607 20.4716 89.542 12.1586 89.542 2.95822C89.5392 2.42547 89.3927 1.90336 89.1178 1.44701C88.8429 0.990653 88.4499 0.617001 87.9802 0.365509C87.5106 0.114016 86.9817 -0.00598309 86.4495 0.0181822C85.9173 0.0423475 85.4015 0.209781 84.9566 0.502801C66.6445 12.6911 48.8649 -1.0947 39.2503 11.9811C37.7827 11.7593 36.2845 11.8575 34.8584 12.2689C33.4323 12.6803 32.112 13.3953 30.988 14.3647C29.8641 15.3341 28.963 16.5351 28.3466 17.8853C27.7303 19.2356 27.4131 20.7031 27.417 22.1874V35.6478C24.6709 35.844 22.1152 37.1229 20.3121 39.2034C18.5091 41.2839 17.6063 43.9955 17.8024 46.7416C17.9986 49.4876 19.2776 52.0434 21.3581 53.8464C23.4385 55.6495 26.1501 56.5523 28.8962 56.3561H30.3753V59.3145C30.3766 64.2719 31.7619 69.1305 34.3752 73.3432C36.9885 77.5559 40.7261 80.9553 45.167 83.1586V88.4836L12.3591 95.6132C9.0722 96.3474 6.13426 98.1813 4.031 100.812C1.92774 103.442 0.785117 106.712 0.792023 110.079V139.042C0.792023 139.826 1.1037 140.579 1.6585 141.133C2.21329 141.688 2.96576 142 3.75036 142C4.53495 142 5.28742 141.688 5.84221 141.133C6.39701 140.579 6.70869 139.826 6.70869 139.042V130.167H21.5003V139.042C21.5003 139.826 21.812 140.579 22.3668 141.133C22.9216 141.688 23.6741 142 24.4587 142C25.2433 142 25.9957 141.688 26.5505 141.133C27.1053 140.579 27.417 139.826 27.417 139.042V121.292C27.417 120.507 27.1053 119.754 26.5505 119.2C25.9957 118.645 25.2433 118.333 24.4587 118.333C23.6741 118.333 22.9216 118.645 22.3668 119.2C21.812 119.754 21.5003 120.507 21.5003 121.292V124.25H6.70869V110.079C6.70784 108.059 7.39633 106.099 8.6604 104.523C9.92446 102.947 11.6884 101.849 13.6608 101.412L33.8662 96.9149L39.7828 102.477C44.444 106.953 50.6561 109.453 57.1187 109.453C63.5813 109.453 69.7933 106.953 74.4545 102.477L80.3712 96.9149L100.577 101.412C102.505 101.895 104.215 103.013 105.433 104.584C106.651 106.156 107.305 108.091 107.292 110.079V124.25H92.5003V121.292C92.5003 120.507 92.1887 119.754 91.6339 119.2C91.0791 118.645 90.3266 118.333 89.542 118.333C88.7574 118.333 88.0049 118.645 87.4501 119.2C86.8953 119.754 86.5837 120.507 86.5837 121.292V139.042C86.5837 139.826 86.8953 140.579 87.4501 141.133C88.0049 141.688 88.7574 142 89.542 142C90.3266 142 91.0791 141.688 91.6339 141.133C92.1887 140.579 92.5003 139.826 92.5003 139.042V130.167H107.292V139.042C107.292 139.826 107.604 140.579 108.158 141.133C108.713 141.688 109.466 142 110.25 142C111.035 142 111.787 141.688 112.342 141.133C112.897 140.579 113.209 139.826 113.209 139.042V110.079C113.216 106.712 112.073 103.442 109.97 100.812C107.866 98.1813 104.928 96.3474 101.642 95.6132ZM85.1045 41.4165C86.2814 41.4165 87.4101 41.8841 88.2423 42.7163C89.0745 43.5485 89.542 44.6772 89.542 45.854C89.542 47.0309 89.0745 48.1596 88.2423 48.9918C87.4101 49.824 86.2814 50.2915 85.1045 50.2915H83.6253V41.4165H85.1045ZM51.0837 11.8332C66.6445 11.8332 73.8924 12.7503 83.6253 8.04655C83.6253 13.9632 83.6253 19.8799 77.3241 25.3824C71.0228 30.8849 64.7808 29.5832 51.0837 29.5832C48.7299 29.5832 46.4725 28.6482 44.8081 26.9838C43.1437 25.3194 42.2087 23.062 42.2087 20.7082C42.2087 18.3544 43.1437 16.097 44.8081 14.4326C46.4725 12.7683 48.7299 11.8332 51.0837 11.8332ZM33.3337 22.1874C33.3403 21.2246 33.6578 20.2898 34.2389 19.5222C34.82 18.7545 35.6335 18.1952 36.5583 17.9274C36.1226 20.173 36.2223 22.4897 36.8493 24.6896C37.4764 26.8895 38.6132 28.9106 40.1674 30.5891C38.4516 33.9911 37.2091 35.3224 33.3337 35.4999V22.1874ZM28.8962 50.2915C27.7193 50.2915 26.5906 49.824 25.7584 48.9918C24.9262 48.1596 24.4587 47.0309 24.4587 45.854C24.4587 44.6772 24.9262 43.5485 25.7584 42.7163C26.5906 41.8841 27.7193 41.4165 28.8962 41.4165H30.3753V50.2915H28.8962ZM36.292 59.1665V41.1207C38.1927 40.7331 39.9734 39.8974 41.4862 38.6831C42.9989 37.4688 44.2 35.9109 44.9895 34.139C48.9833 35.9732 50.9062 35.4999 65.8753 35.4999C69.9205 35.5185 73.9029 34.5 77.4424 32.5415C77.9749 36.0028 77.6791 60.3795 77.6495 60.6753C77.5016 63.2491 80.6078 63.6336 80.6078 68.1303C80.6037 69.2246 80.3567 70.3044 79.8848 71.2917C79.4128 72.2791 78.7277 73.1494 77.8787 73.8399C77.0297 74.5304 76.0381 75.0239 74.9753 75.2848C73.9125 75.5457 72.8051 75.5675 71.7328 75.3486C71.3186 75.2607 70.8903 75.2627 70.4769 75.3546C70.0635 75.4465 69.6746 75.626 69.3366 75.8811C66.2496 78.1707 62.5864 79.556 58.757 79.8821C54.9275 80.2081 51.0828 79.462 47.6532 77.7273C44.2236 75.9925 41.3445 73.3376 39.338 70.0596C37.3315 66.7816 36.2768 63.0099 36.292 59.1665ZM70.2241 98.2165C66.6697 101.633 61.9307 103.542 57.0003 103.542C52.07 103.542 47.331 101.633 43.7766 98.2165L40.8183 95.2582L46.4687 94.0157C47.7587 93.7251 48.9142 93.0106 49.7507 91.9865C50.5872 90.9623 51.0565 89.6874 51.0837 88.3653V85.1111C54.971 86.0605 59.0297 86.0605 62.917 85.1111V88.4245C62.9177 89.767 63.3749 91.0693 64.2135 92.1176C65.0522 93.1659 66.2224 93.8979 67.532 94.1932L73.1824 95.4357L70.2241 98.2165Z" fill="black"/>
</svg>
