<svg width="241" height="61" viewBox="0 0 241 61" fill="none" xmlns="http://www.w3.org/2000/svg">
<g clip-path="url(#clip0_1081_4694)">
<path d="M14.7446 32.5463V40.5122L20.2304 43.6985L20.0018 48.0229L11.0875 41.8778V22.9873L4.6875 27.5392V45.7469L26.8589 60.5406V40.5122L14.7446 32.5463Z" fill="#ED7B30"/>
<path d="M43.3135 32.5463V40.5122L37.8278 43.6985L38.0564 48.0229L46.9706 41.8778V22.9873L53.3706 27.5392V45.7469L31.1992 60.5406V40.5122L43.3135 32.5463Z" fill="#ED7B30"/>
<path d="M32.1158 21.8487V17.5244H25.7158V21.8487H21.6016V28.2214H25.7158V32.3182H32.1158V28.2214H36.2301V21.8487H32.1158Z" fill="white"/>
<path d="M0.115234 18.2077V25.7183L29.3724 7.73826L57.4867 25.7183V18.2077L28.6867 0L0.115234 18.2077Z" fill="#ED7B30"/>
<path d="M73.9844 29.5877H78.0255V19.954L82.7798 24.901L87.5341 19.954V29.5877H91.5752V12.9003H88.6989L82.7798 19.4333L76.8845 12.9003H73.9844V29.5877ZM105.752 25.0194C105.823 24.6643 105.847 24.2856 105.847 23.8359C105.847 20.309 103.446 17.7527 99.7613 17.7527C96.1005 17.7527 93.5807 20.309 93.5807 23.8595C93.5807 27.41 96.1005 29.9664 99.7613 29.9664C102.162 29.9664 104.278 28.9959 105.324 27.1023L102.234 25.6111C101.663 26.3686 100.783 26.7946 99.8088 26.7946C98.5489 26.7946 97.7407 26.1319 97.4317 25.0194H105.752ZM97.4792 22.5577C97.7883 21.5162 98.5965 20.9008 99.7613 20.9008C100.95 20.9008 101.687 21.4452 101.996 22.5577H97.4792ZM111.516 28.5225C112.372 29.4457 113.631 29.8717 115.034 29.8717C118.267 29.8717 120.454 27.197 120.454 23.8359C120.454 20.4747 118.314 17.8474 115.034 17.8474C113.679 17.8474 112.372 18.2261 111.516 19.0072V12.3086H107.665V29.5877H111.516V28.5225ZM116.555 23.8359C116.555 25.4218 115.533 26.5343 113.988 26.5343C112.395 26.5343 111.397 25.4218 111.397 23.8359C111.397 22.2973 112.395 21.1612 113.988 21.1612C115.533 21.1612 116.555 22.2973 116.555 23.8359ZM133.892 25.0194C133.963 24.6643 133.987 24.2856 133.987 23.8359C133.987 20.309 131.586 17.7527 127.902 17.7527C124.241 17.7527 121.721 20.309 121.721 23.8595C121.721 27.41 124.241 29.9664 127.902 29.9664C130.303 29.9664 132.418 28.9959 133.464 27.1023L130.374 25.6111C129.803 26.3686 128.924 26.7946 127.949 26.7946C126.689 26.7946 125.881 26.1319 125.572 25.0194H133.892ZM125.62 22.5577C125.929 21.5162 126.737 20.9008 127.902 20.9008C129.09 20.9008 129.827 21.4452 130.136 22.5577H125.62ZM135.805 29.5877H139.656V12.3086H135.805V29.5877ZM147.169 13.0187V29.5877H151.234V23.1258H157.937V29.5877H161.978V13.0187H157.937V19.4096H151.234V13.0187H147.169ZM163.956 23.8359C163.956 27.3627 166.594 29.9664 170.326 29.9664C174.035 29.9664 176.721 27.3627 176.721 23.8359C176.721 20.309 174.035 17.7527 170.326 17.7527C166.594 17.7527 163.956 20.309 163.956 23.8359ZM172.965 23.8359C172.965 25.4454 171.943 26.6053 170.326 26.6053C168.71 26.6053 167.711 25.4454 167.711 23.8359C167.711 22.25 168.71 21.1138 170.326 21.1138C171.943 21.1138 172.965 22.25 172.965 23.8359ZM177.649 26.9366C178.291 28.9013 180.407 29.9664 182.998 29.9664C185.66 29.9664 187.942 28.4989 187.942 26.0609C187.942 24.1673 186.587 22.9127 184.472 22.3447L183.022 21.9659C182.38 21.7766 182.071 21.5399 182.071 21.2322C182.071 20.8535 182.451 20.6641 182.903 20.6641C183.497 20.6641 184.068 20.9481 184.353 21.4925L187.277 20.1907C186.682 18.5811 184.923 17.7764 182.831 17.7764C180.407 17.7764 178.22 19.0782 178.22 21.3269C178.22 23.0548 179.29 24.2383 181.453 24.8537L182.95 25.2797C183.545 25.4691 184.091 25.7768 184.091 26.2502C184.091 26.7236 183.592 26.984 182.95 26.984C181.928 26.984 181.191 26.4632 180.716 25.5875L177.649 26.9366ZM189.719 34.3217H193.57V28.7119C194.426 29.5403 195.733 29.8954 197.088 29.8954C200.369 29.8954 202.508 27.268 202.508 23.9069C202.508 20.5457 200.321 17.871 197.088 17.871C195.686 17.871 194.426 18.2971 193.57 19.2202V18.1551H189.719V34.3217ZM198.61 23.9069C198.61 25.4218 197.588 26.5579 196.042 26.5579C194.45 26.5579 193.451 25.4218 193.451 23.9069C193.451 22.321 194.45 21.2085 196.042 21.2085C197.588 21.2085 198.61 22.321 198.61 23.9069ZM203.989 14.5809C203.989 15.8354 204.987 16.7586 206.295 16.7586C207.602 16.7586 208.577 15.8354 208.577 14.5809C208.577 13.3264 207.602 12.4033 206.295 12.4033C204.987 12.4033 203.989 13.3264 203.989 14.5809ZM204.369 18.1551V29.5877H208.22V18.1551H204.369ZM215.891 14.6046H213.633L209.425 21.3979H212.04V29.5877H215.891V21.3979H219.124V18.1551H215.891V14.6046ZM219.495 23.8359C219.495 27.197 221.729 29.8717 225.01 29.8717C226.365 29.8717 227.601 29.4457 228.48 28.5225V29.5877H232.308V18.1551H228.48V19.1729C227.648 18.2971 226.484 17.8474 225.01 17.8474C221.729 17.8474 219.495 20.4747 219.495 23.8359ZM228.528 23.8359C228.528 25.4218 227.553 26.5343 225.961 26.5343C224.368 26.5343 223.393 25.4218 223.393 23.8359C223.393 22.2973 224.368 21.1612 225.961 21.1612C227.553 21.1612 228.528 22.2973 228.528 23.8359ZM234.763 29.5877H238.614V12.3086H234.763V29.5877Z" fill="white"/>
<path d="M74.7983 41.6661V47.7948H75.7738V41.6661H78.0367V40.7848H72.5254V41.6661H74.7983ZM78.7453 40.4844V47.7948H79.6705V45.1109C79.6705 44.3398 80.1432 43.8191 80.9076 43.8191C81.6618 43.8191 82.1345 44.3398 82.1345 45.1109V47.7948H83.0598V45.0208C83.0598 43.8391 82.3457 42.9479 81.1489 42.9479C80.5053 42.9479 79.9622 43.1882 79.6404 43.6789V40.4844H78.7453ZM88.6607 45.7719C88.6808 45.6517 88.6909 45.5315 88.6909 45.4214C88.6909 44.0194 87.7958 42.9479 86.3476 42.9479C84.8993 42.9479 83.9439 44.0194 83.9439 45.4314C83.9439 46.8434 84.8993 47.9249 86.3476 47.9249C87.3533 47.9249 88.1578 47.4643 88.5501 46.6531L87.7455 46.2926C87.4639 46.8033 86.9611 47.0837 86.3476 47.0837C85.5531 47.0837 85.02 46.563 84.8993 45.7719H88.6607ZM84.9194 45.0208C85.0502 44.2898 85.5832 43.7791 86.3476 43.7791C87.122 43.7791 87.6047 44.2597 87.7254 45.0208H84.9194ZM92.0692 40.7848V47.7948H93.0447V44.6903H97.0374V47.7948H98.0129V40.7848H97.0374V43.7891H93.0447V40.7848H92.0692ZM103.826 45.7719C103.846 45.6517 103.856 45.5315 103.856 45.4214C103.856 44.0194 102.961 42.9479 101.513 42.9479C100.065 42.9479 99.1092 44.0194 99.1092 45.4314C99.1092 46.8434 100.065 47.9249 101.513 47.9249C102.519 47.9249 103.323 47.4643 103.715 46.6531L102.911 46.2926C102.629 46.8033 102.126 47.0837 101.513 47.0837C100.718 47.0837 100.185 46.563 100.065 45.7719H103.826ZM100.085 45.0208C100.215 44.2898 100.748 43.7791 101.513 43.7791C102.287 43.7791 102.77 44.2597 102.891 45.0208H100.085ZM104.482 45.4214C104.482 46.8234 105.417 47.9249 106.785 47.9249C107.509 47.9249 108.112 47.6445 108.524 47.0938V47.7948H109.45V43.0781H108.524V43.7791C108.122 43.2283 107.499 42.9479 106.785 42.9479C105.417 42.9479 104.482 44.0494 104.482 45.4214ZM108.474 45.4314C108.474 46.3828 107.911 47.0637 106.956 47.0637C106.02 47.0637 105.437 46.3627 105.437 45.4314C105.437 44.9707 105.568 44.5802 105.839 44.2697C106.111 43.9593 106.483 43.7991 106.956 43.7991C107.891 43.7991 108.474 44.5001 108.474 45.4314ZM110.726 47.7948H111.651V40.4844H110.726V47.7948ZM114.274 41.4658H113.871L112.383 43.9193H113.348V47.7948H114.274V43.9193H115.852V43.0781H114.274V41.4658ZM116.512 40.4844V47.7948H117.437V45.1109C117.437 44.3398 117.91 43.8191 118.674 43.8191C119.428 43.8191 119.901 44.3398 119.901 45.1109V47.7948H120.826V45.0208C120.826 43.8391 120.112 42.9479 118.915 42.9479C118.272 42.9479 117.729 43.1882 117.407 43.6789V40.4844H116.512ZM124 44.2898C123.97 46.2325 125.479 47.965 127.671 47.9249C129.159 47.9249 130.316 47.2139 130.909 46.0823L130.024 45.6317C129.612 46.4729 128.787 47.0036 127.671 47.0036C126.022 47.0337 124.976 45.7018 124.996 44.2898C124.976 42.8778 126.022 41.5459 127.671 41.5759C128.787 41.5759 129.612 42.1067 130.024 42.9479L130.909 42.4972C130.316 41.3656 129.159 40.6546 127.671 40.6546C125.479 40.6246 123.97 42.347 124 44.2898ZM131.443 45.4214C131.443 46.8234 132.379 47.9249 133.746 47.9249C134.471 47.9249 135.074 47.6445 135.486 47.0938V47.7948H136.412V43.0781H135.486V43.7791C135.084 43.2283 134.46 42.9479 133.746 42.9479C132.379 42.9479 131.443 44.0494 131.443 45.4214ZM135.436 45.4314C135.436 46.3828 134.873 47.0637 133.917 47.0637C132.982 47.0637 132.399 46.3627 132.399 45.4314C132.399 44.9707 132.53 44.5802 132.801 44.2697C133.073 43.9593 133.445 43.7991 133.917 43.7991C134.853 43.7991 135.436 44.5001 135.436 45.4314ZM137.688 47.7948H138.613V44.7504C138.613 44.1796 138.885 43.8091 139.357 43.8091C139.8 43.8091 140.051 44.0895 140.041 44.5301H140.956C140.987 43.6088 140.514 43.008 139.659 43.008C139.186 43.008 138.804 43.1982 138.613 43.5988V43.0781H137.688V47.7948ZM146.061 45.7719C146.082 45.6517 146.092 45.5315 146.092 45.4214C146.092 44.0194 145.196 42.9479 143.748 42.9479C142.3 42.9479 141.345 44.0194 141.345 45.4314C141.345 46.8434 142.3 47.9249 143.748 47.9249C144.754 47.9249 145.559 47.4643 145.951 46.6531L145.146 46.2926C144.865 46.8033 144.362 47.0837 143.748 47.0837C142.954 47.0837 142.421 46.563 142.3 45.7719H146.061ZM142.32 45.0208C142.451 44.2898 142.984 43.7791 143.748 43.7791C144.523 43.7791 145.005 44.2597 145.126 45.0208H142.32ZM149.47 40.7848V47.7948H150.445V44.6903H154.438V47.7948H155.414V40.7848H154.438V43.7891H150.445V40.7848H149.47ZM156.5 45.4214C156.5 46.8334 157.536 47.9249 159.024 47.9249C160.513 47.9249 161.548 46.8334 161.548 45.4214C161.548 44.0494 160.513 42.9479 159.024 42.9479C157.536 42.9479 156.5 44.0494 156.5 45.4214ZM160.613 45.4214C160.613 46.3828 159.99 47.0637 159.024 47.0637C158.551 47.0637 158.169 46.9135 157.878 46.6031C157.586 46.2926 157.445 45.8921 157.445 45.4214C157.445 44.9507 157.586 44.5702 157.878 44.2597C158.169 43.9493 158.551 43.7991 159.024 43.7991C159.497 43.7991 159.879 43.9493 160.171 44.2597C160.462 44.5702 160.613 44.9507 160.613 45.4214ZM162.096 46.8033C162.307 47.4943 163.052 47.9249 163.987 47.9249C164.962 47.9249 165.817 47.3641 165.817 46.4529C165.817 45.6918 165.284 45.1911 164.429 44.9607L163.906 44.8105C163.534 44.7004 163.293 44.5501 163.293 44.2597C163.293 43.9393 163.595 43.769 163.967 43.769C164.359 43.769 164.62 43.9092 164.751 44.1896L165.546 43.8291C165.294 43.2583 164.701 42.9579 163.967 42.9579C163.122 42.9579 162.327 43.4686 162.327 44.2798C162.327 44.9307 162.74 45.3813 163.575 45.6317L164.148 45.7919C164.62 45.9321 164.862 46.1624 164.862 46.4929C164.862 46.8935 164.47 47.1138 163.987 47.1138C163.464 47.1138 163.062 46.8735 162.891 46.4328L162.096 46.8033ZM166.732 49.7976H167.657V47.1438C168.05 47.6546 168.673 47.9249 169.397 47.9249C170.785 47.9249 171.69 46.8534 171.69 45.4414C171.69 44.0595 170.765 42.9479 169.397 42.9479C168.673 42.9479 168.06 43.2283 167.657 43.7791V43.0781H166.732V49.7976ZM170.735 45.4514C170.735 46.3828 170.151 47.0737 169.226 47.0737C168.271 47.0737 167.698 46.3828 167.698 45.4514C167.698 44.4901 168.271 43.8091 169.226 43.8091C170.151 43.8091 170.735 44.5001 170.735 45.4514ZM172.434 41.596C172.434 41.9865 172.735 42.2569 173.127 42.2569C173.5 42.2569 173.821 41.9865 173.821 41.596C173.821 41.1954 173.52 40.925 173.127 40.925C172.735 40.925 172.434 41.1954 172.434 41.596ZM172.665 43.0781V47.7948H173.59V43.0781H172.665ZM176.212 41.4658H175.81L174.322 43.9193H175.287V47.7948H176.212V43.9193H177.791V43.0781H176.212V41.4658ZM177.843 45.4214C177.843 46.8234 178.779 47.9249 180.146 47.9249C180.871 47.9249 181.474 47.6445 181.886 47.0938V47.7948H182.812V43.0781H181.886V43.7791C181.484 43.2283 180.86 42.9479 180.146 42.9479C178.779 42.9479 177.843 44.0494 177.843 45.4214ZM181.836 45.4314C181.836 46.3828 181.273 47.0637 180.317 47.0637C179.382 47.0637 178.799 46.3627 178.799 45.4314C178.799 44.9707 178.93 44.5802 179.201 44.2697C179.473 43.9593 179.845 43.7991 180.317 43.7991C181.253 43.7991 181.836 44.5001 181.836 45.4314ZM184.088 47.7948H185.013V40.4844H184.088V47.7948Z" fill="white"/>
<path d="M240.114 44.6084H190.285V47.3396H240.114V44.6084Z" fill="white"/>
</g>
<defs>
<clipPath id="clip0_1081_4694">
<rect width="240" height="60.5405" fill="white" transform="translate(0.115234)"/>
</clipPath>
</defs>
</svg>
