<svg width="1513" height="322" viewBox="0 0 1513 322" fill="none" xmlns="http://www.w3.org/2000/svg">
<rect y="2" width="1512" height="320" fill="#292B40"/>
<mask id="mask0_1315_304" style="mask-type:alpha" maskUnits="userSpaceOnUse" x="0" y="2" width="184" height="320">
<rect y="2" width="184" height="320" fill="#292B40"/>
</mask>
<g mask="url(#mask0_1315_304)">
<path opacity="0.1" d="M144.515 339.374C147.205 337.088 149.844 334.604 152.378 331.722C161.554 320.975 165.299 304.853 158.775 292.448C153.697 282.742 143.356 276.835 133.158 272.694C119.41 267.14 100.77 262.746 92.3679 249.238C85.7361 238.451 92.1444 222.38 91.074 210.153C90.0339 198.448 85.8288 186.397 77.133 178.263C64.5901 166.357 44.2229 163.47 35.4576 148.572C30.3865 139.71 30.8006 128.691 32.9654 118.701C35.0027 108.635 38.3848 98.8553 38.6812 88.6076C39.0132 69.9763 22.2241 51.5417 5.74945 44.8902C-16.9955 35.7322 -45.4093 44.2558 -59.5719 64.3445C-72.6526 82.8833 -73.353 107.013 -76.6061 129.476C-79.4923 149.296 -85.8219 168.103 -101.098 181.486C-115.679 194.269 -131.218 205.817 -136.247 225.555C-140.272 241.009 -137.581 258.223 -129.052 271.805C-115.923 292.46 -91.5737 302.897 -68.4559 311.433C-39.4464 322.254 -10.0465 332.127 19.5435 341.104C56.2017 352.383 111.211 366.541 144.515 339.374Z" fill="#B7ACA8"/>
</g>
<mask id="mask1_1315_304" style="mask-type:alpha" maskUnits="userSpaceOnUse" x="1199" y="0" width="314" height="210">
<rect x="1199.11" width="313" height="210" fill="#292B40"/>
</mask>
<g mask="url(#mask1_1315_304)">
<path opacity="0.1" d="M1544.73 158.388C1542.54 161.156 1540.15 163.879 1537.35 166.513C1526.93 176.059 1510.95 180.364 1498.33 174.277C1488.45 169.542 1482.19 159.413 1477.69 149.365C1471.66 135.82 1466.62 117.344 1452.83 109.419C1441.81 103.168 1425.98 110.134 1413.72 109.491C1401.98 108.86 1389.79 105.078 1381.36 96.6718C1369.02 84.5522 1365.43 64.2982 1350.23 56.0585C1341.2 51.2999 1330.2 52.0985 1320.29 54.6108C1310.31 56.9983 1300.65 60.7198 1290.42 61.3738C1271.81 62.3562 1252.8 46.221 1245.58 29.9886C1235.63 7.57731 1243.16 -21.1168 1262.74 -35.9722C1280.81 -49.6922 1304.9 -51.2347 1327.24 -55.2701C1346.94 -58.8467 1365.52 -65.829 1378.36 -81.5633C1390.63 -96.5815 1401.62 -112.514 1421.17 -118.23C1436.48 -122.792 1453.78 -120.703 1467.65 -112.654C1488.75 -100.253 1500.03 -76.2837 1509.37 -53.4781C1521.19 -24.8641 1532.09 4.17312 1542.09 33.4317C1554.64 69.6736 1570.71 124.155 1544.73 158.388Z" fill="#B7ACA8"/>
</g>
<path opacity="0.2" d="M226.929 101.195C218.872 104.853 214.334 107.216 212.201 110.538C209.69 114.432 210.592 119.646 213.123 129.819C208.62 119.927 206.064 115.324 201.365 114.013C197.712 112.98 192.73 113.972 184.519 116.022C192.546 112.375 197.114 110.001 199.228 106.72C201.758 102.785 200.867 97.602 198.326 87.3982C202.347 96.2037 204.802 100.808 208.597 102.638C212.392 104.469 217.567 103.545 226.929 101.195Z" fill="white"/>
<path opacity="0.2" d="M1266.93 219.195C1258.87 222.853 1254.33 225.216 1252.2 228.538C1249.69 232.432 1250.59 237.646 1253.12 247.819C1248.62 237.927 1246.06 233.324 1241.36 232.013C1237.71 230.98 1232.73 231.972 1224.52 234.022C1232.55 230.375 1237.11 228.001 1239.23 224.72C1241.76 220.785 1240.87 215.602 1238.32 205.398C1242.35 214.204 1244.8 218.808 1248.6 220.638C1252.39 222.469 1257.57 221.545 1266.93 219.195Z" fill="white"/>
</svg>
