<svg width="12" height="12" viewBox="0 0 12 12" fill="none" xmlns="http://www.w3.org/2000/svg">
<path d="M6 0C2.6865 0 0 2.6865 0 6C0 9.3135 2.6865 12 6 12C9.3135 12 12 9.3135 12 6C12 2.6865 9.3135 0 6 0ZM8.7795 4.34025L5.9055 8.733C5.90475 8.73375 5.90325 8.7345 5.90325 8.73525C5.88825 8.75775 5.88 8.78325 5.86125 8.80425C5.835 8.83275 5.80125 8.84775 5.77125 8.8695C5.76375 8.87475 5.75625 8.88075 5.748 8.886C5.7015 8.91525 5.6535 8.93475 5.601 8.9475C5.58375 8.952 5.568 8.9565 5.55 8.9595C5.50823 8.96525 5.4659 8.96575 5.424 8.961C5.39441 8.95913 5.36504 8.95461 5.33625 8.9475C5.30655 8.93854 5.27769 8.927 5.25 8.913C5.226 8.90175 5.2005 8.89875 5.178 8.8845C5.1615 8.874 5.1525 8.8575 5.13825 8.84475C5.13225 8.8395 5.12475 8.838 5.11875 8.83275L3.4455 7.2855C3.34632 7.19027 3.28846 7.05992 3.28435 6.92248C3.28025 6.78504 3.33023 6.65148 3.42355 6.5505C3.51687 6.44951 3.64608 6.38917 3.78342 6.38244C3.92076 6.37571 4.05525 6.42313 4.158 6.5145L5.36925 7.635L7.9005 3.76575C7.97668 3.64919 8.09605 3.56766 8.23234 3.53911C8.36864 3.51056 8.51069 3.53732 8.62725 3.6135C8.74381 3.68968 8.82534 3.80905 8.85389 3.94534C8.88244 4.08163 8.85568 4.22369 8.7795 4.34025Z" fill="#1FBC6A"/>
</svg>
