<svg width="62" height="47" viewBox="0 0 62 47" fill="none" xmlns="http://www.w3.org/2000/svg">
<path d="M26.5516 41.488C24.381 43.856 21.9636 45.2373 19.2996 45.632C16.6356 45.928 14.021 45.484 11.4556 44.3C8.98896 43.0173 6.86763 41.192 5.09163 38.824C3.31563 36.2587 2.18096 33.2987 1.68763 29.944C1.19429 26.4907 1.73696 22.7907 3.31563 18.844C4.99296 14.7987 7.95296 11.0987 12.1956 7.744C16.537 4.29066 21.717 1.92266 27.7356 0.639992C28.821 0.442661 29.561 0.393329 29.9556 0.491994C30.3503 0.59066 30.597 0.738661 30.6956 0.935997C30.6956 1.824 30.3996 2.46533 29.8076 2.85999C27.341 4.24133 25.269 5.968 23.5916 8.03999C21.9143 10.112 20.8783 12.1347 20.4836 14.108C20.089 15.9827 20.533 17.364 21.8156 18.252C22.2103 18.548 23.1476 19.3867 24.6276 20.768C26.1076 22.0507 27.489 23.7773 28.7716 25.948C30.0543 28.02 30.6463 30.388 30.5476 33.052C30.5476 35.716 29.2156 38.528 26.5516 41.488ZM57.6316 41.488C55.461 43.856 53.0436 45.2373 50.3796 45.632C47.7156 45.928 45.101 45.484 42.5356 44.3C40.069 43.0173 37.9476 41.192 36.1716 38.824C34.3956 36.2587 33.261 33.2987 32.7676 29.944C32.2743 26.4907 32.817 22.7907 34.3956 18.844C36.073 14.7987 39.033 11.0987 43.2756 7.744C47.617 4.29066 52.797 1.92266 58.8156 0.639992C59.901 0.442661 60.641 0.393329 61.0356 0.491994C61.4303 0.59066 61.677 0.738661 61.7756 0.935997C61.7756 1.824 61.4796 2.46533 60.8876 2.85999C58.421 4.24133 56.349 5.968 54.6716 8.03999C52.9943 10.112 51.9583 12.1347 51.5636 14.108C51.169 15.9827 51.613 17.364 52.8956 18.252C53.2903 18.548 54.2276 19.3867 55.7076 20.768C57.1876 22.0507 58.569 23.7773 59.8516 25.948C61.1343 28.02 61.7263 30.388 61.6276 33.052C61.6276 35.716 60.2956 38.528 57.6316 41.488Z" fill="#F2DFDF"/>
</svg>
