<svg width="62" height="47" viewBox="0 0 62 47" fill="none" xmlns="http://www.w3.org/2000/svg">
<path d="M35.4796 5.512C37.6503 3.14401 40.0676 1.76267 42.7316 1.368C45.3956 1.072 48.0103 1.516 50.5756 2.70001C53.0423 3.98267 55.1636 5.80801 56.9396 8.17601C58.7156 10.7413 59.8503 13.7013 60.3436 17.056C60.837 20.5093 60.2943 24.2093 58.7156 28.156C57.0383 32.2013 54.0783 35.9013 49.8356 39.256C45.4943 42.7093 40.3143 45.0773 34.2956 46.36C33.2103 46.5573 32.4703 46.6067 32.0756 46.508C31.681 46.4093 31.4343 46.2613 31.3356 46.064C31.3356 45.176 31.6316 44.5347 32.2236 44.14C34.6903 42.7587 36.7623 41.032 38.4396 38.96C40.117 36.888 41.153 34.8653 41.5476 32.892C41.9423 31.0173 41.4983 29.636 40.2156 28.748C39.821 28.452 38.8836 27.6133 37.4036 26.232C35.9236 24.9493 34.5423 23.2227 33.2596 21.052C31.977 18.98 31.385 16.612 31.4836 13.948C31.4836 11.284 32.8156 8.472 35.4796 5.512ZM4.39962 5.512C6.57029 3.14401 8.98762 1.76267 11.6516 1.368C14.3156 1.072 16.9303 1.516 19.4956 2.70001C21.9623 3.98267 24.0836 5.80801 25.8596 8.17601C27.6356 10.7413 28.7703 13.7013 29.2636 17.056C29.757 20.5093 29.2143 24.2093 27.6356 28.156C25.9583 32.2013 22.9983 35.9013 18.7556 39.256C14.4143 42.7093 9.23429 45.0773 3.21562 46.36C2.13029 46.5573 1.39029 46.6067 0.995624 46.508C0.600956 46.4093 0.354288 46.2613 0.25562 46.064C0.25562 45.176 0.55162 44.5347 1.14362 44.14C3.61029 42.7587 5.68229 41.032 7.35962 38.96C9.03696 36.888 10.073 34.8653 10.4676 32.892C10.8623 31.0173 10.4183 29.636 9.13562 28.748C8.74096 28.452 7.80362 27.6133 6.32362 26.232C4.84362 24.9493 3.46229 23.2227 2.17962 21.052C0.896954 18.98 0.304954 16.612 0.403622 13.948C0.403622 11.284 1.73562 8.472 4.39962 5.512Z" fill="#F2DFDF"/>
</svg>
