<svg width="19" height="23" viewBox="0 0 19 23" fill="none" xmlns="http://www.w3.org/2000/svg">
<path d="M17.4785 6.14953V16.4486C17.4785 20.5682 16.4486 21.5981 12.329 21.5981H6.14953C2.02991 21.5981 1 20.5682 1 16.4486V6.14953C1 2.02991 2.02991 1 6.14953 1H12.329C16.4486 1 17.4785 2.02991 17.4785 6.14953Z" stroke="#ED7B30" stroke-width="1.5" stroke-linecap="round" stroke-linejoin="round"/>
<path d="M11.2993 4.60449H7.17969" stroke="#ED7B30" stroke-width="1.5" stroke-linecap="round" stroke-linejoin="round"/>
<path d="M9.23893 18.6117C10.1206 18.6117 10.8353 17.8969 10.8353 17.0153C10.8353 16.1337 10.1206 15.4189 9.23893 15.4189C8.35729 15.4189 7.64258 16.1337 7.64258 17.0153C7.64258 17.8969 8.35729 18.6117 9.23893 18.6117Z" stroke="#ED7B30" stroke-width="1.5" stroke-linecap="round" stroke-linejoin="round"/>
</svg>
