<svg width="19" height="18" viewBox="0 0 19 18" fill="none" xmlns="http://www.w3.org/2000/svg">
<path d="M18 14.064C18 14.352 17.9319 14.648 17.7872 14.936C17.6425 15.224 17.4552 15.496 17.2083 15.752C16.7912 16.184 16.3315 16.496 15.8122 16.696C15.3015 16.896 14.7481 17 14.1522 17C13.2839 17 12.356 16.808 11.3771 16.416C10.3981 16.024 9.41913 15.496 8.44867 14.832C7.4697 14.16 6.54181 13.416 5.65648 12.592C4.77967 11.76 3.98798 10.888 3.28142 9.976C2.58337 9.064 2.02153 8.152 1.61292 7.248C1.20431 6.336 1 5.464 1 4.632C1 4.088 1.10215 3.568 1.30646 3.088C1.51077 2.6 1.83425 2.152 2.28543 1.752C2.83025 1.248 3.42614 1 4.05608 1C4.29444 1 4.5328 1.048 4.74562 1.144C4.96695 1.24 5.16274 1.384 5.31597 1.592L7.29094 4.208C7.44417 4.408 7.55483 4.592 7.63145 4.768C7.70806 4.936 7.75063 5.104 7.75063 5.256C7.75063 5.448 7.69104 5.64 7.57186 5.824C7.46119 6.008 7.29945 6.2 7.09514 6.392L6.44817 7.024C6.35453 7.112 6.31197 7.216 6.31197 7.344C6.31197 7.408 6.32048 7.464 6.33751 7.528C6.36305 7.592 6.38858 7.64 6.40561 7.688C6.55884 7.952 6.82273 8.296 7.1973 8.712C7.58037 9.128 7.98898 9.552 8.43165 9.976C8.89134 10.4 9.334 10.792 9.78518 11.152C10.2278 11.504 10.5939 11.744 10.8833 11.888C10.9259 11.904 10.977 11.928 11.0366 11.952C11.1047 11.976 11.1728 11.984 11.2494 11.984C11.3941 11.984 11.5048 11.936 11.5984 11.848L12.2454 11.248C12.4582 11.048 12.6625 10.896 12.8583 10.8C13.0541 10.688 13.2499 10.632 13.4627 10.632C13.6244 10.632 13.7947 10.664 13.982 10.736C14.1693 10.808 14.365 10.912 14.5779 11.048L17.3956 12.928C17.6169 13.072 17.7702 13.24 17.8638 13.44C17.9489 13.64 18 13.84 18 14.064Z" stroke="#C1C1EA" stroke-width="1.5" stroke-miterlimit="10"/>
</svg>
