<svg width="36" height="36" viewBox="0 0 36 36" fill="none" xmlns="http://www.w3.org/2000/svg">
<circle opacity="0.1" cx="17.9068" cy="17.7017" r="17.6216" fill="white"/>
<path fill-rule="evenodd" clip-rule="evenodd" d="M24.517 14.6706C24.517 12.6967 22.9141 11.0938 20.9401 11.0938H14.8776C12.9037 11.0938 11.3008 12.6967 11.3008 14.6706V20.7331C11.3008 22.707 12.9037 24.31 14.8776 24.31H20.9401C22.9141 24.31 24.517 22.707 24.517 20.7331V14.6706ZM23.4257 14.6706V20.7331C23.4257 22.105 22.3121 23.2187 20.9401 23.2187H14.8776C13.5057 23.2187 12.392 22.105 12.392 20.7331V14.6706C12.392 13.2987 13.5057 12.185 14.8776 12.185H20.9401C22.3121 12.185 23.4257 13.2987 23.4257 14.6706ZM20.8734 17.2399C20.6825 15.9492 19.6616 14.9283 18.3709 14.7373C18.2266 14.7155 18.0811 14.7052 17.935 14.7052C16.3054 14.7052 14.9643 16.0462 14.9643 17.6758C14.9643 19.3054 16.3054 20.6464 17.935 20.6464C19.5646 20.6464 20.9056 19.3054 20.9056 17.6758C20.9056 17.5297 20.8953 17.3842 20.8734 17.2399ZM19.7943 17.3999C19.8077 17.4915 19.8143 17.5836 19.8143 17.6758C19.8143 18.7064 18.9662 19.5552 17.935 19.5552C16.9043 19.5552 16.0556 18.7064 16.0556 17.6758C16.0556 16.6446 16.9043 15.7964 17.935 15.7964C18.0271 15.7964 18.1193 15.8031 18.2108 15.8164C19.0274 15.9377 19.6731 16.5833 19.7943 17.3999ZM21.2433 13.8219C21.5446 13.8219 21.7889 14.0662 21.7889 14.3675C21.7889 14.6688 21.5446 14.9131 21.2433 14.9131C20.9419 14.9131 20.6976 14.6688 20.6976 14.3675C20.6976 14.0662 20.9419 13.8219 21.2433 13.8219Z" fill="white"/>
</svg>
