<svg width="37" height="36" viewBox="0 0 37 36" fill="none" xmlns="http://www.w3.org/2000/svg">
<circle opacity="0.1" cx="18.4927" cy="17.7017" r="17.6216" fill="white"/>
<path d="M11.8867 13.2781C11.8867 12.8578 12.0356 12.5111 12.3332 12.2379C12.6309 11.9647 13.0178 11.8281 13.4941 11.8281C13.9619 11.8281 14.3403 11.9626 14.6295 12.2316C14.9271 12.509 15.076 12.8704 15.076 13.3159C15.076 13.7193 14.9314 14.0555 14.6422 14.3245C14.3446 14.6019 13.9533 14.7406 13.4686 14.7406H13.4558C12.9881 14.7406 12.6096 14.6019 12.3205 14.3245C12.0313 14.0471 11.8867 13.6983 11.8867 13.2781ZM12.0526 24.3101V15.8879H14.8846V24.3101H12.0526ZM16.4537 24.3101H19.2858V19.6073C19.2858 19.3131 19.3198 19.0862 19.3878 18.9265C19.5069 18.6407 19.6876 18.399 19.93 18.2015C20.1724 18.004 20.4764 17.9052 20.8421 17.9052C21.7946 17.9052 22.2709 18.5398 22.2709 19.809V24.3101H25.1029V19.4812C25.1029 18.2372 24.8053 17.2937 24.2099 16.6507C23.6146 16.0077 22.8279 15.6862 21.8499 15.6862C20.7528 15.6862 19.8981 16.1527 19.2858 17.0857V17.1109H19.273L19.2858 17.0857V15.8879H16.4537C16.4707 16.1569 16.4792 16.9932 16.4792 18.3969C16.4792 19.8006 16.4707 21.7717 16.4537 24.3101Z" fill="white"/>
</svg>
