<svg width="26" height="18" viewBox="0 0 26 18" fill="none" xmlns="http://www.w3.org/2000/svg">
<path fill-rule="evenodd" clip-rule="evenodd" d="M0.974609 1.5C0.974609 0.67158 1.74693 0 2.69961 0H23.3996C24.3523 0 25.1246 0.67158 25.1246 1.5C25.1246 2.32842 24.3523 3 23.3996 3H2.69961C1.74693 3 0.974609 2.32842 0.974609 1.5Z" fill="#ED7B30"/>
<path fill-rule="evenodd" clip-rule="evenodd" d="M0.974609 9C0.974609 8.17158 1.74693 7.5 2.69961 7.5H23.3996C24.3523 7.5 25.1246 8.17158 25.1246 9C25.1246 9.82845 24.3523 10.5 23.3996 10.5H2.69961C1.74693 10.5 0.974609 9.82845 0.974609 9Z" fill="#ED7B30"/>
<path fill-rule="evenodd" clip-rule="evenodd" d="M0.974609 16.5C0.974609 15.6716 1.74693 15 2.69961 15H13.0496C14.0023 15 14.7746 15.6716 14.7746 16.5C14.7746 17.3284 14.0023 18 13.0496 18H2.69961C1.74693 18 0.974609 17.3284 0.974609 16.5Z" fill="#ED7B30"/>
</svg>
