<svg width="54" height="72" viewBox="0 0 54 72" fill="none" xmlns="http://www.w3.org/2000/svg">
<path d="M44.2701 53.3701H6.80012C6.6768 53.3705 6.55787 53.3244 6.46705 53.241C6.37622 53.1576 6.32019 53.043 6.31013 52.9201L2.54012 0.520076C2.53574 0.452825 2.54499 0.385386 2.56733 0.321803C2.58967 0.25822 2.62463 0.199809 2.67011 0.15008C2.71476 0.102043 2.76897 0.0638839 2.82925 0.0380505C2.88952 0.012217 2.95454 -0.000712837 3.02012 8.65849e-05H30.8301C30.9185 -0.00164723 31.0055 0.0226916 31.0801 0.0700786L41.1801 6.15008C41.2487 6.18834 41.3066 6.24316 41.3485 6.30954C41.3904 6.37591 41.415 6.45174 41.4201 6.53009L44.7401 52.8501C44.7464 52.9175 44.738 52.9854 44.7156 53.0493C44.6931 53.1131 44.6571 53.1714 44.6101 53.2201C44.5197 53.3111 44.3983 53.3646 44.2701 53.3701ZM7.27012 52.3701H43.7401L40.4601 6.82008L30.7401 0.970073H3.54012L7.27012 52.3701Z" fill="#ED7B30"/>
<path d="M40.9301 6.56998L30.8301 0.47998L34.5401 8.53998L40.9301 6.56998Z" fill="#EBEBEB"/>
<path d="M34.5398 9.03982C34.4462 9.03967 34.3546 9.01213 34.2765 8.9606C34.1983 8.90907 34.1369 8.83581 34.0998 8.74983L30.3898 0.74983C30.3417 0.655598 30.3262 0.54812 30.3455 0.44412C30.3648 0.340119 30.4179 0.245409 30.4966 0.174711C30.5753 0.104012 30.6751 0.0612927 30.7806 0.0531743C30.886 0.045056 30.9912 0.071995 31.0798 0.129819L41.1798 6.20982C41.2613 6.25874 41.3271 6.32989 41.3697 6.4149C41.4122 6.49991 41.4296 6.59527 41.4198 6.68982C41.4047 6.78105 41.3651 6.86648 41.3052 6.93693C41.2453 7.00739 41.1674 7.06024 41.0798 7.08983L34.6798 9.08983L34.5398 9.03982ZM31.9298 1.71982L34.7998 7.95982L39.7998 6.42982L31.9298 1.71982Z" fill="#ED7B30"/>
<path d="M18.7402 24.0901C18.7566 24.3627 18.717 24.6357 18.6239 24.8924C18.5307 25.1491 18.386 25.3839 18.1986 25.5826C18.0113 25.7812 17.7852 25.9393 17.5344 26.0473C17.2835 26.1552 17.0133 26.2106 16.7402 26.2101C16.1678 26.1997 15.6196 25.977 15.202 25.5853C14.7845 25.1936 14.5272 24.6607 14.4802 24.0901C14.4543 23.816 14.4874 23.5394 14.5772 23.2791C14.667 23.0188 14.8115 22.7807 15.0009 22.5808C15.1904 22.3809 15.4204 22.2239 15.6756 22.1203C15.9307 22.0167 16.2051 21.9689 16.4802 21.9801C17.0511 21.9903 17.598 22.2116 18.0153 22.6013C18.4326 22.9909 18.6909 23.5213 18.7402 24.0901Z" fill="#ED7B30"/>
<path d="M32.4402 24.0897C32.4659 24.3643 32.4328 24.6412 32.3431 24.9021C32.2534 25.1629 32.1091 25.4015 31.9198 25.6022C31.7305 25.8028 31.5007 25.9607 31.2455 26.0655C30.9904 26.1703 30.7158 26.2194 30.4402 26.2097C29.8667 26.1995 29.3173 25.9771 28.8981 25.5856C28.4788 25.1941 28.2195 24.6612 28.1702 24.0897C28.1459 23.8159 28.1801 23.54 28.2705 23.2804C28.3609 23.0208 28.5055 22.7834 28.6946 22.5839C28.8837 22.3844 29.1131 22.2274 29.3674 22.1232C29.6218 22.019 29.8954 21.9701 30.1702 21.9797C30.7434 21.9852 31.294 22.2046 31.7139 22.595C32.1338 22.9853 32.3928 23.5183 32.4402 24.0897Z" fill="#ED7B30"/>
<path d="M36.3199 37.82C36.1976 37.8202 36.0799 37.7738 35.9907 37.6902C35.9015 37.6065 35.8476 37.492 35.8399 37.37C35.5899 33.97 30.2499 31.2 23.9399 31.2C19.7499 31.2 15.9899 32.44 14.1299 34.45C13.7491 34.8174 13.4506 35.2614 13.2541 35.7526C13.0575 36.2439 12.9675 36.7713 12.9899 37.3C12.9945 37.3656 12.9861 37.4316 12.9652 37.494C12.9444 37.5564 12.9114 37.6141 12.8682 37.6638C12.781 37.7641 12.6575 37.8257 12.5249 37.835C12.3923 37.8443 12.2614 37.8005 12.1611 37.7133C12.0608 37.6261 11.9992 37.5026 11.9899 37.37C11.9609 36.7086 12.0705 36.0485 12.3116 35.432C12.5527 34.8155 12.92 34.2562 13.3899 33.79C15.3899 31.59 19.4599 30.23 23.9099 30.23C30.8399 30.23 36.4899 33.34 36.7699 37.3C36.7754 37.3638 36.768 37.4281 36.7482 37.4891C36.7284 37.5501 36.6966 37.6064 36.6546 37.6549C36.6127 37.7034 36.5614 37.743 36.504 37.7713C36.4465 37.7997 36.3839 37.8162 36.3199 37.82Z" fill="#ED7B30"/>
<path d="M10.9101 19.7997C10.8493 19.8009 10.7888 19.7901 10.7321 19.7678C10.6755 19.7455 10.6238 19.7121 10.5801 19.6697C10.5354 19.6251 10.4999 19.5721 10.4757 19.5138C10.4514 19.4554 10.439 19.3929 10.439 19.3297C10.439 19.2665 10.4514 19.204 10.4757 19.1456C10.4999 19.0873 10.5354 19.0343 10.5801 18.9897L12.7101 16.6997C12.754 16.6537 12.8068 16.6171 12.8652 16.5921C12.9237 16.5671 12.9866 16.5542 13.0501 16.5542C13.1137 16.5542 13.1766 16.5671 13.2351 16.5921C13.2935 16.6171 13.3462 16.6537 13.3901 16.6997C13.4349 16.7443 13.4704 16.7973 13.4946 16.8556C13.5189 16.914 13.5313 16.9765 13.5313 17.0397C13.5313 17.1029 13.5189 17.1654 13.4946 17.2238C13.4704 17.2821 13.4349 17.3351 13.3901 17.3797L11.2601 19.6697C11.2138 19.7141 11.1588 19.7486 11.0986 19.771C11.0384 19.7933 10.9743 19.8031 10.9101 19.7997Z" fill="#ED7B30"/>
<path d="M35.3198 19.7997C35.1976 19.7981 35.0802 19.7519 34.9898 19.6697L32.5398 17.3897C32.4936 17.345 32.4568 17.2913 32.4316 17.2321C32.4065 17.1728 32.3936 17.1091 32.3936 17.0447C32.3936 16.9803 32.4065 16.9166 32.4316 16.8573C32.4568 16.7981 32.4936 16.7445 32.5398 16.6997C32.5837 16.6537 32.6365 16.6171 32.6949 16.5921C32.7534 16.5671 32.8163 16.5542 32.8798 16.5542C32.9434 16.5542 33.0063 16.5671 33.0647 16.5921C33.1232 16.6171 33.1759 16.6537 33.2198 16.6997L35.6698 18.9897C35.7146 19.0343 35.7501 19.0873 35.7743 19.1456C35.7985 19.204 35.811 19.2665 35.811 19.3297C35.811 19.3929 35.7985 19.4554 35.7743 19.5138C35.7501 19.5721 35.7146 19.6251 35.6698 19.6697C35.5738 19.7557 35.4487 19.8022 35.3198 19.7997Z" fill="#ED7B30"/>
<path d="M0 63.2397H2.26001L5.52 67.5697L5.21001 63.2397H7.49001L8.05 71.0697H5.74001L2.5 66.7697L2.81001 71.0697H0.529999L0 63.2397Z" fill="#ED7B30"/>
<path d="M9.07014 67.16C8.9923 66.6276 9.02873 66.0847 9.17701 65.5674C9.32529 65.0501 9.58204 64.5704 9.93014 64.16C10.3086 63.7842 10.7634 63.4942 11.2637 63.3096C11.7641 63.125 12.2983 63.0501 12.8301 63.09C13.9569 63.0289 15.0638 63.4051 15.9201 64.14C16.7045 64.9211 17.1591 65.9735 17.1901 67.08C17.2711 67.8432 17.1682 68.6147 16.8901 69.33C16.6312 69.9058 16.1973 70.3852 15.6501 70.7C14.9919 71.0475 14.254 71.2165 13.5101 71.19C12.7439 71.2161 11.9817 71.0692 11.2801 70.76C10.6643 70.4677 10.1441 70.0065 9.78013 69.43C9.35109 68.7475 9.10647 67.9654 9.07014 67.16ZM11.5001 67.16C11.4913 67.7765 11.6884 68.3782 12.0601 68.87C12.218 69.0399 12.4102 69.1742 12.624 69.2639C12.8378 69.3535 13.0684 69.3966 13.3001 69.39C13.5218 69.4055 13.7439 69.3672 13.9476 69.2784C14.1513 69.1896 14.3306 69.053 14.4701 68.88C14.7711 68.3167 14.8665 67.6661 14.7401 67.04C14.7443 66.4519 14.5467 65.8801 14.1801 65.42C14.0199 65.2512 13.8256 65.1184 13.6101 65.0305C13.3945 64.9425 13.1628 64.9015 12.9301 64.91C12.7126 64.9006 12.4959 64.9428 12.2977 65.0332C12.0996 65.1236 11.9256 65.2596 11.7901 65.43C11.4835 65.9549 11.3803 66.5741 11.5001 67.17V67.16Z" fill="#ED7B30"/>
<path d="M21.8901 63.2401H25.4901C26.0836 63.2212 26.6749 63.3198 27.2301 63.5301C27.6696 63.7142 28.0599 63.9984 28.3701 64.3601C28.685 64.7272 28.9261 65.1516 29.0801 65.6101C29.2423 66.1025 29.3431 66.613 29.3801 67.1301C29.4569 67.7836 29.406 68.4459 29.2301 69.0801C29.0924 69.5192 28.8485 69.9176 28.5201 70.2401C28.2462 70.5299 27.9016 70.7436 27.5201 70.8601C27.0546 70.992 26.5739 71.0626 26.0901 71.0701H22.5001L21.8901 63.2401ZM24.4401 65.0401L24.7501 69.3201H25.3401C25.7042 69.3461 26.0696 69.2915 26.4101 69.1601C26.6289 69.0245 26.792 68.8152 26.8701 68.5701C26.9841 68.1261 27.0113 67.6643 26.9501 67.2101C26.9669 66.5972 26.7805 65.996 26.4201 65.5001C26.2331 65.3341 26.0144 65.2078 25.7773 65.1287C25.5401 65.0497 25.2893 65.0195 25.0401 65.0401H24.4401Z" fill="#ED7B30"/>
<path d="M35.1902 69.7798H32.4402L32.1502 71.0697H29.6802L32.0602 63.2397H34.7402L38.2502 71.0697H35.7102L35.1902 69.7798ZM34.5602 68.0898L33.5002 65.2697L32.8402 68.0898H34.5602Z" fill="#ED7B30"/>
<path d="M37.1099 63.2397H44.4699L44.6099 65.1698H42.1399L42.5599 71.0697H40.1399L39.7199 65.1698H37.2499L37.1099 63.2397Z" fill="#ED7B30"/>
<path d="M50.1101 69.7798H47.3601L47.0701 71.0697H44.6001L46.9801 63.2397H49.6201L53.1201 71.0697H50.5901L50.1101 69.7798ZM49.4801 68.0898L48.4101 65.2697L47.7601 68.0898H49.4801Z" fill="#ED7B30"/>
</svg>
