<svg width="45" height="45" viewBox="0 0 45 45" fill="none" xmlns="http://www.w3.org/2000/svg">
<circle cx="22.5" cy="22.5" r="22" stroke="#ED7B30"/>
<path d="M22.8973 16.4399V19.7699" stroke="#ED7B30" stroke-width="1.5" stroke-miterlimit="10" stroke-linecap="round"/>
<path d="M22.9174 12C19.2374 12 16.2574 14.98 16.2574 18.66V20.76C16.2574 21.44 15.9774 22.46 15.6274 23.04L14.3574 25.16C13.5774 26.47 14.1174 27.93 15.5574 28.41C20.3374 30 25.5074 30 30.2874 28.41C31.6374 27.96 32.2174 26.38 31.4874 25.16L30.2174 23.04C29.8674 22.46 29.5874 21.43 29.5874 20.76V18.66C29.5774 15 26.5774 12 22.9174 12Z" stroke="#ED7B30" stroke-width="1.5" stroke-miterlimit="10" stroke-linecap="round"/>
<path d="M26.2274 28.8203C26.2274 30.6503 24.7274 32.1503 22.8974 32.1503C21.9874 32.1503 21.1474 31.7703 20.5474 31.1703C19.9474 30.5703 19.5674 29.7303 19.5674 28.8203" stroke="#ED7B30" stroke-width="1.5" stroke-miterlimit="10"/>
<circle cx="29" cy="17" r="3.5" fill="#53B176" stroke="white"/>
</svg>
