<svg width="19" height="19" viewBox="0 0 19 19" fill="none" xmlns="http://www.w3.org/2000/svg">
<path d="M9.5 0C4.25362 0 0 4.25362 0 9.5C0 14.7464 4.25362 19 9.5 19C14.7464 19 19 14.7464 19 9.5C19 4.25362 14.7464 0 9.5 0ZM13.9009 6.87206L9.35038 13.8273C9.34919 13.8284 9.34681 13.8296 9.34681 13.8308C9.32306 13.8664 9.31 13.9068 9.28031 13.9401C9.23875 13.9852 9.18531 14.0089 9.13781 14.0434C9.12594 14.0517 9.11406 14.0612 9.101 14.0695C9.02738 14.1158 8.95138 14.1467 8.86825 14.1669C8.84094 14.174 8.816 14.1811 8.7875 14.1859C8.72136 14.195 8.65434 14.1958 8.588 14.1882C8.54114 14.1853 8.49464 14.1781 8.44906 14.1669C8.40203 14.1527 8.35634 14.1344 8.3125 14.1122C8.2745 14.0944 8.23413 14.0897 8.1985 14.0671C8.17238 14.0505 8.15812 14.0244 8.13556 14.0042C8.12606 13.9959 8.11419 13.9935 8.10469 13.9852L5.45538 11.5354C5.29834 11.3846 5.20673 11.1782 5.20023 10.9606C5.19373 10.743 5.27286 10.5315 5.42062 10.3716C5.56838 10.2117 5.77297 10.1162 5.99042 10.1055C6.20786 10.0949 6.42081 10.1699 6.5835 10.3146L8.50131 12.0888L12.5091 5.96244C12.6297 5.77788 12.8187 5.6488 13.0345 5.60359C13.2503 5.55838 13.4753 5.60075 13.6598 5.72137C13.8444 5.842 13.9735 6.031 14.0187 6.24679C14.0639 6.46259 14.0215 6.68751 13.9009 6.87206Z" fill="#ED7B30"/>
</svg>
