<svg width="68" height="68" viewBox="0 0 68 68" fill="none" xmlns="http://www.w3.org/2000/svg">
<circle cx="34" cy="34" r="34" fill="#F7F0EB"/>
<g clip-path="url(#clip0_1971_59)">
<path fill-rule="evenodd" clip-rule="evenodd" d="M46.7931 25.9473V48.3156C46.7931 49.7983 45.5982 51 44.1248 51H23.6683C22.1944 51 21 49.7983 21 48.3156V19.6844C21 18.2017 22.1944 17 23.6683 17H37.8987L46.7931 25.9473Z" fill="#CB0606"/>
<path fill-rule="evenodd" clip-rule="evenodd" d="M46.7931 25.4463V26.5598H39.522C38.0166 26.5598 37.3223 25.3273 37.3223 23.8074V17H38.4235L46.7931 25.4463Z" fill="#FB8D8D"/>
<path fill-rule="evenodd" clip-rule="evenodd" d="M40.7955 35.0874C40.566 35.0109 40.3449 34.9721 40.1317 34.9721C39.8896 34.9721 39.7232 35.0226 39.6322 35.1235C39.5416 35.2245 39.4964 35.4029 39.4964 35.6595V36.1499H40.5139V37.1348H39.4964V41.1909H38.2636V37.1348H37.6282V36.1499H38.2636V35.6595C38.2636 35.0348 38.4173 34.5832 38.7247 34.3043C39.0321 34.0254 39.4943 33.8862 40.1122 33.8862C40.4023 33.8862 40.7097 33.9261 41.0345 34.0063L40.7955 35.0874ZM35.6316 40.7006C35.4021 40.8961 35.16 41.0517 34.9052 41.167C34.6504 41.2823 34.3609 41.3397 34.0361 41.3397C33.4055 41.3397 32.9228 41.1107 32.5886 40.6528C32.2538 40.1943 32.0869 39.5472 32.0869 38.711C32.0869 37.8557 32.2706 37.1911 32.6386 36.7167C33.0065 36.2429 33.5229 36.0054 34.1888 36.0054C34.4246 36.0054 34.6662 36.0543 34.9147 36.152C35.1631 36.2498 35.3689 36.3741 35.5311 36.5244V34.035H36.7639V41.1909H35.6316V40.7006ZM35.5311 37.5481C35.4005 37.4297 35.2389 37.3245 35.0463 37.2331C34.8536 37.1423 34.6567 37.0966 34.4562 37.0966C34.1251 37.0966 33.8593 37.24 33.6587 37.5264C33.4576 37.8132 33.3576 38.2016 33.3576 38.6919C33.3576 39.1759 33.4397 39.5552 33.6034 39.8309C33.7677 40.1066 34.0214 40.2442 34.3656 40.2442C34.5694 40.2442 34.7773 40.1969 34.9889 40.1024C35.2005 40.0078 35.3816 39.8915 35.5311 39.7539V37.5481ZM30.2619 41.0129C29.9592 41.2308 29.5981 41.3397 29.1775 41.3397C28.6233 41.3397 28.1506 41.1654 27.7589 40.8159V43.0891H26.5261V36.1499H27.6631V36.6445C27.8926 36.4458 28.1337 36.2896 28.3869 36.1759C28.6401 36.0622 28.9307 36.0054 29.2586 36.0054C29.8924 36.0054 30.3751 36.2296 30.7062 36.6785C31.0373 37.1269 31.2031 37.7787 31.2031 38.634C31.2031 39.1759 31.122 39.6529 30.9594 40.0663C30.7967 40.4796 30.5646 40.7951 30.2619 41.0129ZM29.6792 37.5072C29.5102 37.2331 29.2586 37.0966 28.9244 37.0966C28.7238 37.0966 28.5175 37.1439 28.3058 37.2379C28.0937 37.3324 27.9116 37.4488 27.7589 37.5864V39.7921C27.8895 39.9111 28.0511 40.0158 28.2437 40.1072C28.4364 40.1985 28.6343 40.2442 28.8386 40.2442C29.176 40.2442 29.4428 40.0992 29.6387 39.8091C29.8345 39.5191 29.9324 39.1339 29.9324 38.6537C29.9324 38.1633 29.8476 37.7814 29.6792 37.5072Z" fill="white"/>
</g>
<defs>
<clipPath id="clip0_1971_59">
<rect width="25.7931" height="34" fill="white" transform="translate(21 17)"/>
</clipPath>
</defs>
</svg>
