<svg width="88" height="26" viewBox="0 0 88 26" fill="none" xmlns="http://www.w3.org/2000/svg">
<rect width="88" height="26" rx="13" fill="#DDF1E6"/>
<rect x="43" y="4" width="40.33" height="18.6138" rx="9.30692" fill="#4BCA0C"/>
<path d="M58.716 17.084C57.932 17.084 57.212 16.9 56.556 16.532C55.9 16.164 55.38 15.656 54.996 15.008C54.612 14.352 54.42 13.612 54.42 12.788C54.42 11.972 54.612 11.24 54.996 10.592C55.38 9.936 55.9 9.424 56.556 9.056C57.212 8.688 57.932 8.504 58.716 8.504C59.508 8.504 60.228 8.688 60.876 9.056C61.532 9.424 62.048 9.936 62.424 10.592C62.808 11.24 63 11.972 63 12.788C63 13.612 62.808 14.352 62.424 15.008C62.048 15.656 61.532 16.164 60.876 16.532C60.22 16.9 59.5 17.084 58.716 17.084ZM58.716 15.584C59.22 15.584 59.664 15.472 60.048 15.248C60.432 15.016 60.732 14.688 60.948 14.264C61.164 13.84 61.272 13.348 61.272 12.788C61.272 12.228 61.164 11.74 60.948 11.324C60.732 10.9 60.432 10.576 60.048 10.352C59.664 10.128 59.22 10.016 58.716 10.016C58.212 10.016 57.764 10.128 57.372 10.352C56.988 10.576 56.688 10.9 56.472 11.324C56.256 11.74 56.148 12.228 56.148 12.788C56.148 13.348 56.256 13.84 56.472 14.264C56.688 14.688 56.988 15.016 57.372 15.248C57.764 15.472 58.212 15.584 58.716 15.584ZM71.4139 17H69.7339L65.9299 11.252V17H64.2499V8.612H65.9299L69.7339 14.372V8.612H71.4139V17Z" fill="white"/>
<path d="M14.704 17.084C13.928 17.084 13.212 16.904 12.556 16.544C11.908 16.176 11.392 15.668 11.008 15.02C10.632 14.364 10.444 13.628 10.444 12.812C10.444 11.996 10.632 11.264 11.008 10.616C11.392 9.968 11.908 9.464 12.556 9.104C13.212 8.736 13.928 8.552 14.704 8.552C15.488 8.552 16.204 8.736 16.852 9.104C17.508 9.464 18.024 9.968 18.4 10.616C18.776 11.264 18.964 11.996 18.964 12.812C18.964 13.628 18.776 14.364 18.4 15.02C18.024 15.668 17.508 16.176 16.852 16.544C16.204 16.904 15.488 17.084 14.704 17.084ZM14.704 15.896C15.256 15.896 15.748 15.772 16.18 15.524C16.612 15.268 16.948 14.908 17.188 14.444C17.436 13.972 17.56 13.428 17.56 12.812C17.56 12.196 17.436 11.656 17.188 11.192C16.948 10.728 16.612 10.372 16.18 10.124C15.748 9.876 15.256 9.752 14.704 9.752C14.152 9.752 13.66 9.876 13.228 10.124C12.796 10.372 12.456 10.728 12.208 11.192C11.968 11.656 11.848 12.196 11.848 12.812C11.848 13.428 11.968 13.972 12.208 14.444C12.456 14.908 12.796 15.268 13.228 15.524C13.66 15.772 14.152 15.896 14.704 15.896ZM25.2182 8.66V9.776H21.6782V12.236H24.4382V13.352H21.6782V17H20.3102V8.66H25.2182ZM31.3939 8.66V9.776H27.8539V12.236H30.6139V13.352H27.8539V17H26.4859V8.66H31.3939Z" fill="#452C25"/>
</svg>
