<svg width="38" height="38" viewBox="0 0 38 38" fill="none" xmlns="http://www.w3.org/2000/svg">
<rect opacity="0.8" x="0.5" y="0.5" width="37" height="37" rx="11.5" stroke="#D52B1E"/>
<path d="M25.625 14.7342C22.9888 14.473 20.3367 14.3384 17.6925 14.3384C16.125 14.3384 14.5575 14.4175 12.99 14.5759L11.375 14.7342" stroke="#D52B1E" stroke-width="1.5" stroke-linecap="round" stroke-linejoin="round"/>
<path d="M15.7295 13.9347L15.9037 12.8977C16.0303 12.1456 16.1253 11.5835 17.4632 11.5835H19.5374C20.8753 11.5835 20.9782 12.1772 21.097 12.9056L21.2712 13.9347" stroke="#D52B1E" stroke-width="1.5" stroke-linecap="round" stroke-linejoin="round"/>
<path d="M23.923 17.2358L23.4084 25.2079C23.3213 26.4508 23.2501 27.4167 21.0413 27.4167H15.9588C13.7501 27.4167 13.6788 26.4508 13.5917 25.2079L13.0771 17.2358" stroke="#D52B1E" stroke-width="1.5" stroke-linecap="round" stroke-linejoin="round"/>
<path d="M17.1777 23.0625H19.814" stroke="#D52B1E" stroke-width="1.5" stroke-linecap="round" stroke-linejoin="round"/>
<path d="M16.5205 19.896H20.4788" stroke="#D52B1E" stroke-width="1.5" stroke-linecap="round" stroke-linejoin="round"/>
</svg>
