<svg width="25" height="25" viewBox="0 0 25 25" fill="none" xmlns="http://www.w3.org/2000/svg">
<path d="M9.31744 22.7847H15.5293C20.7058 22.7847 22.7764 20.7134 22.7764 15.535V9.32099C22.7764 4.14263 20.7058 2.07129 15.5293 2.07129H9.31744C4.14092 2.07129 2.07031 4.14263 2.07031 9.32099V15.535C2.07031 20.7134 4.14092 22.7847 9.31744 22.7847Z" stroke="#0F2F62" stroke-width="1.5" stroke-linecap="round" stroke-linejoin="round"/>
<path d="M9.31774 10.3566C10.4613 10.3566 11.3883 9.42918 11.3883 8.28521C11.3883 7.14124 10.4613 6.21387 9.31774 6.21387C8.17417 6.21387 7.24713 7.14124 7.24713 8.28521C7.24713 9.42918 8.17417 10.3566 9.31774 10.3566Z" stroke="#0F2F62" stroke-width="1.5" stroke-linecap="round" stroke-linejoin="round"/>
<path d="M2.76465 19.6263L7.8687 16.1982C8.68659 15.6493 9.86684 15.7114 10.6019 16.3432L10.9436 16.6436C11.7511 17.3375 13.0556 17.3375 13.8631 16.6436L18.17 12.9462C18.9775 12.2523 20.282 12.2523 21.0895 12.9462L22.7771 14.3961" stroke="#0F2F62" stroke-width="1.5" stroke-linecap="round" stroke-linejoin="round"/>
</svg>
