<svg width="45" height="45" viewBox="0 0 50 50" fill="none" xmlns="http://www.w3.org/2000/svg">
<rect x="0.222656" width="49.7765" height="49.7765" rx="10" fill="#292B40"/>
<path d="M15.1894 19.2957H25.8781C26.2159 20.5964 27.3897 21.5631 28.794 21.5631C30.1983 21.5631 31.3721 20.5964 31.7099 19.2957H34.8405C35.2577 19.2957 35.5963 18.9578 35.5963 18.5398C35.5963 18.1219 35.2577 17.784 34.8405 17.784H31.7099C31.3721 16.4833 30.1983 15.5166 28.794 15.5166C27.3897 15.5166 26.2159 16.4833 25.8781 17.784H15.1894C14.7722 17.784 14.4336 18.1219 14.4336 18.5398C14.4336 18.9578 14.7722 19.2957 15.1894 19.2957ZM28.794 17.0282C29.6277 17.0282 30.3049 17.7054 30.3056 18.5383V18.5398V18.5414C30.3049 19.3743 29.6277 20.0515 28.794 20.0515C27.9603 20.0515 27.2824 19.3735 27.2824 18.5398C27.2824 17.7062 27.9603 17.0282 28.794 17.0282ZM34.8405 24.5863H27.9309C27.593 23.2856 26.4192 22.3189 25.0149 22.3189C23.6107 22.3189 22.4369 23.2856 22.099 24.5863H15.1894C14.7722 24.5863 14.4336 24.9242 14.4336 25.3421C14.4336 25.7601 14.7722 26.098 15.1894 26.098H22.099C22.4369 27.3987 23.6107 28.3654 25.0149 28.3654C26.4192 28.3654 27.593 27.3987 27.9309 26.098H34.8405C35.2577 26.098 35.5963 25.7601 35.5963 25.3421C35.5963 24.9242 35.2577 24.5863 34.8405 24.5863ZM25.0149 26.8538C24.1813 26.8538 23.5033 26.1758 23.5033 25.3421C23.5033 24.5085 24.1813 23.8305 25.0149 23.8305C25.8486 23.8305 26.5266 24.5085 26.5266 25.3421C26.5266 26.1758 25.8486 26.8538 25.0149 26.8538ZM34.8405 31.3886H24.1518C23.814 30.0879 22.6402 29.1212 21.2359 29.1212C19.8316 29.1212 18.6578 30.0879 18.32 31.3886H15.1894C14.7722 31.3886 14.4336 31.7265 14.4336 32.1444C14.4336 32.5624 14.7722 32.9003 15.1894 32.9003H18.32C18.6578 34.201 19.8316 35.1677 21.2359 35.1677C22.6402 35.1677 23.814 34.201 24.1518 32.9003H34.8405C35.2577 32.9003 35.5963 32.5624 35.5963 32.1444C35.5963 31.7265 35.2577 31.3886 34.8405 31.3886ZM21.2359 33.6561C20.4022 33.6561 19.725 32.9789 19.7243 32.146V32.1444V32.1429C19.725 31.31 20.4022 30.6328 21.2359 30.6328C22.0696 30.6328 22.7475 31.3108 22.7475 32.1444C22.7475 32.9781 22.0696 33.6561 21.2359 33.6561Z" fill="white"/>
</svg>
