<svg width="169" height="169" viewBox="0 0 169 169" fill="none" xmlns="http://www.w3.org/2000/svg">
<g filter="url(#filter0_d_2295_60)">
<circle cx="19.5" cy="19.5" r="19.5" transform="matrix(-1 0 0 1 104 61)" fill="#ED7B30"/>
<circle cx="19.5" cy="19.5" r="19" transform="matrix(-1 0 0 1 104 61)" stroke="white"/>
</g>
<path d="M87.7597 73.2938C87.4404 72.9021 86.9255 72.9021 86.6062 73.2938L81.1906 79.9365C80.9365 80.2482 80.9365 80.7518 81.1906 81.0635L86.6062 87.7062C86.9255 88.0979 87.4404 88.0979 87.7597 87.7062C88.079 87.3145 88.079 86.6831 87.7597 86.2914L83.0414 80.496L87.7662 74.7006C88.079 74.3169 88.079 73.6775 87.7597 73.2938Z" fill="white"/>
<defs>
<filter id="filter0_d_2295_60" x="0" y="0" width="169" height="169" filterUnits="userSpaceOnUse" color-interpolation-filters="sRGB">
<feFlood flood-opacity="0" result="BackgroundImageFix"/>
<feColorMatrix in="SourceAlpha" type="matrix" values="0 0 0 0 0 0 0 0 0 0 0 0 0 0 0 0 0 0 127 0" result="hardAlpha"/>
<feOffset dy="4"/>
<feGaussianBlur stdDeviation="32.5"/>
<feComposite in2="hardAlpha" operator="out"/>
<feColorMatrix type="matrix" values="0 0 0 0 0.00392157 0 0 0 0 0.470588 0 0 0 0 0.8 0 0 0 0.15 0"/>
<feBlend mode="normal" in2="BackgroundImageFix" result="effect1_dropShadow_2295_60"/>
<feBlend mode="normal" in="SourceGraphic" in2="effect1_dropShadow_2295_60" result="shape"/>
</filter>
</defs>
</svg>
