<svg width="40" height="34" viewBox="0 0 40 34" fill="none" xmlns="http://www.w3.org/2000/svg">
<rect x="0.5" y="0.5" width="39" height="33" rx="5.5" stroke="#ED7B30"/>
<path d="M22.6854 16.9995C22.6854 18.4845 21.4854 19.6845 20.0004 19.6845C18.5154 19.6845 17.3154 18.4845 17.3154 16.9995C17.3154 15.5145 18.5154 14.3145 20.0004 14.3145C21.4854 14.3145 22.6854 15.5145 22.6854 16.9995Z" stroke="#ED7B30" stroke-width="1.5" stroke-linecap="round" stroke-linejoin="round"/>
<path d="M19.9999 23.2025C22.6474 23.2025 25.1149 21.6425 26.8324 18.9425C27.5074 17.885 27.5074 16.1075 26.8324 15.05C25.1149 12.35 22.6474 10.79 19.9999 10.79C17.3524 10.79 14.8849 12.35 13.1674 15.05C12.4924 16.1075 12.4924 17.885 13.1674 18.9425C14.8849 21.6425 17.3524 23.2025 19.9999 23.2025Z" stroke="#ED7B30" stroke-width="1.5" stroke-linecap="round" stroke-linejoin="round"/>
</svg>
