<svg width="103" height="113" viewBox="0 0 103 113" fill="none" xmlns="http://www.w3.org/2000/svg">
<path d="M90.5546 54.7414C77.6569 60.5977 70.3923 64.3804 66.9772 69.6977C62.9581 75.9315 64.4024 84.2771 68.4533 100.563C61.2452 84.7269 57.1539 77.3589 49.6306 75.26C43.7842 73.6075 35.8084 75.1953 22.6646 78.4771C35.5139 72.6378 42.8269 68.8382 46.2105 63.5861C50.2611 57.2871 48.8337 48.9899 44.7659 32.6558C51.204 46.7515 55.1331 54.1217 61.2078 57.0518C67.2825 59.9818 75.568 58.5032 90.5546 54.7414Z" fill="#F9E8E0"/>
<path d="M36.0207 47.3261C30.1946 49.9715 26.9131 51.6802 25.3704 54.0821C23.555 56.898 24.2073 60.6678 26.0372 68.0243C22.7812 60.871 20.9331 57.5428 17.5347 56.5947C14.8938 55.8482 11.291 56.5655 5.35377 58.0479C11.158 55.4102 14.4614 53.6939 15.9898 51.3214C17.8195 48.476 17.1748 44.7281 15.3373 37.3497C18.2455 43.717 20.0203 47.0462 22.7643 48.3698C25.5083 49.6933 29.251 49.0254 36.0207 47.3261Z" fill="#F9E8E0"/>
<path d="M66.0207 15.3261C60.1946 17.9715 56.9131 19.6802 55.3704 22.0821C53.555 24.898 54.2073 28.6678 56.0372 36.0243C52.7812 28.871 50.9331 25.5428 47.5347 24.5947C44.8938 23.8482 41.291 24.5655 35.3538 26.0479C41.158 23.4102 44.4614 21.6939 45.9898 19.3214C47.8195 16.476 47.1748 12.7281 45.3373 5.34975C48.2455 11.717 50.0203 15.0462 52.7643 16.3698C55.5083 17.6933 59.251 17.0254 66.0207 15.3261Z" fill="#F9E8E0"/>
</svg>
