<svg width="41" height="19" viewBox="0 0 41 19" fill="none" xmlns="http://www.w3.org/2000/svg">
<rect width="40.33" height="18.6138" rx="9.30692" fill="#4BCA0C"/>
<path d="M15.716 13.084C14.932 13.084 14.212 12.9 13.556 12.532C12.9 12.164 12.38 11.656 11.996 11.008C11.612 10.352 11.42 9.612 11.42 8.788C11.42 7.972 11.612 7.24 11.996 6.592C12.38 5.936 12.9 5.424 13.556 5.056C14.212 4.688 14.932 4.504 15.716 4.504C16.508 4.504 17.228 4.688 17.876 5.056C18.532 5.424 19.048 5.936 19.424 6.592C19.808 7.24 20 7.972 20 8.788C20 9.612 19.808 10.352 19.424 11.008C19.048 11.656 18.532 12.164 17.876 12.532C17.22 12.9 16.5 13.084 15.716 13.084ZM15.716 11.584C16.22 11.584 16.664 11.472 17.048 11.248C17.432 11.016 17.732 10.688 17.948 10.264C18.164 9.84 18.272 9.348 18.272 8.788C18.272 8.228 18.164 7.74 17.948 7.324C17.732 6.9 17.432 6.576 17.048 6.352C16.664 6.128 16.22 6.016 15.716 6.016C15.212 6.016 14.764 6.128 14.372 6.352C13.988 6.576 13.688 6.9 13.472 7.324C13.256 7.74 13.148 8.228 13.148 8.788C13.148 9.348 13.256 9.84 13.472 10.264C13.688 10.688 13.988 11.016 14.372 11.248C14.764 11.472 15.212 11.584 15.716 11.584ZM28.4139 13H26.7339L22.9299 7.252V13H21.2499V4.612H22.9299L26.7339 10.372V4.612H28.4139V13Z" fill="white"/>
</svg>
