<svg width="41" height="19" viewBox="0 0 41 19" fill="none" xmlns="http://www.w3.org/2000/svg">
<rect width="40.33" height="18.6138" rx="9.30692" fill="black"/>
<path d="M13.704 13.084C12.928 13.084 12.212 12.904 11.556 12.544C10.908 12.176 10.392 11.668 10.008 11.02C9.632 10.364 9.444 9.628 9.444 8.812C9.444 7.996 9.632 7.264 10.008 6.616C10.392 5.968 10.908 5.464 11.556 5.104C12.212 4.736 12.928 4.552 13.704 4.552C14.488 4.552 15.204 4.736 15.852 5.104C16.508 5.464 17.024 5.968 17.4 6.616C17.776 7.264 17.964 7.996 17.964 8.812C17.964 9.628 17.776 10.364 17.4 11.02C17.024 11.668 16.508 12.176 15.852 12.544C15.204 12.904 14.488 13.084 13.704 13.084ZM13.704 11.896C14.256 11.896 14.748 11.772 15.18 11.524C15.612 11.268 15.948 10.908 16.188 10.444C16.436 9.972 16.56 9.428 16.56 8.812C16.56 8.196 16.436 7.656 16.188 7.192C15.948 6.728 15.612 6.372 15.18 6.124C14.748 5.876 14.256 5.752 13.704 5.752C13.152 5.752 12.66 5.876 12.228 6.124C11.796 6.372 11.456 6.728 11.208 7.192C10.968 7.656 10.848 8.196 10.848 8.812C10.848 9.428 10.968 9.972 11.208 10.444C11.456 10.908 11.796 11.268 12.228 11.524C12.66 11.772 13.152 11.896 13.704 11.896ZM24.2182 4.66V5.776H20.6782V8.236H23.4382V9.352H20.6782V13H19.3102V4.66H24.2182ZM30.3939 4.66V5.776H26.8539V8.236H29.6139V9.352H26.8539V13H25.4859V4.66H30.3939Z" fill="white"/>
</svg>
