<svg width="36" height="36" viewBox="0 0 36 36" fill="none" xmlns="http://www.w3.org/2000/svg">
<circle opacity="0.1" cx="18.3228" cy="17.7017" r="17.6216" fill="white"/>
<path d="M24.9311 13.7801C24.4339 13.9876 23.9081 14.1256 23.3699 14.1897C23.9371 13.8675 24.3612 13.3574 24.5618 12.756C24.0308 13.0574 23.4499 13.2697 22.8441 13.3837C22.4726 13.0037 21.9903 12.7396 21.4599 12.6255C20.9294 12.5115 20.3754 12.5528 19.8698 12.7442C19.3643 12.9356 18.9306 13.2681 18.6251 13.6986C18.3196 14.129 18.1565 14.6375 18.157 15.1579C18.1549 15.3565 18.1759 15.5547 18.2198 15.7488C17.1419 15.6982 16.0873 15.4304 15.1249 14.963C14.1625 14.4955 13.3141 13.8389 12.635 13.0361C12.2863 13.6066 12.1783 14.283 12.3329 14.9271C12.4875 15.5713 12.8931 16.1347 13.467 16.5024C13.0383 16.4913 12.6186 16.3817 12.2434 16.1829V16.2112C12.2441 16.8101 12.4604 17.3905 12.8558 17.8546C13.2511 18.3188 13.8015 18.6384 14.4142 18.7597C14.1824 18.8182 13.9435 18.8469 13.7038 18.8451C13.5317 18.848 13.3597 18.8332 13.1909 18.8008C13.3661 19.3155 13.7035 19.7656 14.157 20.0892C14.6104 20.4127 15.1574 20.5937 15.7227 20.6074C14.7637 21.3253 13.5809 21.7148 12.3634 21.7136C12.1466 21.715 11.93 21.703 11.7148 21.6779C12.9538 22.4421 14.3974 22.8463 15.8713 22.8417C20.857 22.8417 23.583 18.8885 23.583 15.4618C23.583 15.3471 23.5788 15.2365 23.573 15.1266C24.1075 14.7605 24.5677 14.3042 24.9311 13.7801Z" fill="white"/>
</svg>
