<svg width="20" height="16" viewBox="0 0 20 16" fill="none" xmlns="http://www.w3.org/2000/svg">
<path d="M10.4415 15.0167H5.17484C2.5415 15.0167 1.6665 13.2667 1.6665 11.5084V4.49173C1.6665 1.8584 2.5415 0.983398 5.17484 0.983398H10.4415C13.0748 0.983398 13.9498 1.8584 13.9498 4.49173V11.5084C13.9498 14.1417 13.0665 15.0167 10.4415 15.0167Z" stroke="#193B68" stroke-width="1.5" stroke-linecap="round" stroke-linejoin="round"/>
<path d="M16.2669 12.2501L13.9502 10.6251V5.36678L16.2669 3.74178C17.4002 2.95011 18.3335 3.43344 18.3335 4.82511V11.1751C18.3335 12.5668 17.4002 13.0501 16.2669 12.2501Z" stroke="#193B68" stroke-width="1.5" stroke-linecap="round" stroke-linejoin="round"/>
<path d="M9.5835 7.1665C10.2739 7.1665 10.8335 6.60686 10.8335 5.9165C10.8335 5.22615 10.2739 4.6665 9.5835 4.6665C8.89314 4.6665 8.3335 5.22615 8.3335 5.9165C8.3335 6.60686 8.89314 7.1665 9.5835 7.1665Z" stroke="#193B68" stroke-width="1.5" stroke-linecap="round" stroke-linejoin="round"/>
</svg>
