<svg width="88" height="26" viewBox="0 0 88 26" fill="none" xmlns="http://www.w3.org/2000/svg">
<rect width="88" height="26" rx="13" fill="#DDF1E6"/>
<rect x="4" y="4" width="40.33" height="18.6138" rx="9.30692" fill="black"/>
<path d="M58.704 17.084C57.928 17.084 57.212 16.904 56.556 16.544C55.908 16.176 55.392 15.668 55.008 15.02C54.632 14.364 54.444 13.628 54.444 12.812C54.444 11.996 54.632 11.264 55.008 10.616C55.392 9.968 55.908 9.464 56.556 9.104C57.212 8.736 57.928 8.552 58.704 8.552C59.488 8.552 60.204 8.736 60.852 9.104C61.508 9.464 62.024 9.968 62.4 10.616C62.776 11.264 62.964 11.996 62.964 12.812C62.964 13.628 62.776 14.364 62.4 15.02C62.024 15.668 61.508 16.176 60.852 16.544C60.204 16.904 59.488 17.084 58.704 17.084ZM58.704 15.896C59.256 15.896 59.748 15.772 60.18 15.524C60.612 15.268 60.948 14.908 61.188 14.444C61.436 13.972 61.56 13.428 61.56 12.812C61.56 12.196 61.436 11.656 61.188 11.192C60.948 10.728 60.612 10.372 60.18 10.124C59.748 9.876 59.256 9.752 58.704 9.752C58.152 9.752 57.66 9.876 57.228 10.124C56.796 10.372 56.456 10.728 56.208 11.192C55.968 11.656 55.848 12.196 55.848 12.812C55.848 13.428 55.968 13.972 56.208 14.444C56.456 14.908 56.796 15.268 57.228 15.524C57.66 15.772 58.152 15.896 58.704 15.896ZM71.1622 17H69.7942L65.6782 10.772V17H64.3102V8.648H65.6782L69.7942 14.864V8.648H71.1622V17Z" fill="#4BCA0C"/>
<path d="M17.704 17.084C16.928 17.084 16.212 16.904 15.556 16.544C14.908 16.176 14.392 15.668 14.008 15.02C13.632 14.364 13.444 13.628 13.444 12.812C13.444 11.996 13.632 11.264 14.008 10.616C14.392 9.968 14.908 9.464 15.556 9.104C16.212 8.736 16.928 8.552 17.704 8.552C18.488 8.552 19.204 8.736 19.852 9.104C20.508 9.464 21.024 9.968 21.4 10.616C21.776 11.264 21.964 11.996 21.964 12.812C21.964 13.628 21.776 14.364 21.4 15.02C21.024 15.668 20.508 16.176 19.852 16.544C19.204 16.904 18.488 17.084 17.704 17.084ZM17.704 15.896C18.256 15.896 18.748 15.772 19.18 15.524C19.612 15.268 19.948 14.908 20.188 14.444C20.436 13.972 20.56 13.428 20.56 12.812C20.56 12.196 20.436 11.656 20.188 11.192C19.948 10.728 19.612 10.372 19.18 10.124C18.748 9.876 18.256 9.752 17.704 9.752C17.152 9.752 16.66 9.876 16.228 10.124C15.796 10.372 15.456 10.728 15.208 11.192C14.968 11.656 14.848 12.196 14.848 12.812C14.848 13.428 14.968 13.972 15.208 14.444C15.456 14.908 15.796 15.268 16.228 15.524C16.66 15.772 17.152 15.896 17.704 15.896ZM28.2182 8.66V9.776H24.6782V12.236H27.4382V13.352H24.6782V17H23.3102V8.66H28.2182ZM34.3939 8.66V9.776H30.8539V12.236H33.6139V13.352H30.8539V17H29.4859V8.66H34.3939Z" fill="white"/>
</svg>
