<svg width="106" height="187" viewBox="0 0 106 187" fill="none" xmlns="http://www.w3.org/2000/svg">
<g opacity="0.6">
<path d="M92.6659 186.54C92.7201 186.541 92.7736 186.527 92.8209 186.501C92.8683 186.475 92.908 186.436 92.9359 186.39C93.2959 185.843 93.6293 185.293 93.9359 184.74C93.9813 184.667 93.9962 184.579 93.9775 184.495C93.9588 184.411 93.908 184.337 93.8359 184.29C93.7615 184.246 93.6725 184.232 93.5883 184.253C93.5041 184.273 93.4314 184.326 93.3859 184.4C93.0459 184.95 92.7059 185.49 92.3859 186.04C92.3617 186.075 92.3447 186.115 92.3361 186.157C92.3275 186.199 92.3275 186.242 92.3358 186.284C92.3442 186.326 92.361 186.366 92.385 186.401C92.4091 186.437 92.44 186.467 92.4759 186.49C92.5343 186.522 92.5995 186.539 92.6659 186.54ZM94.6659 183.22C94.7224 183.22 94.7778 183.205 94.8268 183.177C94.8758 183.149 94.9168 183.108 94.9459 183.06C95.2659 182.49 95.5859 181.92 95.9459 181.35C95.9864 181.275 95.9965 181.188 95.9741 181.106C95.9518 181.024 95.8987 180.954 95.8259 180.91C95.75 180.87 95.6617 180.862 95.5796 180.886C95.4975 180.91 95.428 180.965 95.3859 181.04C95.0759 181.61 94.7559 182.17 94.4359 182.73C94.3915 182.804 94.3781 182.893 94.3987 182.978C94.4193 183.062 94.4722 183.134 94.5459 183.18C94.598 183.208 94.6567 183.222 94.7159 183.22H94.6659ZM96.5259 179.8C96.5861 179.799 96.6449 179.782 96.696 179.75C96.7471 179.719 96.7886 179.674 96.8159 179.62C97.1159 179.04 97.4059 178.45 97.6859 177.87C97.7046 177.832 97.7155 177.791 97.718 177.748C97.7206 177.706 97.7147 177.664 97.7008 177.624C97.6868 177.584 97.665 177.547 97.6367 177.515C97.6084 177.484 97.5742 177.458 97.5359 177.44C97.4979 177.421 97.4565 177.41 97.4142 177.408C97.3719 177.405 97.3296 177.411 97.2896 177.425C97.2496 177.439 97.2128 177.461 97.1812 177.489C97.1497 177.517 97.1241 177.552 97.1059 177.59C96.8259 178.17 96.5359 178.75 96.2359 179.33C96.2173 179.368 96.2063 179.409 96.2038 179.452C96.2012 179.494 96.2071 179.536 96.221 179.576C96.235 179.616 96.2568 179.653 96.2851 179.685C96.3134 179.716 96.3476 179.742 96.3859 179.76C96.4127 179.78 96.4436 179.794 96.4765 179.801C96.5093 179.808 96.5432 179.808 96.5759 179.8H96.5259ZM98.2159 176.28C98.2786 176.279 98.3397 176.261 98.3927 176.227C98.4456 176.194 98.4883 176.146 98.5159 176.09L99.2959 174.3C99.329 174.219 99.3286 174.128 99.2948 174.048C99.2611 173.967 99.1968 173.903 99.1159 173.87C99.0362 173.84 98.948 173.842 98.8697 173.876C98.7914 173.909 98.7291 173.972 98.6959 174.05C98.4459 174.64 98.1859 175.23 97.9259 175.83C97.9078 175.868 97.8975 175.909 97.8957 175.951C97.894 175.993 97.9008 176.035 97.9158 176.074C97.9308 176.114 97.9536 176.149 97.9828 176.18C98.0121 176.21 98.0471 176.234 98.0859 176.25C98.1415 176.278 98.2042 176.288 98.2659 176.28H98.2159ZM99.7259 172.69C99.7899 172.689 99.8524 172.67 99.9057 172.635C99.9589 172.599 100.001 172.549 100.026 172.49C100.266 171.87 100.496 171.26 100.726 170.65C100.74 170.61 100.746 170.568 100.744 170.525C100.741 170.483 100.73 170.441 100.712 170.403C100.693 170.365 100.667 170.331 100.635 170.303C100.603 170.275 100.566 170.254 100.526 170.24C100.446 170.214 100.359 170.219 100.283 170.254C100.207 170.289 100.147 170.352 100.116 170.43C99.8959 171.04 99.6659 171.64 99.4259 172.25C99.3959 172.33 99.3979 172.418 99.4315 172.496C99.465 172.574 99.5275 172.637 99.6059 172.67L99.7259 172.69ZM101.066 169.03C101.133 169.029 101.197 169.008 101.251 168.968C101.305 168.929 101.345 168.873 101.366 168.81C101.586 168.19 101.786 167.57 101.976 166.95C102.001 166.868 101.994 166.779 101.954 166.702C101.915 166.626 101.847 166.567 101.766 166.54C101.684 166.515 101.595 166.522 101.518 166.562C101.442 166.601 101.383 166.668 101.356 166.75C101.166 167.37 100.966 167.98 100.756 168.6C100.731 168.682 100.738 168.771 100.778 168.848C100.817 168.924 100.884 168.983 100.966 169.01L101.066 169.03ZM102.226 165.31C102.296 165.308 102.365 165.284 102.42 165.241C102.476 165.198 102.517 165.138 102.536 165.07C102.716 164.44 102.896 163.81 103.056 163.19C103.077 163.106 103.065 163.018 103.022 162.943C102.979 162.868 102.909 162.813 102.826 162.79C102.785 162.779 102.743 162.777 102.701 162.783C102.66 162.789 102.619 162.803 102.583 162.824C102.547 162.846 102.515 162.874 102.49 162.907C102.465 162.941 102.446 162.979 102.436 163.02C102.266 163.64 102.096 164.27 101.916 164.89C101.904 164.931 101.9 164.973 101.904 165.016C101.909 165.058 101.922 165.099 101.942 165.136C101.963 165.173 101.99 165.206 102.024 165.233C102.057 165.259 102.095 165.279 102.136 165.29L102.226 165.31ZM103.226 161.54C103.298 161.538 103.367 161.512 103.423 161.467C103.479 161.422 103.519 161.36 103.536 161.29C103.686 160.65 103.836 160.01 103.966 159.38C103.976 159.339 103.978 159.297 103.972 159.255C103.965 159.214 103.95 159.174 103.927 159.138C103.905 159.103 103.876 159.072 103.841 159.049C103.806 159.025 103.767 159.008 103.726 159C103.685 158.99 103.641 158.988 103.599 158.994C103.557 159.001 103.517 159.015 103.48 159.038C103.444 159.06 103.413 159.09 103.388 159.124C103.363 159.159 103.345 159.198 103.336 159.24C103.206 159.87 103.056 160.5 102.906 161.14C102.888 161.223 102.903 161.311 102.947 161.383C102.992 161.456 103.063 161.509 103.146 161.53L103.226 161.54ZM104.046 157.72C104.121 157.721 104.195 157.696 104.253 157.648C104.312 157.601 104.352 157.534 104.366 157.46C104.486 156.82 104.606 156.18 104.716 155.54C104.73 155.456 104.711 155.371 104.662 155.301C104.614 155.232 104.539 155.185 104.456 155.17C104.414 155.161 104.37 155.161 104.328 155.17C104.286 155.178 104.246 155.195 104.211 155.219C104.175 155.244 104.145 155.275 104.122 155.311C104.099 155.347 104.083 155.388 104.076 155.43C103.966 156.06 103.856 156.7 103.726 157.34C103.717 157.382 103.717 157.425 103.726 157.468C103.734 157.51 103.751 157.55 103.775 157.585C103.799 157.621 103.831 157.651 103.867 157.674C103.903 157.697 103.944 157.713 103.986 157.72H104.046ZM104.706 153.88C104.783 153.883 104.859 153.857 104.918 153.807C104.978 153.757 105.016 153.687 105.026 153.61C105.126 152.96 105.216 152.31 105.296 151.67C105.302 151.628 105.299 151.585 105.288 151.544C105.276 151.503 105.257 151.465 105.231 151.431C105.205 151.398 105.173 151.37 105.136 151.349C105.099 151.328 105.058 151.315 105.016 151.31C104.974 151.303 104.93 151.305 104.889 151.315C104.847 151.326 104.808 151.345 104.775 151.371C104.741 151.397 104.713 151.43 104.692 151.468C104.672 151.506 104.659 151.547 104.656 151.59C104.576 152.217 104.486 152.857 104.386 153.51C104.374 153.595 104.396 153.68 104.446 153.749C104.497 153.818 104.572 153.865 104.656 153.88H104.706ZM105.196 150.01C105.276 150.013 105.355 149.984 105.415 149.93C105.474 149.876 105.511 149.8 105.516 149.72C105.586 149.07 105.656 148.42 105.706 147.78C105.711 147.694 105.683 147.609 105.627 147.544C105.571 147.479 105.492 147.438 105.406 147.43C105.364 147.424 105.322 147.428 105.281 147.439C105.241 147.451 105.203 147.472 105.171 147.499C105.139 147.526 105.113 147.56 105.095 147.598C105.077 147.636 105.067 147.678 105.066 147.72C105.006 148.36 104.946 149.01 104.876 149.66C104.872 149.702 104.876 149.745 104.888 149.785C104.901 149.825 104.921 149.863 104.948 149.895C104.975 149.928 105.008 149.955 105.045 149.975C105.083 149.994 105.124 150.006 105.166 150.01H105.196ZM105.526 146.13C105.607 146.13 105.686 146.099 105.745 146.043C105.805 145.988 105.841 145.911 105.846 145.83C105.846 145.16 105.926 144.51 105.946 143.83C105.949 143.787 105.943 143.744 105.928 143.704C105.914 143.663 105.892 143.626 105.863 143.594C105.834 143.563 105.799 143.537 105.76 143.519C105.721 143.501 105.679 143.491 105.636 143.49C105.552 143.494 105.472 143.527 105.41 143.584C105.348 143.64 105.308 143.717 105.296 143.8C105.296 144.44 105.296 145.09 105.206 145.74C105.2 145.826 105.229 145.911 105.285 145.976C105.341 146.041 105.42 146.082 105.506 146.09L105.526 146.13ZM105.676 142.23C105.761 142.23 105.842 142.196 105.902 142.136C105.962 142.076 105.996 141.995 105.996 141.91C105.996 141.45 105.996 141 105.996 140.55V139.96C105.996 139.875 105.962 139.794 105.902 139.734C105.842 139.674 105.761 139.64 105.676 139.64C105.591 139.64 105.51 139.674 105.45 139.734C105.39 139.794 105.356 139.875 105.356 139.96V140.55C105.356 141 105.356 141.45 105.356 141.9C105.355 141.943 105.362 141.986 105.377 142.026C105.393 142.066 105.416 142.102 105.446 142.133C105.476 142.164 105.512 142.188 105.551 142.205C105.591 142.221 105.633 142.23 105.676 142.23ZM105.676 138.33C105.719 138.33 105.761 138.321 105.801 138.305C105.84 138.288 105.876 138.264 105.906 138.233C105.936 138.202 105.959 138.166 105.975 138.126C105.99 138.086 105.997 138.043 105.996 138C105.996 137.33 105.936 136.68 105.906 136C105.898 135.914 105.857 135.835 105.792 135.779C105.727 135.723 105.642 135.694 105.556 135.7C105.514 135.703 105.473 135.713 105.435 135.732C105.397 135.75 105.363 135.776 105.335 135.808C105.307 135.839 105.286 135.876 105.272 135.916C105.259 135.956 105.253 135.998 105.256 136.04C105.256 136.67 105.326 137.32 105.346 137.98C105.341 138.027 105.347 138.075 105.363 138.119C105.379 138.164 105.405 138.204 105.438 138.238C105.472 138.271 105.512 138.297 105.557 138.313C105.601 138.329 105.649 138.335 105.696 138.33H105.676ZM105.446 134.44C105.488 134.436 105.529 134.424 105.566 134.405C105.604 134.385 105.637 134.358 105.664 134.325C105.691 134.293 105.711 134.255 105.723 134.215C105.736 134.175 105.74 134.132 105.736 134.09C105.676 133.423 105.606 132.757 105.526 132.09C105.522 132.047 105.51 132.006 105.49 131.968C105.469 131.93 105.441 131.897 105.407 131.871C105.373 131.845 105.335 131.826 105.293 131.815C105.251 131.805 105.208 131.803 105.166 131.81C105.082 131.822 105.006 131.867 104.954 131.934C104.902 132.001 104.877 132.085 104.886 132.17C104.966 132.78 105.036 133.43 105.096 134.1C105.092 134.149 105.099 134.199 105.118 134.245C105.136 134.29 105.165 134.331 105.202 134.364C105.238 134.397 105.282 134.421 105.33 134.434C105.377 134.447 105.427 134.449 105.476 134.44H105.446ZM104.966 130.57C105.049 130.555 105.124 130.508 105.172 130.439C105.221 130.369 105.24 130.284 105.226 130.2L105.166 129.81C105.076 129.3 104.976 128.81 104.876 128.27C104.868 128.229 104.851 128.189 104.827 128.154C104.804 128.119 104.773 128.089 104.738 128.066C104.703 128.042 104.663 128.026 104.622 128.019C104.58 128.011 104.537 128.011 104.496 128.02C104.454 128.027 104.414 128.043 104.378 128.066C104.342 128.089 104.311 128.12 104.288 128.155C104.264 128.191 104.249 128.231 104.241 128.273C104.234 128.315 104.236 128.359 104.246 128.4C104.346 128.91 104.436 129.4 104.526 129.92L104.596 130.3C104.6 130.345 104.614 130.389 104.637 130.428C104.66 130.467 104.691 130.5 104.728 130.526C104.765 130.551 104.808 130.569 104.852 130.576C104.897 130.584 104.942 130.582 104.986 130.57H104.966ZM104.196 126.75H104.266C104.307 126.742 104.346 126.725 104.381 126.701C104.416 126.678 104.445 126.647 104.467 126.612C104.49 126.576 104.505 126.536 104.512 126.495C104.518 126.453 104.516 126.411 104.506 126.37C104.356 125.73 104.206 125.1 104.036 124.46C104.024 124.419 104.005 124.381 103.978 124.348C103.952 124.314 103.919 124.287 103.882 124.266C103.845 124.246 103.804 124.233 103.762 124.228C103.719 124.224 103.677 124.228 103.636 124.24C103.595 124.25 103.557 124.269 103.523 124.294C103.49 124.319 103.461 124.351 103.44 124.387C103.419 124.424 103.405 124.464 103.399 124.505C103.393 124.547 103.395 124.589 103.406 124.63C103.576 125.26 103.736 125.88 103.876 126.51C103.896 126.583 103.941 126.647 104.003 126.69C104.065 126.734 104.14 126.755 104.216 126.75H104.196ZM103.196 122.99H103.286C103.327 122.979 103.365 122.959 103.398 122.933C103.432 122.906 103.459 122.873 103.48 122.836C103.5 122.799 103.513 122.758 103.518 122.716C103.522 122.673 103.518 122.631 103.506 122.59C103.316 121.96 103.116 121.34 102.906 120.72C102.892 120.68 102.871 120.643 102.843 120.611C102.815 120.579 102.781 120.553 102.743 120.534C102.705 120.516 102.663 120.505 102.621 120.502C102.578 120.5 102.536 120.506 102.496 120.52C102.456 120.534 102.418 120.555 102.387 120.583C102.355 120.611 102.329 120.645 102.31 120.683C102.291 120.721 102.281 120.763 102.278 120.805C102.276 120.848 102.282 120.89 102.296 120.93C102.506 121.54 102.696 122.16 102.886 122.78C102.909 122.845 102.953 122.9 103.011 122.938C103.069 122.976 103.137 122.994 103.206 122.99H103.196ZM101.946 119.29C101.982 119.299 102.02 119.299 102.056 119.29C102.135 119.261 102.2 119.201 102.236 119.124C102.271 119.047 102.275 118.96 102.246 118.88C102.016 118.27 101.776 117.66 101.516 117.06C101.5 117.02 101.477 116.984 101.448 116.954C101.418 116.923 101.383 116.899 101.344 116.882C101.305 116.865 101.263 116.856 101.22 116.856C101.177 116.856 101.135 116.864 101.096 116.88C101.057 116.896 101.022 116.92 100.992 116.95C100.963 116.98 100.94 117.016 100.924 117.055C100.908 117.094 100.9 117.135 100.9 117.178C100.901 117.22 100.909 117.261 100.926 117.3C101.176 117.9 101.416 118.5 101.636 119.11C101.665 119.168 101.712 119.217 101.769 119.249C101.826 119.281 101.891 119.295 101.956 119.29H101.946ZM100.476 115.75C100.522 115.759 100.57 115.759 100.616 115.75C100.693 115.713 100.753 115.648 100.783 115.567C100.813 115.487 100.81 115.398 100.776 115.32C100.496 114.73 100.216 114.14 99.9159 113.55C99.8755 113.476 99.8086 113.421 99.7287 113.395C99.6488 113.369 99.562 113.374 99.4859 113.41C99.4079 113.449 99.3484 113.517 99.3203 113.599C99.2922 113.682 99.2978 113.772 99.3359 113.85C99.6359 114.42 99.9159 115 100.186 115.59C100.214 115.641 100.256 115.684 100.308 115.712C100.359 115.74 100.417 115.753 100.476 115.75ZM98.7159 112.27C98.765 112.284 98.8169 112.284 98.8659 112.27C98.9038 112.25 98.9373 112.223 98.9644 112.19C98.9915 112.157 99.0117 112.118 99.0238 112.077C99.0359 112.036 99.0397 111.993 99.0349 111.951C99.0301 111.908 99.0169 111.867 98.9959 111.83C98.6759 111.26 98.3459 110.69 97.9959 110.14C97.9753 110.103 97.9473 110.07 97.9135 110.044C97.8798 110.018 97.8411 110 97.7998 109.989C97.7586 109.979 97.7156 109.977 97.6737 109.984C97.6317 109.991 97.5916 110.007 97.5559 110.03C97.5198 110.052 97.4882 110.08 97.463 110.114C97.4379 110.148 97.4197 110.186 97.4095 110.227C97.3993 110.268 97.3972 110.311 97.4035 110.352C97.4097 110.394 97.4241 110.434 97.4459 110.47C97.7859 111.02 98.1059 111.58 98.4459 112.15C98.4788 112.178 98.5172 112.198 98.5586 112.21C98.5999 112.222 98.6433 112.226 98.6859 112.22L98.7159 112.27ZM96.7159 108.94C96.7746 108.958 96.8372 108.958 96.8959 108.94C96.9318 108.917 96.9628 108.887 96.9868 108.851C97.0109 108.816 97.0276 108.776 97.036 108.734C97.0444 108.692 97.0443 108.649 97.0357 108.607C97.0271 108.565 97.0102 108.525 96.9859 108.49C96.6159 107.95 96.2459 107.41 95.8559 106.88C95.8043 106.813 95.7287 106.768 95.6449 106.755C95.5611 106.742 95.4755 106.762 95.4059 106.81C95.3387 106.862 95.2939 106.937 95.2808 107.021C95.2678 107.105 95.2875 107.19 95.3359 107.26C95.7159 107.78 96.0859 108.31 96.4459 108.85C96.5092 108.887 96.5834 108.901 96.6559 108.89L96.7159 108.94ZM52.7159 106.73H53.1259C53.168 106.727 53.2091 106.717 53.247 106.698C53.2848 106.68 53.3186 106.654 53.3465 106.622C53.3744 106.591 53.3958 106.554 53.4094 106.514C53.423 106.474 53.4286 106.432 53.4259 106.39C53.4248 106.347 53.4148 106.306 53.3968 106.267C53.3788 106.229 53.353 106.194 53.3211 106.166C53.2892 106.138 53.2519 106.117 53.2115 106.104C53.171 106.09 53.1282 106.086 53.0859 106.09C52.7034 106.125 52.3185 106.125 51.9359 106.09C51.7067 106.061 51.4796 106.018 51.2559 105.96C51.1724 105.938 51.0838 105.95 51.0091 105.993C50.9343 106.036 50.8793 106.107 50.8559 106.19C50.8455 106.231 50.8436 106.274 50.8501 106.317C50.8566 106.359 50.8714 106.399 50.8938 106.436C50.9161 106.472 50.9455 106.503 50.9803 106.528C51.015 106.553 51.0543 106.571 51.0959 106.58C51.3483 106.65 51.6057 106.7 51.8659 106.73C52.1133 106.725 52.3602 106.708 52.6059 106.68L52.7159 106.73ZM55.0159 106.34H55.1159C55.7656 106.112 56.371 105.774 56.9059 105.34C56.9658 105.278 56.9993 105.196 56.9993 105.11C56.9993 105.024 56.9658 104.942 56.9059 104.88C56.8761 104.849 56.8403 104.825 56.8008 104.808C56.7613 104.791 56.7188 104.782 56.6759 104.782C56.633 104.782 56.5905 104.791 56.551 104.808C56.5115 104.825 56.4757 104.849 56.4459 104.88C55.9681 105.262 55.431 105.562 54.8559 105.77C54.8157 105.784 54.7785 105.805 54.7466 105.833C54.7147 105.861 54.6886 105.895 54.67 105.933C54.6514 105.971 54.6406 106.013 54.6381 106.055C54.6357 106.098 54.6418 106.14 54.6559 106.18C54.6873 106.215 54.7259 106.243 54.769 106.262C54.8121 106.281 54.8588 106.291 54.9059 106.29L55.0159 106.34ZM94.4659 105.8C94.5387 105.801 94.6095 105.776 94.6659 105.73C94.7258 105.668 94.7593 105.586 94.7593 105.5C94.7593 105.414 94.7258 105.332 94.6659 105.27C94.2559 104.76 93.8259 104.27 93.4059 103.77C93.3443 103.71 93.2618 103.677 93.1759 103.677C93.09 103.677 93.0075 103.71 92.9459 103.77C92.886 103.832 92.8526 103.914 92.8526 104C92.8526 104.086 92.886 104.168 92.9459 104.23C93.3659 104.71 93.7859 105.23 94.1859 105.71C94.2382 105.738 94.2967 105.752 94.3559 105.75L94.4659 105.8ZM49.4059 105.75C49.4585 105.748 49.5102 105.735 49.5569 105.711C49.6037 105.687 49.6444 105.652 49.6759 105.61C49.7213 105.537 49.7362 105.449 49.7175 105.365C49.6988 105.281 49.648 105.207 49.5759 105.16C49.0601 104.817 48.5926 104.407 48.1859 103.94C48.126 103.881 48.0452 103.848 47.9609 103.848C47.8767 103.848 47.7958 103.881 47.7359 103.94C47.6761 104.002 47.6425 104.084 47.6425 104.17C47.6425 104.256 47.6761 104.338 47.7359 104.4C48.1795 104.917 48.6946 105.369 49.2659 105.74C49.2757 105.744 49.2857 105.747 49.2959 105.75H49.4059ZM57.9359 103.9C57.9934 103.898 58.0494 103.882 58.0985 103.852C58.1476 103.822 58.1881 103.78 58.2159 103.73C58.5461 103.107 58.7596 102.43 58.8459 101.73C58.8515 101.688 58.8487 101.645 58.8376 101.604C58.8265 101.563 58.8073 101.525 58.7813 101.491C58.7552 101.458 58.7228 101.43 58.6858 101.409C58.6488 101.388 58.6081 101.375 58.5659 101.37C58.4825 101.359 58.3979 101.38 58.3305 101.431C58.2631 101.482 58.2183 101.557 58.2059 101.64C58.123 102.247 57.937 102.836 57.6559 103.38C57.635 103.417 57.6217 103.458 57.6169 103.501C57.6121 103.543 57.6159 103.586 57.628 103.627C57.6401 103.668 57.6603 103.707 57.6875 103.74C57.7146 103.773 57.7481 103.8 57.7859 103.82C57.7986 103.831 57.812 103.841 57.8259 103.85L57.9359 103.9ZM91.8859 102.9C91.9713 102.901 92.0538 102.869 92.1159 102.81C92.1758 102.748 92.2093 102.666 92.2093 102.58C92.2093 102.494 92.1758 102.412 92.1159 102.35C91.6559 101.88 91.1859 101.42 90.7159 100.97C90.6543 100.91 90.5718 100.877 90.4859 100.877C90.4 100.877 90.3175 100.91 90.2559 100.97C90.1967 101.03 90.1635 101.111 90.1635 101.195C90.1635 101.279 90.1967 101.36 90.2559 101.42C90.7159 101.86 91.1759 102.32 91.6259 102.78C91.6716 102.806 91.7233 102.82 91.7759 102.82L91.8859 102.9ZM46.8859 102.9C46.9354 102.909 46.9864 102.909 47.0359 102.9C47.1103 102.858 47.1661 102.789 47.192 102.707C47.218 102.626 47.2123 102.538 47.1759 102.46C46.8943 101.903 46.6891 101.311 46.5659 100.7C46.5566 100.658 46.5389 100.619 46.5141 100.584C46.4893 100.55 46.4578 100.52 46.4215 100.498C46.3851 100.476 46.3447 100.461 46.3025 100.454C46.2603 100.448 46.2173 100.45 46.1759 100.46C46.1345 100.468 46.095 100.485 46.06 100.508C46.0249 100.532 45.9949 100.563 45.9716 100.598C45.9484 100.633 45.9324 100.673 45.9245 100.714C45.9167 100.756 45.9172 100.799 45.9259 100.84C46.071 101.501 46.296 102.143 46.5959 102.75C46.6441 102.78 46.6992 102.797 46.7559 102.8L46.8859 102.9ZM89.0759 100.25C89.1214 100.25 89.1664 100.24 89.2078 100.221C89.2492 100.202 89.2861 100.174 89.3159 100.14C89.3758 100.078 89.4093 99.9959 89.4093 99.91C89.4093 99.8241 89.3758 99.7416 89.3159 99.68L88.7159 99.18L87.7859 98.45C87.7168 98.3975 87.6297 98.3743 87.5436 98.3855C87.4575 98.3968 87.3792 98.4415 87.3259 98.51C87.2764 98.5784 87.2551 98.6632 87.2663 98.7469C87.2774 98.8307 87.3202 98.9069 87.3859 98.96L88.3059 99.68L88.8959 100.18C88.9135 100.172 88.9302 100.162 88.9459 100.15L89.0759 100.25ZM58.5559 100.16C58.6418 100.15 58.7203 100.107 58.7745 100.039C58.8287 99.972 58.8544 99.886 58.8459 99.8C58.7696 99.1215 58.6289 98.4519 58.4259 97.8C58.4144 97.7591 58.3949 97.7209 58.3685 97.6876C58.3421 97.6543 58.3093 97.6266 58.2721 97.6061C58.2348 97.5857 58.1939 97.5728 58.1516 97.5683C58.1094 97.5638 58.0666 97.5678 58.0259 97.58C57.9851 97.5913 57.9471 97.6109 57.9142 97.6375C57.8812 97.6641 57.8541 97.6971 57.8344 97.7346C57.8148 97.7721 57.803 97.8132 57.7998 97.8554C57.7966 97.8976 57.8021 97.94 57.8159 97.98C57.9972 98.5848 58.1276 99.2035 58.2059 99.83C58.2193 99.8842 58.2467 99.934 58.2853 99.9743C58.3239 100.015 58.3724 100.044 58.4259 100.06L58.5559 100.16ZM46.1059 99.16C46.1874 99.1602 46.2659 99.1292 46.3254 99.0735C46.3849 99.0177 46.4208 98.9413 46.4259 98.86C46.472 98.2451 46.6137 97.6412 46.8459 97.07C46.8624 97.0313 46.8711 96.9897 46.8714 96.9476C46.8718 96.9055 46.8638 96.8638 46.848 96.8247C46.8323 96.7857 46.8089 96.7502 46.7794 96.7202C46.7498 96.6902 46.7147 96.6664 46.6759 96.65C46.6372 96.6335 46.5956 96.6249 46.5535 96.6245C46.5114 96.6241 46.4696 96.6321 46.4306 96.6479C46.3916 96.6636 46.3561 96.687 46.3261 96.7165C46.2962 96.7461 46.2723 96.7812 46.2559 96.82C45.9909 97.4565 45.8321 98.1321 45.7859 98.82C45.7818 98.8628 45.7864 98.9061 45.7993 98.9471C45.8123 98.9881 45.8335 99.0261 45.8615 99.0588C45.8895 99.0915 45.9238 99.1182 45.9624 99.1373C46.0009 99.1564 46.0429 99.1675 46.0859 99.17L46.1059 99.16ZM85.8459 97.75C85.899 97.7509 85.9515 97.7386 85.9986 97.7141C86.0458 97.6897 86.0861 97.6539 86.1159 97.61C86.1633 97.5392 86.1813 97.4528 86.1664 97.3689C86.1515 97.285 86.1048 97.2102 86.0359 97.16C85.4959 96.79 84.9359 96.43 84.3859 96.09C84.3115 96.0456 84.2226 96.0322 84.1384 96.0528C84.0542 96.0733 83.9815 96.1263 83.9359 96.2C83.9142 96.2361 83.8998 96.2761 83.8935 96.3178C83.8873 96.3595 83.8893 96.402 83.8995 96.4428C83.9097 96.4837 83.9279 96.5222 83.953 96.556C83.9782 96.5899 84.0097 96.6184 84.0459 96.64C84.5926 96.98 85.1326 97.33 85.6659 97.69C85.7185 97.7277 85.7812 97.7487 85.8459 97.75ZM57.3459 96.3C57.3886 96.3102 57.4332 96.3102 57.4759 96.3C57.5549 96.2649 57.617 96.2002 57.6488 96.1198C57.6806 96.0393 57.6796 95.9496 57.6459 95.87C57.3959 95.3 57.1059 94.7 56.7759 94.1C56.756 94.0622 56.7287 94.0287 56.6956 94.0015C56.6626 93.9744 56.6244 93.9542 56.5834 93.9421C56.5424 93.93 56.4993 93.9262 56.4568 93.931C56.4143 93.9358 56.3732 93.949 56.3359 93.97C56.2614 94.0122 56.2062 94.0816 56.182 94.1637C56.1577 94.2458 56.1663 94.3341 56.2059 94.41C56.5259 94.99 56.8159 95.57 57.0559 96.13C57.0794 96.1881 57.1194 96.2379 57.1709 96.2735C57.2225 96.309 57.2833 96.3287 57.3459 96.33V96.3ZM82.4759 95.75C82.5353 95.7514 82.5938 95.7362 82.645 95.7061C82.6963 95.6761 82.7381 95.6324 82.7659 95.58C82.8055 95.5041 82.8141 95.4158 82.7899 95.3337C82.7656 95.2516 82.7104 95.1822 82.6359 95.14C82.0659 94.83 81.4759 94.53 80.8859 94.24C80.8479 94.2213 80.8065 94.2104 80.7642 94.2079C80.722 94.2053 80.6796 94.2112 80.6396 94.2252C80.5996 94.2391 80.5627 94.2609 80.5312 94.2892C80.4997 94.3175 80.4741 94.3517 80.4559 94.39C80.4372 94.428 80.4263 94.4694 80.4238 94.5117C80.4212 94.554 80.4271 94.5964 80.4411 94.6364C80.455 94.6764 80.4768 94.7132 80.5051 94.7447C80.5334 94.7762 80.5677 94.8018 80.6059 94.82C81.1859 95.1 81.7659 95.4 82.3259 95.71C82.3711 95.7372 82.4231 95.7511 82.4759 95.75ZM47.3959 95.5C47.4438 95.4993 47.491 95.4883 47.5341 95.4675C47.5773 95.4468 47.6154 95.4169 47.6459 95.38C48.0502 94.907 48.5064 94.481 49.0059 94.11C49.0415 94.0861 49.0716 94.0552 49.0946 94.0191C49.1175 93.983 49.1328 93.9426 49.1394 93.9003C49.1459 93.8581 49.1437 93.8149 49.1328 93.7735C49.1219 93.7322 49.1025 93.6935 49.0759 93.66C49.052 93.6245 49.0211 93.5943 48.985 93.5714C48.9489 93.5484 48.9085 93.5331 48.8662 93.5266C48.824 93.52 48.7808 93.5222 48.7395 93.5331C48.6981 93.5441 48.6595 93.5634 48.6259 93.59C48.0817 93.9922 47.5851 94.4552 47.1459 94.97C47.089 95.0311 47.0573 95.1115 47.0573 95.195C47.0573 95.2785 47.089 95.3589 47.1459 95.42C47.1901 95.4594 47.2437 95.4865 47.3016 95.4988C47.3595 95.5111 47.4196 95.508 47.4759 95.49L47.3959 95.5ZM78.9759 94.05C79.0394 94.047 79.1008 94.0268 79.1537 93.9916C79.2065 93.9564 79.2488 93.9074 79.2759 93.85C79.2924 93.8113 79.3011 93.7697 79.3014 93.7276C79.3018 93.6855 79.2938 93.6438 79.278 93.6047C79.2623 93.5657 79.2389 93.5302 79.2094 93.5002C79.1798 93.4702 79.1447 93.4464 79.1059 93.43C78.4959 93.17 77.8859 92.93 77.2759 92.7C77.195 92.6706 77.1057 92.674 77.0272 92.7095C76.9488 92.745 76.8873 92.8098 76.8559 92.89C76.827 92.9722 76.8319 93.0625 76.8694 93.1412C76.9068 93.2199 76.9739 93.2806 77.0559 93.31C77.6559 93.53 78.2559 93.77 78.8459 94.02C78.9026 94.0444 78.9653 94.0514 79.0259 94.04L78.9759 94.05ZM50.4859 93.17C50.5315 93.1846 50.5804 93.1846 50.6259 93.17C51.1984 92.8939 51.786 92.6501 52.3859 92.44C52.4261 92.4265 52.4634 92.4051 52.4953 92.3771C52.5272 92.3491 52.5532 92.315 52.5718 92.2769C52.5904 92.2387 52.6012 92.1973 52.6037 92.1549C52.6061 92.1125 52.6 92.07 52.5859 92.03C52.5724 91.9897 52.551 91.9526 52.523 91.9207C52.495 91.8887 52.461 91.8627 52.4228 91.8441C52.3847 91.8255 52.3432 91.8147 52.3008 91.8123C52.2584 91.8098 52.216 91.8158 52.1759 91.83C51.5487 92.0484 50.9344 92.3021 50.3359 92.59C50.2597 92.6305 50.2023 92.6992 50.1762 92.7814C50.15 92.8637 50.157 92.9529 50.1959 93.03C50.2326 93.0836 50.2849 93.1248 50.3456 93.148C50.4063 93.1713 50.4727 93.1754 50.5359 93.16L50.4859 93.17ZM55.4859 92.9C55.5467 92.9037 55.6068 92.8861 55.6559 92.85C55.6923 92.8286 55.724 92.7999 55.7489 92.7658C55.7739 92.7317 55.7915 92.6928 55.8009 92.6516C55.8102 92.6104 55.8111 92.5677 55.8034 92.5262C55.7956 92.4846 55.7795 92.4451 55.7559 92.41C55.5959 92.15 55.4259 91.9 55.2559 91.63L56.1459 91.45C56.2294 91.4354 56.3037 91.3882 56.3524 91.3188C56.4012 91.2494 56.4204 91.1635 56.4059 91.08C56.3987 91.0376 56.3831 90.9971 56.36 90.9609C56.3368 90.9247 56.3065 90.8936 56.2711 90.8693C56.2356 90.8451 56.1957 90.8282 56.1535 90.8197C56.1114 90.8113 56.068 90.8113 56.0259 90.82C55.6359 90.89 55.2459 90.97 54.8659 91.06L54.6659 90.78C54.6419 90.7449 54.6111 90.7149 54.5753 90.6918C54.5396 90.6687 54.4996 90.6529 54.4577 90.6455C54.4158 90.638 54.3728 90.639 54.3313 90.6484C54.2898 90.6577 54.2506 90.6753 54.2159 90.7C54.1808 90.724 54.1507 90.7548 54.1277 90.7906C54.1046 90.8263 54.0888 90.8663 54.0814 90.9082C54.0739 90.9501 54.075 90.9931 54.0843 91.0346C54.0937 91.0761 54.1112 91.1153 54.1359 91.15L54.1859 91.22H54.1059C54.0225 91.2435 53.9511 91.298 53.9065 91.3723C53.8619 91.4467 53.8474 91.5353 53.8659 91.62C53.8915 91.7016 53.9468 91.7706 54.0209 91.8132C54.095 91.8559 54.1825 91.869 54.2659 91.85L54.5759 91.78C54.8059 92.1 55.0159 92.43 55.2159 92.78C55.2474 92.8176 55.2875 92.8472 55.3327 92.8663C55.3779 92.8854 55.427 92.8936 55.4759 92.89L55.4859 92.9ZM75.3459 92.69C75.4147 92.6929 75.4825 92.6729 75.5386 92.6331C75.5947 92.5933 75.636 92.5359 75.6559 92.47C75.6813 92.3878 75.6735 92.2989 75.6343 92.2223C75.5951 92.1457 75.5274 92.0875 75.4459 92.06C74.8259 91.87 74.1859 91.68 73.5559 91.52C73.5152 91.508 73.4725 91.5045 73.4303 91.5098C73.3882 91.515 73.3476 91.5288 73.311 91.5504C73.2744 91.5719 73.2427 91.6008 73.2177 91.6351C73.1928 91.6695 73.1752 91.7086 73.1659 91.75C73.1554 91.7907 73.153 91.8331 73.1588 91.8747C73.1647 91.9164 73.1787 91.9565 73.2001 91.9927C73.2215 92.0289 73.2498 92.0605 73.2834 92.0858C73.317 92.1111 73.3552 92.1295 73.3959 92.14C74.0159 92.3 74.6359 92.49 75.2559 92.68L75.3459 92.69ZM71.5859 91.69C71.6601 91.691 71.7323 91.6653 71.7892 91.6176C71.8461 91.5698 71.8839 91.5033 71.8959 91.43C71.9047 91.3886 71.9052 91.3459 71.8973 91.3044C71.8895 91.2628 71.8734 91.2232 71.8502 91.1878C71.8269 91.1525 71.7969 91.1221 71.7619 91.0985C71.7268 91.0748 71.6874 91.0583 71.6459 91.05C71.0059 90.91 70.3559 90.79 69.7159 90.69C69.6324 90.6755 69.5465 90.6947 69.4771 90.7434C69.4078 90.7922 69.3606 90.8665 69.3459 90.95C69.3373 90.9922 69.3376 91.0358 69.3468 91.0779C69.356 91.12 69.3738 91.1598 69.3993 91.1946C69.4247 91.2294 69.457 91.2585 69.4944 91.2801C69.5317 91.3017 69.5731 91.3153 69.6159 91.32C70.2459 91.43 70.8859 91.55 71.5159 91.68L71.5859 91.69ZM58.0159 91.14C58.6459 91.05 59.2959 90.98 59.9359 90.93C60.0217 90.9223 60.1011 90.8815 60.1571 90.8161C60.2132 90.7507 60.2415 90.6659 60.2359 90.58C60.2322 90.5379 60.2201 90.497 60.2004 90.4596C60.1807 90.4222 60.1539 90.389 60.1214 90.3621C60.0888 90.3351 60.0512 90.3149 60.0108 90.3025C59.9704 90.2901 59.9279 90.2859 59.8859 90.29C59.2359 90.29 58.5759 90.41 57.8859 90.5C57.8441 90.5048 57.8037 90.5182 57.7672 90.5391C57.7307 90.5601 57.6988 90.5883 57.6735 90.6219C57.6482 90.6556 57.6301 90.6941 57.6202 90.735C57.6103 90.776 57.6089 90.8185 57.6159 90.86C57.6195 90.9085 57.6342 90.9556 57.6587 90.9977C57.6833 91.0397 57.717 91.0756 57.7575 91.1026C57.798 91.1296 57.8442 91.147 57.8924 91.1535C57.9407 91.16 57.9897 91.1554 58.0359 91.14H58.0159ZM67.7359 91.06C67.8158 91.0603 67.893 91.0308 67.9522 90.9771C68.0115 90.9234 68.0484 90.8496 68.0559 90.77C68.0644 90.6866 68.0398 90.6032 67.9875 90.5378C67.9351 90.4723 67.8591 90.4301 67.7759 90.42C67.1259 90.34 66.4659 90.28 65.7759 90.24C65.7339 90.2373 65.6917 90.2429 65.6518 90.2565C65.612 90.2702 65.5752 90.2915 65.5436 90.3194C65.512 90.3473 65.4862 90.3811 65.4677 90.4189C65.4493 90.4568 65.4385 90.498 65.4359 90.54C65.4318 90.5823 65.4364 90.6251 65.4495 90.6655C65.4626 90.706 65.4838 90.7433 65.512 90.7752C65.5401 90.8071 65.5745 90.8329 65.6131 90.8509C65.6516 90.8689 65.6934 90.8788 65.7359 90.88C66.3759 90.93 67.0259 90.98 67.6559 91.06H67.7359ZM61.8959 90.82C62.5459 90.82 63.1859 90.82 63.8359 90.82C63.8774 90.8213 63.9188 90.8143 63.9576 90.7993C63.9964 90.7844 64.0318 90.7617 64.0616 90.7328C64.0915 90.7039 64.1152 90.6693 64.1314 90.631C64.1476 90.5927 64.1559 90.5516 64.1559 90.51C64.1572 90.468 64.1503 90.4261 64.1354 90.3867C64.1205 90.3474 64.0981 90.3114 64.0693 90.2808C64.0405 90.2501 64.0059 90.2254 63.9676 90.2081C63.9293 90.1908 63.8879 90.1813 63.8459 90.18C63.1859 90.18 62.5359 90.18 61.8459 90.18C61.803 90.1812 61.7608 90.1911 61.7218 90.209C61.6828 90.227 61.6477 90.2525 61.6188 90.2843C61.5899 90.316 61.5677 90.3532 61.5534 90.3937C61.5392 90.4342 61.5332 90.4771 61.5359 90.52C61.538 90.5659 61.5499 90.6108 61.5708 90.6517C61.5918 90.6925 61.6213 90.7284 61.6573 90.7569C61.6934 90.7854 61.7351 90.8057 61.7798 90.8166C61.8244 90.8275 61.8708 90.8287 61.9159 90.82H61.8959ZM53.2459 89.71C53.3188 89.7109 53.3895 89.6861 53.4459 89.64C53.5051 89.5801 53.5384 89.4993 53.5384 89.415C53.5384 89.3308 53.5051 89.2499 53.4459 89.19C53.0459 88.67 52.6259 88.19 52.2059 87.66C52.146 87.6008 52.0652 87.5675 51.9809 87.5675C51.8967 87.5675 51.8159 87.6008 51.7559 87.66C51.6961 87.7216 51.6626 87.8041 51.6626 87.89C51.6626 87.9759 51.6961 88.0584 51.7559 88.12C52.1659 88.6 52.5859 89.12 52.9759 89.61C53.0076 89.6569 53.0511 89.6946 53.102 89.7191C53.153 89.7437 53.2095 89.7544 53.2659 89.75L53.2459 89.71ZM50.7059 86.71C50.7467 86.7102 50.7872 86.7024 50.8249 86.6869C50.8627 86.6715 50.897 86.6487 50.9259 86.62C50.9565 86.591 50.9808 86.5561 50.9975 86.5175C51.0141 86.4788 51.0227 86.4371 51.0227 86.395C51.0227 86.3529 51.0141 86.3112 50.9975 86.2726C50.9808 86.2339 50.9565 86.199 50.9259 86.17C50.4759 85.69 50.0059 85.23 49.5259 84.79C49.4969 84.7594 49.4621 84.7351 49.4234 84.7185C49.3847 84.7018 49.343 84.6932 49.3009 84.6932C49.2588 84.6932 49.2171 84.7018 49.1784 84.7185C49.1397 84.7351 49.1049 84.7594 49.0759 84.79C49.045 84.8198 49.0206 84.8556 49.0038 84.8951C48.9871 84.9346 48.9784 84.9771 48.9784 85.02C48.9784 85.0629 48.9871 85.1054 49.0038 85.1449C49.0206 85.1844 49.045 85.2202 49.0759 85.25C49.5459 85.68 50.0059 86.14 50.4559 86.6C50.4822 86.6479 50.5215 86.6874 50.5693 86.7139C50.6171 86.7405 50.6714 86.753 50.7259 86.75L50.7059 86.71ZM47.8559 84.06C47.9505 84.0576 48.0403 84.0181 48.1059 83.95C48.1658 83.8884 48.1992 83.8059 48.1992 83.72C48.1992 83.6341 48.1658 83.5516 48.1059 83.49C47.5959 83.07 47.1059 82.67 46.5459 82.29C46.5113 82.2653 46.472 82.2477 46.4305 82.2384C46.389 82.229 46.346 82.228 46.3041 82.2355C46.2622 82.2429 46.2222 82.2587 46.1865 82.2818C46.1507 82.3049 46.1199 82.3349 46.0959 82.37C46.0707 82.404 46.0525 82.4428 46.0424 82.4839C46.0322 82.525 46.0304 82.5678 46.0369 82.6096C46.0434 82.6515 46.0581 82.6916 46.0803 82.7278C46.1024 82.7639 46.1316 82.7952 46.1659 82.82C46.6859 83.1933 47.1959 83.5833 47.6959 83.99C47.7412 84.0466 47.8049 84.0855 47.8759 84.1L47.8559 84.06ZM44.6859 81.8C44.7399 81.7998 44.793 81.786 44.8402 81.7597C44.8874 81.7335 44.9272 81.6957 44.9559 81.65C45.0013 81.5768 45.0162 81.4887 44.9975 81.4046C44.9788 81.3206 44.928 81.2471 44.8559 81.2C44.2959 80.86 43.7159 80.53 43.1359 80.2C43.0588 80.1612 42.9696 80.1541 42.8874 80.1802C42.8051 80.2064 42.7364 80.2638 42.6959 80.34C42.6575 80.4156 42.6507 80.5033 42.677 80.584C42.7032 80.6646 42.7604 80.7315 42.8359 80.77C43.4059 81.07 43.9659 81.39 44.5159 81.77C44.5413 81.7938 44.5712 81.8122 44.6038 81.8242C44.6365 81.8363 44.6712 81.8416 44.7059 81.84L44.6859 81.8ZM41.2259 80C41.2891 80.0015 41.3513 79.9843 41.4047 79.9504C41.4581 79.9166 41.5003 79.8678 41.5259 79.81C41.5424 79.7713 41.5511 79.7297 41.5514 79.6876C41.5518 79.6455 41.5438 79.6037 41.528 79.5647C41.5123 79.5257 41.4889 79.4902 41.4594 79.4602C41.4298 79.4302 41.3947 79.4064 41.3559 79.39C40.7559 79.13 40.1359 78.89 39.5159 78.67C39.4759 78.6559 39.4335 78.6498 39.3911 78.6523C39.3487 78.6547 39.3072 78.6655 39.269 78.6841C39.2309 78.7027 39.1968 78.7287 39.1688 78.7607C39.1408 78.7926 39.1194 78.8297 39.1059 78.87C39.0918 78.91 39.0857 78.9525 39.0882 78.9949C39.0906 79.0373 39.1014 79.0787 39.12 79.1169C39.1386 79.155 39.1646 79.1891 39.1966 79.2171C39.2285 79.2451 39.2657 79.2665 39.3059 79.28C39.9059 79.49 40.5159 79.73 41.0959 79.98C41.14 80.0125 41.1916 80.0332 41.2459 80.04L41.2259 80ZM16.3259 79.2H16.3959L18.2959 78.8C18.3383 78.7928 18.3788 78.7772 18.4149 78.754C18.4511 78.7309 18.4823 78.7007 18.5066 78.6652C18.5308 78.6297 18.5477 78.5897 18.5562 78.5476C18.5647 78.5055 18.5646 78.4621 18.5559 78.42C18.5368 78.3376 18.4866 78.2656 18.4159 78.2191C18.3451 78.1726 18.2593 78.155 18.1759 78.17C17.5359 78.29 16.896 78.43 16.256 78.57C16.1735 78.5892 16.1016 78.6393 16.055 78.7101C16.0085 78.7808 15.9909 78.8667 16.006 78.95C16.018 79.0313 16.0591 79.1054 16.1216 79.1587C16.1841 79.212 16.2638 79.2409 16.3459 79.24L16.3259 79.2ZM37.5459 78.72C37.6186 78.7223 37.6898 78.6998 37.748 78.6562C37.8062 78.6125 37.8478 78.5504 37.8659 78.48C37.8765 78.4393 37.8788 78.3969 37.873 78.3553C37.8671 78.3136 37.8531 78.2736 37.8318 78.2373C37.8104 78.2011 37.7821 78.1694 37.7485 78.1442C37.7149 78.1189 37.6766 78.1005 37.6359 78.09C37.0059 77.92 36.3659 77.76 35.7159 77.63C35.6312 77.6153 35.5441 77.6342 35.4731 77.6828C35.4021 77.7313 35.3529 77.8057 35.3359 77.89C35.3209 77.9733 35.3384 78.0592 35.385 78.1299C35.4315 78.2007 35.5034 78.2508 35.5859 78.27C36.2259 78.39 36.8559 78.54 37.4659 78.71L37.5459 78.72ZM20.1459 78.44H20.2059C20.8726 78.3267 21.5126 78.2267 22.1259 78.14C22.2101 78.1253 22.2852 78.0785 22.3355 78.0095C22.3859 77.9405 22.4075 77.8546 22.3959 77.77C22.3911 77.7282 22.3778 77.6878 22.3568 77.6512C22.3359 77.6147 22.3076 77.5829 22.274 77.5576C22.2403 77.5323 22.2018 77.5142 22.1609 77.5043C22.1199 77.4944 22.0774 77.4929 22.0359 77.5C21.3859 77.59 20.7459 77.69 20.0959 77.8C20.0124 77.8146 19.9381 77.8618 19.8894 77.9312C19.8406 78.0006 19.8214 78.0865 19.8359 78.17C19.8358 78.2125 19.8445 78.2544 19.8613 78.2934C19.8781 78.3324 19.9027 78.3675 19.9337 78.3966C19.9646 78.4256 20.0012 78.4481 20.0412 78.4624C20.0811 78.4768 20.1236 78.4827 20.1659 78.48L20.1459 78.44ZM33.7359 77.95C33.8137 77.9486 33.8885 77.9196 33.9471 77.8684C34.0056 77.8172 34.0442 77.7469 34.0559 77.67C34.0615 77.6279 34.0587 77.5852 34.0476 77.5442C34.0365 77.5032 34.0174 77.4649 33.9913 77.4314C33.9652 77.3979 33.9328 77.3699 33.8958 77.349C33.8588 77.3282 33.8181 77.3149 33.7759 77.31C33.1359 77.22 32.4759 77.15 31.7759 77.1C31.7344 77.0959 31.6925 77.1002 31.6527 77.1127C31.6129 77.1252 31.576 77.1456 31.5442 77.1726C31.5125 77.1997 31.4865 77.2329 31.4679 77.2703C31.4493 77.3076 31.4384 77.3484 31.4359 77.39C31.4318 77.4321 31.436 77.4745 31.4484 77.5149C31.4608 77.5553 31.481 77.5929 31.508 77.6254C31.5349 77.658 31.5681 77.6849 31.6055 77.7045C31.6429 77.7242 31.6838 77.7362 31.7259 77.74C32.3759 77.79 33.0259 77.86 33.6459 77.95H33.7359ZM24.006 77.9C24.646 77.83 25.2959 77.78 25.9359 77.73C25.978 77.7275 26.0191 77.7166 26.057 77.6982C26.0948 77.6797 26.1287 77.6539 26.1565 77.6223C26.1844 77.5907 26.2058 77.5539 26.2194 77.5141C26.233 77.4742 26.2386 77.4321 26.2359 77.39C26.2334 77.3471 26.2223 77.305 26.2032 77.2664C26.1841 77.2279 26.1574 77.1936 26.1247 77.1656C26.092 77.1376 26.0541 77.1164 26.013 77.1035C25.972 77.0905 25.9287 77.0859 25.8859 77.09C25.2359 77.09 24.5859 77.19 23.8859 77.26C23.8438 77.2638 23.8029 77.2758 23.7655 77.2955C23.7281 77.3151 23.695 77.342 23.668 77.3746C23.641 77.4071 23.6208 77.4447 23.6084 77.4851C23.5961 77.5255 23.5918 77.5679 23.5959 77.61C23.5908 77.6639 23.5995 77.7183 23.6212 77.7679C23.6428 77.8176 23.6767 77.8609 23.7197 77.8939C23.7627 77.9269 23.8133 77.9484 23.8669 77.9565C23.9204 77.9645 23.9751 77.9589 24.0259 77.94L24.006 77.9ZM29.8459 77.64C29.9301 77.6402 30.0111 77.6081 30.0725 77.5505C30.1338 77.4929 30.1708 77.414 30.1759 77.33C30.1773 77.2871 30.17 77.2445 30.1545 77.2045C30.139 77.1645 30.1156 77.128 30.0858 77.0972C30.0559 77.0664 30.0202 77.042 29.9807 77.0253C29.9413 77.0086 29.8988 77 29.8559 77C29.2059 77 28.5459 77 27.8559 77C27.813 77 27.7706 77.0086 27.7311 77.0253C27.6916 77.042 27.6559 77.0664 27.626 77.0972C27.5962 77.128 27.5728 77.1645 27.5573 77.2045C27.5419 77.2445 27.5346 77.2871 27.5359 77.33C27.5385 77.4131 27.5734 77.492 27.6331 77.5498C27.6928 77.6077 27.7728 77.6401 27.8559 77.64H29.8059H29.8459Z" fill="#ED7B30"/>
<path d="M76.6659 109.54C76.7201 109.541 76.7736 109.527 76.8209 109.501C76.8683 109.475 76.908 109.436 76.9359 109.39C77.2959 108.843 77.6293 108.293 77.9359 107.74C77.9813 107.667 77.9962 107.579 77.9775 107.495C77.9588 107.411 77.908 107.337 77.8359 107.29C77.7615 107.246 77.6725 107.232 77.5883 107.253C77.5041 107.273 77.4314 107.326 77.3859 107.4C77.0459 107.95 76.7059 108.49 76.3859 109.04C76.3617 109.075 76.3447 109.115 76.3361 109.157C76.3275 109.199 76.3275 109.242 76.3358 109.284C76.3442 109.326 76.361 109.366 76.385 109.401C76.4091 109.437 76.44 109.467 76.4759 109.49C76.5343 109.522 76.5995 109.539 76.6659 109.54ZM78.6659 106.22C78.7224 106.22 78.7778 106.205 78.8268 106.177C78.8758 106.149 78.9168 106.108 78.9459 106.06C79.2659 105.49 79.5859 104.92 79.9459 104.35C79.9864 104.275 79.9965 104.188 79.9741 104.106C79.9518 104.024 79.8987 103.954 79.8259 103.91C79.75 103.87 79.6617 103.862 79.5796 103.886C79.4975 103.91 79.428 103.965 79.3859 104.04C79.0759 104.61 78.7559 105.17 78.4359 105.73C78.3915 105.804 78.3781 105.893 78.3987 105.978C78.4193 106.062 78.4722 106.134 78.5459 106.18C78.598 106.208 78.6567 106.222 78.7159 106.22H78.6659ZM80.5259 102.8C80.5861 102.799 80.6449 102.782 80.696 102.75C80.7471 102.719 80.7886 102.674 80.8159 102.62C81.1159 102.04 81.4059 101.45 81.6859 100.87C81.7046 100.832 81.7155 100.791 81.718 100.748C81.7206 100.706 81.7147 100.664 81.7008 100.624C81.6868 100.584 81.665 100.547 81.6367 100.515C81.6084 100.484 81.5742 100.458 81.5359 100.44C81.4979 100.421 81.4565 100.41 81.4142 100.408C81.3719 100.405 81.3296 100.411 81.2896 100.425C81.2496 100.439 81.2128 100.461 81.1812 100.489C81.1497 100.517 81.1241 100.552 81.1059 100.59C80.8259 101.17 80.5359 101.75 80.2359 102.33C80.2173 102.368 80.2063 102.409 80.2038 102.452C80.2012 102.494 80.2071 102.536 80.221 102.576C80.235 102.616 80.2568 102.653 80.2851 102.685C80.3134 102.716 80.3476 102.742 80.3859 102.76C80.4127 102.78 80.4436 102.794 80.4765 102.801C80.5093 102.808 80.5432 102.808 80.5759 102.8H80.5259ZM82.2159 99.28C82.2786 99.2791 82.3397 99.2608 82.3927 99.2273C82.4456 99.1937 82.4883 99.1462 82.5159 99.09L83.2959 97.3C83.329 97.2191 83.3286 97.1284 83.2948 97.0478C83.2611 96.9672 83.1968 96.9032 83.1159 96.87C83.0362 96.84 82.948 96.842 82.8697 96.8755C82.7914 96.9091 82.7291 96.9716 82.6959 97.05C82.4459 97.64 82.1859 98.23 81.9259 98.83C81.9078 98.8679 81.8975 98.9091 81.8957 98.9511C81.894 98.9931 81.9008 99.0351 81.9158 99.0743C81.9308 99.1136 81.9536 99.1495 81.9828 99.1797C82.0121 99.2099 82.0471 99.2338 82.0859 99.25C82.1415 99.2778 82.2042 99.2883 82.2659 99.28H82.2159ZM83.7259 95.69C83.7899 95.6894 83.8524 95.6701 83.9057 95.6346C83.9589 95.5991 84.0007 95.5489 84.0259 95.49C84.2659 94.87 84.4959 94.26 84.7259 93.65C84.7401 93.61 84.7461 93.5675 84.7437 93.5251C84.7413 93.4827 84.7304 93.4413 84.7118 93.4031C84.6932 93.3649 84.6672 93.3309 84.6353 93.3029C84.6034 93.2749 84.5662 93.2535 84.5259 93.24C84.4462 93.2136 84.3595 93.2185 84.2833 93.2538C84.2071 93.2891 84.1473 93.3521 84.1159 93.43C83.8959 94.04 83.6659 94.64 83.4259 95.25C83.3959 95.3297 83.3979 95.4179 83.4315 95.4962C83.465 95.5745 83.5275 95.6367 83.6059 95.67L83.7259 95.69ZM85.0659 92.03C85.1326 92.0292 85.1974 92.0075 85.2512 91.9681C85.305 91.9286 85.3451 91.8734 85.3659 91.81C85.5859 91.19 85.7859 90.57 85.9759 89.95C86.0013 89.8678 85.9935 89.7789 85.9543 89.7023C85.9151 89.6257 85.8474 89.5675 85.7659 89.54C85.6837 89.5146 85.5948 89.5224 85.5182 89.5616C85.4416 89.6009 85.3834 89.6684 85.3559 89.75C85.1659 90.37 84.9659 90.98 84.7559 91.6C84.7306 91.6822 84.7383 91.7711 84.7776 91.8477C84.8168 91.9243 84.8844 91.9825 84.9659 92.01L85.0659 92.03ZM86.2259 88.31C86.2965 88.3084 86.3646 88.2842 86.4204 88.241C86.4762 88.1978 86.5167 88.1379 86.5359 88.07C86.7159 87.44 86.8959 86.81 87.0559 86.19C87.0775 86.1065 87.0654 86.0179 87.0224 85.9431C86.9794 85.8684 86.9089 85.8134 86.8259 85.79C86.7852 85.7795 86.7428 85.7771 86.7012 85.7829C86.6596 85.7888 86.6195 85.8028 86.5833 85.8242C86.5471 85.8455 86.5154 85.8738 86.4901 85.9074C86.4648 85.941 86.4464 85.9793 86.4359 86.02C86.2659 86.64 86.0959 87.27 85.9159 87.89C85.9037 87.9307 85.8997 87.9734 85.9042 88.0157C85.9087 88.0579 85.9216 88.0989 85.942 88.1361C85.9625 88.1734 85.9902 88.2062 86.0235 88.2326C86.0568 88.259 86.095 88.2785 86.1359 88.29L86.2259 88.31ZM87.2259 84.54C87.2978 84.5378 87.3669 84.5122 87.4229 84.467C87.4788 84.4219 87.5185 84.3597 87.5359 84.29C87.6859 83.65 87.8359 83.01 87.9659 82.38C87.9762 82.3392 87.9781 82.2968 87.9715 82.2553C87.9649 82.2138 87.9499 82.174 87.9275 82.1385C87.905 82.1029 87.8756 82.0723 87.8409 82.0485C87.8063 82.0247 87.7671 82.0082 87.7259 82C87.6845 81.9896 87.6415 81.9876 87.5993 81.9941C87.5572 82.0006 87.5167 82.0155 87.4804 82.0379C87.444 82.0602 87.4125 82.0896 87.3877 82.1243C87.3629 82.1591 87.3453 82.1984 87.3359 82.24C87.2059 82.87 87.0559 83.5 86.9059 84.14C86.8877 84.2234 86.9025 84.3107 86.9473 84.3834C86.992 84.4561 87.0632 84.5087 87.1459 84.53L87.2259 84.54ZM88.0459 80.72C88.1214 80.7213 88.1948 80.696 88.2534 80.6484C88.3119 80.6008 88.3518 80.5341 88.3659 80.46C88.4859 79.82 88.6059 79.18 88.7159 78.54C88.7304 78.4565 88.7112 78.3706 88.6624 78.3012C88.6137 78.2318 88.5394 78.1846 88.4559 78.17C88.4138 78.1613 88.3704 78.1612 88.3283 78.1697C88.2861 78.1782 88.2462 78.1951 88.2107 78.2193C88.1753 78.2436 88.1451 78.2748 88.1219 78.311C88.0988 78.3472 88.0831 78.3876 88.0759 78.43C87.9659 79.06 87.8559 79.7 87.7259 80.34C87.7173 80.3821 87.7171 80.4255 87.7256 80.4676C87.7341 80.5098 87.751 80.5497 87.7752 80.5852C87.7995 80.6207 87.8307 80.6509 87.8668 80.674C87.903 80.6972 87.9436 80.7128 87.9859 80.72H88.0459ZM88.7059 76.88C88.7833 76.8831 88.8591 76.8572 88.9184 76.8072C88.9776 76.7572 89.016 76.6869 89.0259 76.61C89.1259 75.96 89.2159 75.31 89.2959 74.67C89.3015 74.6279 89.2987 74.5852 89.2876 74.5442C89.2765 74.5032 89.2573 74.4649 89.2313 74.4314C89.2052 74.3979 89.1728 74.3699 89.1358 74.349C89.0989 74.3282 89.0581 74.3149 89.0159 74.31C88.9736 74.3029 88.9304 74.3047 88.8888 74.3152C88.8473 74.3257 88.8083 74.3447 88.7745 74.3711C88.7407 74.3974 88.7127 74.4304 88.6923 74.4681C88.6719 74.5058 88.6595 74.5473 88.6559 74.59C88.5759 75.2167 88.4859 75.8567 88.3859 76.51C88.3743 76.5946 88.3959 76.6805 88.4463 76.7495C88.4966 76.8185 88.5718 76.8653 88.6559 76.88H88.7059ZM89.1959 73.01C89.2765 73.0128 89.355 72.984 89.4147 72.9299C89.4744 72.8757 89.5107 72.8005 89.5159 72.72C89.5859 72.07 89.6559 71.42 89.7059 70.78C89.7115 70.694 89.6832 70.6093 89.6272 70.5439C89.5711 70.4785 89.4917 70.4376 89.4059 70.43C89.3641 70.4244 89.3216 70.4276 89.2812 70.4395C89.2407 70.4514 89.2033 70.4717 89.1712 70.4991C89.1391 70.5264 89.1131 70.5602 89.095 70.5983C89.0769 70.6364 89.067 70.6778 89.0659 70.72C89.0059 71.36 88.9459 72.01 88.8759 72.66C88.8718 72.7021 88.876 72.7445 88.8884 72.7849C88.9008 72.8253 88.921 72.8629 88.948 72.8954C88.9749 72.928 89.0081 72.9549 89.0455 72.9745C89.0829 72.9942 89.1238 73.0062 89.1659 73.01H89.1959ZM89.5259 69.13C89.6074 69.1302 89.6859 69.0992 89.7454 69.0435C89.8049 68.9877 89.8408 68.9114 89.8459 68.83C89.8459 68.16 89.9259 67.51 89.9459 66.83C89.9486 66.7872 89.9427 66.7442 89.9284 66.7037C89.9142 66.6632 89.8919 66.626 89.863 66.5943C89.8341 66.5625 89.7991 66.537 89.76 66.519C89.721 66.5011 89.6788 66.4913 89.6359 66.49C89.5519 66.4939 89.472 66.527 89.4099 66.5836C89.3478 66.6402 89.3075 66.7168 89.2959 66.8C89.2959 67.44 89.2959 68.09 89.2059 68.74C89.2003 68.826 89.2286 68.9107 89.2847 68.9761C89.3407 69.0415 89.4202 69.0823 89.5059 69.09L89.5259 69.13ZM89.6759 65.23C89.7608 65.23 89.8422 65.1963 89.9022 65.1363C89.9622 65.0763 89.9959 64.9949 89.9959 64.91C89.9959 64.45 89.9959 64 89.9959 63.55V62.96C89.9959 62.8751 89.9622 62.7937 89.9022 62.7337C89.8422 62.6737 89.7608 62.64 89.6759 62.64C89.5911 62.64 89.5097 62.6737 89.4497 62.7337C89.3897 62.7937 89.3559 62.8751 89.3559 62.96V63.55C89.3559 64 89.3559 64.45 89.3559 64.9C89.3546 64.9428 89.3619 64.9855 89.3773 65.0255C89.3928 65.0655 89.4162 65.102 89.446 65.1328C89.4759 65.1636 89.5116 65.188 89.5511 65.2047C89.5906 65.2214 89.6331 65.23 89.6759 65.23ZM89.6759 61.33C89.7188 61.33 89.7613 61.3214 89.8007 61.3047C89.8402 61.288 89.8759 61.2636 89.9058 61.2328C89.9356 61.202 89.959 61.1655 89.9745 61.1255C89.99 61.0855 89.9973 61.0429 89.9959 61C89.9959 60.33 89.9359 59.68 89.9059 59C89.8983 58.9142 89.8574 58.8348 89.792 58.7788C89.7266 58.7227 89.6419 58.6944 89.5559 58.7C89.5139 58.7025 89.4728 58.7134 89.4349 58.7319C89.397 58.7503 89.3632 58.7761 89.3353 58.8077C89.3074 58.8393 89.2861 58.8761 89.2724 58.9159C89.2588 58.9558 89.2532 58.998 89.2559 59.04C89.2559 59.67 89.3259 60.32 89.3459 60.98C89.3412 61.0271 89.3471 61.0747 89.363 61.1193C89.3789 61.1639 89.4046 61.2044 89.4381 61.2378C89.4716 61.2713 89.5121 61.2969 89.5567 61.3129C89.6013 61.3288 89.6488 61.3347 89.6959 61.33H89.6759ZM89.4459 57.44C89.488 57.4362 89.529 57.4242 89.5664 57.4045C89.6038 57.3848 89.6369 57.358 89.6638 57.3254C89.6908 57.2929 89.711 57.2553 89.7234 57.2149C89.7358 57.1745 89.7401 57.1321 89.7359 57.09C89.6759 56.4233 89.6059 55.7567 89.5259 55.09C89.5223 55.0473 89.51 55.0058 89.4896 54.9681C89.4692 54.9304 89.4411 54.8974 89.4073 54.8711C89.3735 54.8447 89.3345 54.8257 89.293 54.8152C89.2514 54.8047 89.2082 54.8029 89.1659 54.81C89.0819 54.8224 89.0059 54.8668 88.9537 54.9339C88.9015 55.0009 88.8773 55.0855 88.8859 55.17C88.9659 55.78 89.0359 56.43 89.0959 57.1C89.0919 57.1492 89.0994 57.1987 89.1177 57.2446C89.136 57.2904 89.1647 57.3314 89.2015 57.3643C89.2383 57.3973 89.2823 57.4212 89.3299 57.4344C89.3775 57.4475 89.4274 57.4494 89.4759 57.44H89.4459ZM88.9659 53.57C89.0494 53.5554 89.1237 53.5082 89.1725 53.4388C89.2212 53.3694 89.2404 53.2835 89.2259 53.2L89.1659 52.81C89.0759 52.3 88.9759 51.81 88.8759 51.27C88.8676 51.2285 88.8511 51.1891 88.8274 51.1541C88.8038 51.119 88.7734 51.089 88.7381 51.0657C88.7027 51.0425 88.6631 51.0265 88.6215 51.0186C88.58 51.0108 88.5373 51.0112 88.4959 51.02C88.4538 51.027 88.4136 51.0427 88.3778 51.066C88.342 51.0893 88.3114 51.1197 88.2879 51.1554C88.2645 51.1911 88.2486 51.2312 88.2414 51.2733C88.2341 51.3154 88.2357 51.3585 88.2459 51.4C88.3459 51.91 88.4359 52.4 88.5259 52.92L88.5959 53.3C88.6002 53.345 88.6142 53.3885 88.6371 53.4275C88.6599 53.4665 88.691 53.5 88.7281 53.5258C88.7653 53.5515 88.8076 53.5688 88.8521 53.5764C88.8967 53.584 88.9423 53.5819 88.9859 53.57H88.9659ZM88.1959 49.75H88.2659C88.3071 49.7418 88.3463 49.7253 88.3809 49.7015C88.4156 49.6777 88.445 49.6471 88.4675 49.6115C88.4899 49.576 88.5049 49.5362 88.5115 49.4947C88.5181 49.4532 88.5162 49.4108 88.5059 49.37C88.3559 48.73 88.2059 48.1 88.0359 47.46C88.0244 47.4191 88.0049 47.3809 87.9785 47.3476C87.9521 47.3143 87.9193 47.2866 87.882 47.2661C87.8448 47.2456 87.8039 47.2328 87.7616 47.2283C87.7194 47.2238 87.6766 47.2278 87.6359 47.24C87.5952 47.2505 87.5569 47.2689 87.5233 47.2942C87.4897 47.3195 87.4615 47.3511 87.4401 47.3873C87.4187 47.4235 87.4047 47.4636 87.3988 47.5053C87.393 47.5469 87.3954 47.5893 87.4059 47.63C87.5759 48.26 87.7359 48.88 87.8759 49.51C87.8964 49.583 87.9414 49.6466 88.0033 49.6904C88.0652 49.7341 88.1403 49.7551 88.2159 49.75H88.1959ZM87.1959 45.99H87.2859C87.3268 45.9785 87.3651 45.959 87.3983 45.9326C87.4316 45.9062 87.4593 45.8734 87.4798 45.8361C87.5002 45.7989 87.5131 45.758 87.5176 45.7157C87.5221 45.6734 87.5182 45.6307 87.5059 45.59C87.3159 44.96 87.1159 44.34 86.9059 43.72C86.8924 43.6797 86.871 43.6426 86.843 43.6107C86.815 43.5788 86.781 43.5527 86.7428 43.5341C86.7047 43.5155 86.6631 43.5047 86.6208 43.5022C86.5784 43.4998 86.536 43.5059 86.4959 43.52C86.4557 43.5335 86.4185 43.5549 86.3866 43.5829C86.3546 43.6109 86.3286 43.6449 86.31 43.6831C86.2914 43.7213 86.2806 43.7627 86.2782 43.8051C86.2757 43.8475 86.2818 43.89 86.2959 43.93C86.5059 44.54 86.6959 45.16 86.8859 45.78C86.9095 45.8448 86.9534 45.9003 87.0111 45.9381C87.0687 45.976 87.1371 45.9942 87.2059 45.99H87.1959ZM85.9459 42.29C85.982 42.2993 86.0199 42.2993 86.0559 42.29C86.1354 42.2607 86.2001 42.2011 86.2357 42.1243C86.2713 42.0474 86.275 41.9596 86.2459 41.88C86.0159 41.27 85.7759 40.66 85.5159 40.06C85.5005 40.0203 85.4773 39.9842 85.4478 39.9536C85.4182 39.923 85.3828 39.8986 85.3437 39.8818C85.3046 39.865 85.2625 39.8563 85.22 39.8559C85.1774 39.8556 85.1353 39.8638 85.0959 39.88C85.0571 39.8964 85.022 39.9202 84.9925 39.9502C84.9629 39.9802 84.9396 40.0157 84.9238 40.0547C84.908 40.0937 84.9001 40.1355 84.9004 40.1776C84.9008 40.2197 84.9095 40.2613 84.9259 40.3C85.1759 40.9 85.4159 41.5 85.6359 42.11C85.6654 42.1683 85.7116 42.2166 85.7686 42.2486C85.8256 42.2807 85.8907 42.2951 85.9559 42.29H85.9459ZM84.4759 38.75C84.5221 38.7594 84.5697 38.7594 84.6159 38.75C84.6932 38.7131 84.753 38.6476 84.7829 38.5674C84.8127 38.4871 84.8102 38.3984 84.7759 38.32C84.4959 37.73 84.2159 37.14 83.9159 36.55C83.8755 36.4763 83.8086 36.4208 83.7287 36.3948C83.6488 36.3688 83.562 36.3742 83.4859 36.41C83.4079 36.4487 83.3484 36.5167 83.3203 36.5991C83.2922 36.6815 83.2978 36.7717 83.3359 36.85C83.6359 37.42 83.9159 38 84.1859 38.59C84.2142 38.6414 84.2564 38.6837 84.3078 38.712C84.3591 38.7403 84.4174 38.7535 84.4759 38.75ZM82.7159 35.27C82.765 35.2836 82.8169 35.2836 82.8659 35.27C82.9038 35.2501 82.9373 35.2228 82.9644 35.1897C82.9915 35.1567 83.0117 35.1185 83.0238 35.0775C83.0359 35.0364 83.0397 34.9934 83.0349 34.9509C83.0301 34.9084 83.0169 34.8673 82.9959 34.83C82.6759 34.26 82.3459 33.69 81.9959 33.14C81.9753 33.1028 81.9473 33.0702 81.9135 33.0443C81.8798 33.0183 81.8411 32.9996 81.7998 32.9893C81.7586 32.979 81.7156 32.9773 81.6737 32.9843C81.6317 32.9913 81.5916 33.0068 81.5559 33.03C81.5198 33.0516 81.4882 33.0801 81.463 33.114C81.4379 33.1478 81.4197 33.1863 81.4095 33.2271C81.3993 33.268 81.3972 33.3105 81.4035 33.3522C81.4097 33.3939 81.4241 33.4339 81.4459 33.47C81.7859 34.02 82.1059 34.58 82.4459 35.15C82.4788 35.1777 82.5172 35.1982 82.5586 35.2103C82.5999 35.2223 82.6433 35.2256 82.6859 35.22L82.7159 35.27ZM80.7159 31.94C80.7746 31.9578 80.8372 31.9578 80.8959 31.94C80.9318 31.9168 80.9628 31.8866 80.9868 31.8512C81.0109 31.8158 81.0276 31.776 81.036 31.734C81.0444 31.6921 81.0443 31.6488 81.0357 31.6069C81.0271 31.565 81.0102 31.5253 80.9859 31.49C80.6159 30.95 80.2459 30.41 79.8559 29.88C79.8043 29.8128 79.7287 29.768 79.6449 29.7549C79.5611 29.7419 79.4755 29.7616 79.4059 29.81C79.3387 29.8616 79.2939 29.9372 79.2808 30.021C79.2678 30.1048 79.2875 30.1904 79.3359 30.26C79.7159 30.78 80.0859 31.31 80.4459 31.85C80.5092 31.887 80.5834 31.9011 80.6559 31.89L80.7159 31.94ZM36.7159 29.73H37.1259C37.168 29.7274 37.2091 29.7166 37.247 29.6982C37.2848 29.6797 37.3186 29.6539 37.3465 29.6223C37.3744 29.5907 37.3958 29.5539 37.4094 29.5141C37.423 29.4742 37.4286 29.432 37.4259 29.39C37.4248 29.3475 37.4148 29.3057 37.3968 29.2672C37.3788 29.2286 37.353 29.1942 37.3211 29.1661C37.2892 29.1379 37.2519 29.1167 37.2115 29.1036C37.171 29.0905 37.1282 29.0859 37.0859 29.09C36.7034 29.1251 36.3185 29.1251 35.9359 29.09C35.7067 29.0612 35.4796 29.0178 35.2559 28.96C35.1724 28.9385 35.0838 28.9505 35.0091 28.9935C34.9343 29.0365 34.8793 29.107 34.8559 29.19C34.8455 29.2314 34.8436 29.2744 34.8501 29.3166C34.8566 29.3588 34.8714 29.3992 34.8938 29.4355C34.9161 29.4719 34.9455 29.5034 34.9803 29.5282C35.015 29.553 35.0543 29.5706 35.0959 29.58C35.3483 29.6501 35.6057 29.7002 35.8659 29.73C36.1133 29.7251 36.3602 29.7084 36.6059 29.68L36.7159 29.73ZM39.0159 29.34H39.1159C39.7656 29.1118 40.371 28.7736 40.9059 28.34C40.9658 28.2784 40.9993 28.1959 40.9993 28.11C40.9993 28.0241 40.9658 27.9416 40.9059 27.88C40.8761 27.8492 40.8403 27.8246 40.8008 27.8079C40.7613 27.7911 40.7188 27.7825 40.6759 27.7825C40.633 27.7825 40.5905 27.7911 40.551 27.8079C40.5115 27.8246 40.4757 27.8492 40.4459 27.88C39.9681 28.2616 39.431 28.5623 38.8559 28.77C38.8157 28.7835 38.7785 28.8049 38.7466 28.8329C38.7147 28.8609 38.6886 28.8949 38.67 28.9331C38.6514 28.9713 38.6406 29.0127 38.6381 29.0551C38.6357 29.0975 38.6418 29.14 38.6559 29.18C38.6873 29.2151 38.7259 29.2431 38.769 29.2621C38.8121 29.2811 38.8588 29.2906 38.9059 29.29L39.0159 29.34ZM78.4659 28.8C78.5387 28.8009 78.6095 28.7761 78.6659 28.73C78.7258 28.6684 78.7593 28.5859 78.7593 28.5C78.7593 28.4141 78.7258 28.3316 78.6659 28.27C78.2559 27.76 77.8259 27.27 77.4059 26.77C77.3443 26.7101 77.2618 26.6766 77.1759 26.6766C77.09 26.6766 77.0075 26.7101 76.9459 26.77C76.886 26.8316 76.8526 26.9141 76.8526 27C76.8526 27.0859 76.886 27.1684 76.9459 27.23C77.3659 27.71 77.7859 28.23 78.1859 28.71C78.2382 28.7379 78.2967 28.7517 78.3559 28.75L78.4659 28.8ZM33.4059 28.75C33.4585 28.7485 33.5102 28.7351 33.5569 28.7109C33.6037 28.6866 33.6444 28.6521 33.6759 28.61C33.7213 28.5368 33.7362 28.4487 33.7175 28.3646C33.6988 28.2806 33.648 28.2071 33.5759 28.16C33.0601 27.8174 32.5926 27.407 32.1859 26.94C32.126 26.8808 32.0452 26.8475 31.9609 26.8475C31.8767 26.8475 31.7958 26.8808 31.7359 26.94C31.6761 27.0016 31.6425 27.0841 31.6425 27.17C31.6425 27.2559 31.6761 27.3384 31.7359 27.4C32.1795 27.9173 32.6946 28.3685 33.2659 28.74C33.2757 28.7439 33.2857 28.7473 33.2959 28.75H33.4059ZM41.9359 26.9C41.9934 26.8985 42.0494 26.882 42.0985 26.8522C42.1476 26.8224 42.1881 26.7803 42.2159 26.73C42.5461 26.1073 42.7596 25.4295 42.8459 24.73C42.8515 24.6879 42.8487 24.6452 42.8376 24.6042C42.8265 24.5632 42.8073 24.5249 42.7813 24.4914C42.7552 24.4579 42.7228 24.4299 42.6858 24.4091C42.6488 24.3882 42.6081 24.3749 42.5659 24.37C42.4825 24.3585 42.3979 24.3805 42.3305 24.431C42.2631 24.4816 42.2183 24.5567 42.2059 24.64C42.123 25.2471 41.937 25.8356 41.6559 26.38C41.635 26.4173 41.6217 26.4584 41.6169 26.5009C41.6121 26.5434 41.6159 26.5864 41.628 26.6275C41.6401 26.6685 41.6603 26.7066 41.6875 26.7397C41.7146 26.7728 41.7481 26.8001 41.7859 26.82C41.7986 26.8308 41.812 26.8408 41.8259 26.85L41.9359 26.9ZM75.8859 25.9C75.9713 25.9009 76.0538 25.8686 76.1159 25.81C76.1758 25.7484 76.2093 25.6659 76.2093 25.58C76.2093 25.4941 76.1758 25.4116 76.1159 25.35C75.6559 24.88 75.1859 24.42 74.7159 23.97C74.6543 23.9101 74.5718 23.8766 74.4859 23.8766C74.4 23.8766 74.3175 23.9101 74.2559 23.97C74.1967 24.0299 74.1635 24.1108 74.1635 24.195C74.1635 24.2793 74.1967 24.3601 74.2559 24.42C74.7159 24.86 75.1759 25.32 75.6259 25.78C75.6716 25.8063 75.7233 25.8201 75.7759 25.82L75.8859 25.9ZM30.8859 25.9C30.9354 25.9095 30.9864 25.9095 31.0359 25.9C31.1103 25.8577 31.1661 25.789 31.192 25.7074C31.218 25.6259 31.2123 25.5375 31.1759 25.46C30.8943 24.9035 30.6891 24.3115 30.5659 23.7C30.5566 23.6584 30.5389 23.6191 30.5141 23.5844C30.4893 23.5496 30.4578 23.5202 30.4215 23.4979C30.3851 23.4755 30.3447 23.4606 30.3025 23.4541C30.2603 23.4476 30.2173 23.4496 30.1759 23.46C30.1345 23.4683 30.095 23.4848 30.06 23.5085C30.0249 23.5321 29.9949 23.5625 29.9716 23.5978C29.9484 23.6332 29.9324 23.6728 29.9245 23.7144C29.9167 23.7559 29.9172 23.7986 29.9259 23.84C30.071 24.5015 30.296 25.1429 30.5959 25.75C30.6441 25.7802 30.6992 25.7974 30.7559 25.8L30.8859 25.9ZM73.0759 23.25C73.1214 23.2498 73.1664 23.2399 73.2078 23.2209C73.2492 23.2019 73.2861 23.1744 73.3159 23.14C73.3758 23.0784 73.4093 22.9959 73.4093 22.91C73.4093 22.8241 73.3758 22.7416 73.3159 22.68L72.7159 22.18L71.7859 21.45C71.7168 21.3975 71.6297 21.3743 71.5436 21.3855C71.4575 21.3968 71.3792 21.4415 71.3259 21.51C71.2764 21.5784 71.2551 21.6632 71.2663 21.7469C71.2774 21.8307 71.3202 21.9069 71.3859 21.96L72.3059 22.68L72.8959 23.18C72.9135 23.1716 72.9302 23.1615 72.9459 23.15L73.0759 23.25ZM42.5559 23.16C42.6418 23.1499 42.7203 23.1066 42.7745 23.0393C42.8287 22.972 42.8544 22.886 42.8459 22.8C42.7696 22.1215 42.6289 21.4519 42.4259 20.8C42.4144 20.7591 42.3949 20.7209 42.3685 20.6876C42.3421 20.6543 42.3093 20.6266 42.2721 20.6061C42.2348 20.5857 42.1939 20.5728 42.1516 20.5683C42.1094 20.5638 42.0666 20.5678 42.0259 20.58C41.9851 20.5913 41.9471 20.6109 41.9142 20.6375C41.8812 20.6641 41.8541 20.6971 41.8344 20.7346C41.8148 20.7721 41.803 20.8132 41.7998 20.8554C41.7966 20.8976 41.8021 20.94 41.8159 20.98C41.9972 21.5848 42.1276 22.2035 42.2059 22.83C42.2193 22.8842 42.2467 22.934 42.2853 22.9743C42.3239 23.0147 42.3724 23.0442 42.4259 23.06L42.5559 23.16ZM30.1059 22.16C30.1874 22.1602 30.2659 22.1292 30.3254 22.0735C30.3849 22.0177 30.4208 21.9413 30.4259 21.86C30.472 21.2451 30.6137 20.6412 30.8459 20.07C30.8624 20.0313 30.8711 19.9897 30.8714 19.9476C30.8718 19.9055 30.8638 19.8638 30.848 19.8247C30.8323 19.7857 30.8089 19.7502 30.7794 19.7202C30.7498 19.6902 30.7147 19.6664 30.6759 19.65C30.6372 19.6335 30.5956 19.6249 30.5535 19.6245C30.5114 19.6241 30.4696 19.6321 30.4306 19.6479C30.3916 19.6636 30.3561 19.687 30.3261 19.7165C30.2962 19.7461 30.2723 19.7812 30.2559 19.82C29.9909 20.4565 29.8321 21.1321 29.7859 21.82C29.7818 21.8628 29.7864 21.9061 29.7993 21.9471C29.8123 21.9881 29.8335 22.0261 29.8615 22.0588C29.8895 22.0915 29.9238 22.1182 29.9624 22.1373C30.0009 22.1564 30.0429 22.1675 30.0859 22.17L30.1059 22.16ZM69.8459 20.75C69.899 20.7509 69.9515 20.7386 69.9986 20.7141C70.0458 20.6897 70.0861 20.6539 70.1159 20.61C70.1633 20.5392 70.1813 20.4528 70.1664 20.3689C70.1515 20.285 70.1048 20.2102 70.0359 20.16C69.4959 19.79 68.9359 19.43 68.3859 19.09C68.3115 19.0456 68.2226 19.0322 68.1384 19.0528C68.0542 19.0733 67.9815 19.1263 67.9359 19.2C67.9142 19.2361 67.8998 19.2761 67.8935 19.3178C67.8873 19.3595 67.8893 19.402 67.8995 19.4428C67.9097 19.4837 67.9279 19.5222 67.953 19.556C67.9782 19.5899 68.0097 19.6184 68.0459 19.64C68.5926 19.98 69.1326 20.33 69.6659 20.69C69.7185 20.7277 69.7812 20.7487 69.8459 20.75ZM41.3459 19.3C41.3886 19.3102 41.4332 19.3102 41.4759 19.3C41.5549 19.2649 41.617 19.2002 41.6488 19.1198C41.6806 19.0393 41.6796 18.9496 41.6459 18.87C41.3959 18.3 41.1059 17.7 40.7759 17.1C40.756 17.0622 40.7287 17.0287 40.6956 17.0015C40.6626 16.9744 40.6244 16.9542 40.5834 16.9421C40.5424 16.93 40.4993 16.9262 40.4568 16.931C40.4143 16.9358 40.3732 16.949 40.3359 16.97C40.2614 17.0122 40.2062 17.0816 40.182 17.1637C40.1577 17.2458 40.1663 17.3341 40.2059 17.41C40.5259 17.99 40.8159 18.57 41.0559 19.13C41.0794 19.1881 41.1194 19.2379 41.1709 19.2735C41.2225 19.309 41.2833 19.3287 41.3459 19.33V19.3ZM66.4759 18.75C66.5353 18.7514 66.5938 18.7362 66.645 18.7061C66.6963 18.6761 66.7381 18.6324 66.7659 18.58C66.8055 18.5041 66.8141 18.4158 66.7899 18.3337C66.7656 18.2516 66.7104 18.1822 66.6359 18.14C66.0659 17.83 65.4759 17.53 64.8859 17.24C64.8479 17.2213 64.8065 17.2104 64.7642 17.2079C64.722 17.2053 64.6796 17.2112 64.6396 17.2252C64.5996 17.2391 64.5627 17.2609 64.5312 17.2892C64.4997 17.3175 64.4741 17.3517 64.4559 17.39C64.4372 17.428 64.4263 17.4694 64.4238 17.5117C64.4212 17.554 64.4271 17.5964 64.4411 17.6364C64.455 17.6764 64.4768 17.7132 64.5051 17.7447C64.5334 17.7762 64.5677 17.8018 64.6059 17.82C65.1859 18.1 65.7659 18.4 66.3259 18.71C66.3711 18.7372 66.4231 18.7511 66.4759 18.75ZM31.3959 18.5C31.4438 18.4993 31.491 18.4883 31.5341 18.4675C31.5773 18.4468 31.6154 18.4169 31.6459 18.38C32.0502 17.907 32.5064 17.481 33.0059 17.11C33.0415 17.0861 33.0716 17.0552 33.0946 17.0191C33.1175 16.983 33.1328 16.9426 33.1394 16.9003C33.1459 16.8581 33.1437 16.8149 33.1328 16.7735C33.1219 16.7322 33.1025 16.6935 33.0759 16.66C33.052 16.6245 33.0211 16.5943 32.985 16.5714C32.9489 16.5484 32.9085 16.5331 32.8662 16.5266C32.824 16.52 32.7808 16.5222 32.7395 16.5331C32.6981 16.5441 32.6595 16.5634 32.6259 16.59C32.0817 16.9922 31.5851 17.4552 31.1459 17.97C31.089 18.0311 31.0573 18.1115 31.0573 18.195C31.0573 18.2785 31.089 18.3589 31.1459 18.42C31.1901 18.4594 31.2437 18.4865 31.3016 18.4988C31.3595 18.5111 31.4196 18.508 31.4759 18.49L31.3959 18.5ZM62.9759 17.05C63.0394 17.047 63.1008 17.0268 63.1537 16.9916C63.2065 16.9564 63.2488 16.9074 63.2759 16.85C63.2924 16.8113 63.3011 16.7697 63.3014 16.7276C63.3018 16.6855 63.2938 16.6438 63.278 16.6047C63.2623 16.5657 63.2389 16.5302 63.2094 16.5002C63.1798 16.4702 63.1447 16.4464 63.1059 16.43C62.4959 16.17 61.8859 15.93 61.2759 15.7C61.195 15.6706 61.1057 15.674 61.0272 15.7095C60.9488 15.745 60.8873 15.8098 60.8559 15.89C60.827 15.9722 60.8319 16.0625 60.8694 16.1412C60.9068 16.2199 60.9739 16.2806 61.0559 16.31C61.6559 16.53 62.2559 16.77 62.8459 17.02C62.9026 17.0444 62.9653 17.0514 63.0259 17.04L62.9759 17.05ZM34.4859 16.17C34.5315 16.1846 34.5804 16.1846 34.6259 16.17C35.1984 15.8939 35.786 15.6501 36.3859 15.44C36.4261 15.4265 36.4634 15.4051 36.4953 15.3771C36.5272 15.3491 36.5532 15.315 36.5718 15.2769C36.5904 15.2387 36.6012 15.1973 36.6037 15.1549C36.6061 15.1125 36.6 15.07 36.5859 15.03C36.5724 14.9897 36.551 14.9526 36.523 14.9207C36.495 14.8887 36.461 14.8627 36.4228 14.8441C36.3847 14.8255 36.3432 14.8147 36.3008 14.8123C36.2584 14.8098 36.216 14.8158 36.1759 14.83C35.5487 15.0484 34.9344 15.3021 34.3359 15.59C34.2597 15.6305 34.2023 15.6992 34.1762 15.7814C34.15 15.8637 34.157 15.9529 34.1959 16.03C34.2326 16.0836 34.2849 16.1248 34.3456 16.148C34.4063 16.1713 34.4727 16.1754 34.5359 16.16L34.4859 16.17ZM39.4859 15.9C39.5467 15.9037 39.6068 15.8861 39.6559 15.85C39.6923 15.8286 39.724 15.7999 39.7489 15.7658C39.7739 15.7317 39.7915 15.6928 39.8009 15.6516C39.8102 15.6104 39.8111 15.5677 39.8034 15.5262C39.7956 15.4846 39.7795 15.4451 39.7559 15.41C39.5959 15.15 39.4259 14.9 39.2559 14.63L40.1459 14.45C40.2294 14.4354 40.3037 14.3882 40.3524 14.3188C40.4012 14.2494 40.4204 14.1635 40.4059 14.08C40.3987 14.0376 40.3831 13.9971 40.36 13.9609C40.3368 13.9247 40.3065 13.8936 40.2711 13.8693C40.2356 13.8451 40.1957 13.8282 40.1535 13.8197C40.1114 13.8113 40.068 13.8113 40.0259 13.82C39.6359 13.89 39.2459 13.97 38.8659 14.06L38.6659 13.78C38.6419 13.7449 38.6111 13.7149 38.5753 13.6918C38.5396 13.6687 38.4996 13.6529 38.4577 13.6455C38.4158 13.638 38.3728 13.639 38.3313 13.6484C38.2898 13.6577 38.2506 13.6753 38.2159 13.7C38.1808 13.724 38.1507 13.7548 38.1277 13.7906C38.1046 13.8263 38.0888 13.8663 38.0814 13.9082C38.0739 13.9501 38.075 13.9931 38.0843 14.0346C38.0937 14.0761 38.1112 14.1153 38.1359 14.15L38.1859 14.22H38.1059C38.0225 14.2435 37.9511 14.298 37.9065 14.3723C37.8619 14.4467 37.8474 14.5353 37.8659 14.62C37.8915 14.7016 37.9468 14.7706 38.0209 14.8132C38.095 14.8559 38.1825 14.869 38.2659 14.85L38.5759 14.78C38.8059 15.1 39.0159 15.43 39.2159 15.78C39.2474 15.8176 39.2875 15.8472 39.3327 15.8663C39.3779 15.8854 39.427 15.8936 39.4759 15.89L39.4859 15.9ZM59.3459 15.69C59.4147 15.6929 59.4825 15.6729 59.5386 15.6331C59.5947 15.5933 59.636 15.5359 59.6559 15.47C59.6813 15.3878 59.6735 15.2989 59.6343 15.2223C59.5951 15.1457 59.5274 15.0875 59.4459 15.06C58.8259 14.87 58.1859 14.68 57.5559 14.52C57.5152 14.508 57.4725 14.5045 57.4303 14.5098C57.3882 14.515 57.3476 14.5288 57.311 14.5504C57.2744 14.5719 57.2427 14.6008 57.2177 14.6351C57.1928 14.6695 57.1752 14.7086 57.1659 14.75C57.1554 14.7907 57.153 14.8331 57.1588 14.8747C57.1647 14.9164 57.1787 14.9565 57.2001 14.9927C57.2215 15.0289 57.2498 15.0605 57.2834 15.0858C57.317 15.1111 57.3552 15.1295 57.3959 15.14C58.0159 15.3 58.6359 15.49 59.2559 15.68L59.3459 15.69ZM55.5859 14.69C55.6601 14.691 55.7323 14.6653 55.7892 14.6176C55.8461 14.5698 55.8839 14.5033 55.8959 14.43C55.9047 14.3886 55.9052 14.3459 55.8973 14.3044C55.8895 14.2628 55.8734 14.2232 55.8502 14.1878C55.8269 14.1525 55.7969 14.1221 55.7619 14.0985C55.7268 14.0748 55.6874 14.0583 55.6459 14.05C55.0059 13.91 54.3559 13.79 53.7159 13.69C53.6324 13.6755 53.5465 13.6947 53.4771 13.7434C53.4078 13.7922 53.3606 13.8665 53.3459 13.95C53.3373 13.9922 53.3376 14.0358 53.3468 14.0779C53.356 14.12 53.3738 14.1598 53.3993 14.1946C53.4247 14.2294 53.457 14.2585 53.4944 14.2801C53.5317 14.3017 53.5731 14.3153 53.6159 14.32C54.2459 14.43 54.8859 14.55 55.5159 14.68L55.5859 14.69ZM42.0159 14.14C42.6459 14.05 43.2959 13.98 43.9359 13.93C44.0217 13.9223 44.1011 13.8815 44.1571 13.8161C44.2132 13.7507 44.2415 13.6659 44.2359 13.58C44.2322 13.5379 44.2201 13.497 44.2004 13.4596C44.1807 13.4222 44.1539 13.389 44.1214 13.3621C44.0888 13.3351 44.0512 13.3149 44.0108 13.3025C43.9704 13.2901 43.9279 13.2859 43.8859 13.29C43.2359 13.29 42.5759 13.41 41.8859 13.5C41.8441 13.5048 41.8037 13.5182 41.7672 13.5391C41.7307 13.5601 41.6988 13.5883 41.6735 13.6219C41.6482 13.6556 41.6301 13.6941 41.6202 13.735C41.6103 13.776 41.6089 13.8185 41.6159 13.86C41.6195 13.9085 41.6342 13.9556 41.6587 13.9977C41.6833 14.0397 41.717 14.0756 41.7575 14.1026C41.798 14.1296 41.8442 14.147 41.8924 14.1535C41.9407 14.16 41.9897 14.1554 42.0359 14.14H42.0159ZM51.7359 14.06C51.8158 14.0603 51.893 14.0308 51.9522 13.9771C52.0115 13.9234 52.0484 13.8496 52.0559 13.77C52.0644 13.6866 52.0398 13.6032 51.9875 13.5378C51.9351 13.4723 51.8591 13.4301 51.7759 13.42C51.1259 13.34 50.4659 13.28 49.7759 13.24C49.7339 13.2373 49.6917 13.2429 49.6518 13.2565C49.612 13.2702 49.5752 13.2915 49.5436 13.3194C49.512 13.3473 49.4862 13.3811 49.4677 13.4189C49.4493 13.4568 49.4385 13.498 49.4359 13.54C49.4318 13.5823 49.4364 13.6251 49.4495 13.6655C49.4626 13.706 49.4838 13.7433 49.512 13.7752C49.5401 13.8071 49.5745 13.8329 49.6131 13.8509C49.6516 13.8689 49.6934 13.8788 49.7359 13.88C50.3759 13.93 51.0259 13.98 51.6559 14.06H51.7359ZM45.8959 13.82C46.5459 13.82 47.1859 13.82 47.8359 13.82C47.8774 13.8213 47.9188 13.8143 47.9576 13.7993C47.9964 13.7844 48.0318 13.7617 48.0616 13.7328C48.0915 13.7039 48.1152 13.6693 48.1314 13.631C48.1476 13.5927 48.1559 13.5516 48.1559 13.51C48.1572 13.468 48.1503 13.4261 48.1354 13.3867C48.1205 13.3474 48.0981 13.3114 48.0693 13.2808C48.0405 13.2501 48.0059 13.2254 47.9676 13.2081C47.9293 13.1908 47.8879 13.1813 47.8459 13.18C47.1859 13.18 46.5359 13.18 45.8459 13.18C45.803 13.1812 45.7608 13.1911 45.7218 13.209C45.6828 13.227 45.6477 13.2525 45.6188 13.2843C45.5899 13.316 45.5677 13.3532 45.5534 13.3937C45.5392 13.4342 45.5332 13.4771 45.5359 13.52C45.538 13.5659 45.5499 13.6108 45.5708 13.6517C45.5918 13.6925 45.6213 13.7284 45.6573 13.7569C45.6934 13.7854 45.7351 13.8057 45.7798 13.8166C45.8244 13.8275 45.8708 13.8287 45.9159 13.82H45.8959ZM37.2459 12.71C37.3188 12.7109 37.3895 12.6861 37.4459 12.64C37.5051 12.5801 37.5384 12.4993 37.5384 12.415C37.5384 12.3308 37.5051 12.2499 37.4459 12.19C37.0459 11.67 36.6259 11.19 36.2059 10.66C36.146 10.6008 36.0652 10.5675 35.9809 10.5675C35.8967 10.5675 35.8159 10.6008 35.7559 10.66C35.6961 10.7216 35.6626 10.8041 35.6626 10.89C35.6626 10.9759 35.6961 11.0584 35.7559 11.12C36.1659 11.6 36.5859 12.12 36.9759 12.61C37.0076 12.6569 37.0511 12.6946 37.102 12.7191C37.153 12.7437 37.2095 12.7544 37.2659 12.75L37.2459 12.71ZM34.7059 9.70999C34.7467 9.7102 34.7872 9.70236 34.8249 9.68692C34.8627 9.67148 34.897 9.64873 34.9259 9.62C34.9565 9.59103 34.9808 9.55614 34.9975 9.51746C35.0141 9.47877 35.0227 9.4371 35.0227 9.39499C35.0227 9.35288 35.0141 9.31124 34.9975 9.27255C34.9808 9.23387 34.9565 9.19898 34.9259 9.17001C34.4759 8.69001 34.0059 8.23001 33.5259 7.79001C33.4969 7.75945 33.4621 7.73511 33.4234 7.71848C33.3847 7.70184 33.343 7.69324 33.3009 7.69324C33.2588 7.69324 33.2171 7.70184 33.1784 7.71848C33.1397 7.73511 33.1049 7.75945 33.0759 7.79001C33.045 7.81985 33.0206 7.85557 33.0038 7.89508C32.9871 7.93459 32.9784 7.97707 32.9784 8.01999C32.9784 8.06291 32.9871 8.10538 33.0038 8.1449C33.0206 8.18441 33.045 8.22016 33.0759 8.25C33.5459 8.68 34.0059 9.14001 34.4559 9.60001C34.4822 9.64791 34.5215 9.68739 34.5693 9.71393C34.6171 9.74047 34.6714 9.75298 34.7259 9.75L34.7059 9.70999ZM31.8559 7.06C31.9505 7.05759 32.0403 7.0181 32.1059 6.95001C32.1658 6.88842 32.1992 6.8059 32.1992 6.72C32.1992 6.63411 32.1658 6.55159 32.1059 6.48999C31.5959 6.06999 31.1059 5.67001 30.5459 5.29001C30.5113 5.2653 30.472 5.24773 30.4305 5.23837C30.389 5.22901 30.346 5.22802 30.3041 5.23547C30.2622 5.24292 30.2222 5.25867 30.1865 5.28177C30.1507 5.30487 30.1199 5.33485 30.0959 5.37C30.0707 5.40404 30.0525 5.44275 30.0424 5.48389C30.0322 5.52502 30.0304 5.56776 30.0369 5.60962C30.0434 5.65148 30.0581 5.69164 30.0803 5.72775C30.1024 5.76387 30.1316 5.79523 30.1659 5.82001C30.6859 6.19334 31.1959 6.58332 31.6959 6.98999C31.7412 7.04657 31.8049 7.08551 31.8759 7.10001L31.8559 7.06ZM28.6859 4.79999C28.7399 4.7998 28.793 4.78596 28.8402 4.75974C28.8874 4.73351 28.9272 4.69575 28.9559 4.64999C29.0013 4.57677 29.0162 4.48871 28.9975 4.40463C28.9788 4.32055 28.928 4.24713 28.8559 4.20001C28.2959 3.86001 27.7159 3.53001 27.1359 3.20001C27.0588 3.16117 26.9696 3.15407 26.8874 3.18024C26.8051 3.20641 26.7364 3.26375 26.6959 3.34C26.6575 3.41559 26.6507 3.50333 26.677 3.58395C26.7032 3.66458 26.7604 3.73149 26.8359 3.76999C27.4059 4.06999 27.9659 4.38999 28.5159 4.76999C28.5413 4.79377 28.5712 4.81223 28.6038 4.82425C28.6365 4.83627 28.6712 4.84163 28.7059 4.84L28.6859 4.79999ZM25.2259 3C25.2891 3.00149 25.3513 2.98425 25.4047 2.95044C25.4581 2.91663 25.5003 2.86775 25.5259 2.81C25.5424 2.77126 25.5511 2.72968 25.5514 2.68759C25.5518 2.6455 25.5438 2.60374 25.528 2.56473C25.5123 2.52571 25.4889 2.49019 25.4594 2.46021C25.4298 2.43022 25.3947 2.40639 25.3559 2.39001C24.7559 2.13001 24.1359 1.89001 23.5159 1.67001C23.4759 1.65587 23.4335 1.64983 23.3911 1.65225C23.3487 1.65468 23.3072 1.6655 23.269 1.68411C23.2309 1.70273 23.1968 1.72874 23.1688 1.76065C23.1408 1.79256 23.1194 1.82974 23.1059 1.87C23.0918 1.91003 23.0857 1.95249 23.0882 1.99487C23.0906 2.03726 23.1014 2.07872 23.12 2.11688C23.1386 2.15504 23.1646 2.18913 23.1966 2.21713C23.2285 2.24514 23.2657 2.2665 23.3059 2.28C23.9059 2.49 24.5159 2.73001 25.0959 2.98001C25.14 3.01251 25.1916 3.03317 25.2459 3.04001L25.2259 3ZM0.325897 2.20001H0.395905L2.29593 1.79999C2.33829 1.79281 2.37875 1.77719 2.41495 1.75403C2.45114 1.73087 2.4823 1.70066 2.50656 1.66519C2.53082 1.62973 2.54771 1.58973 2.55618 1.54761C2.56466 1.50548 2.5646 1.4621 2.55594 1.42001C2.53676 1.33755 2.4866 1.26562 2.41586 1.21909C2.34513 1.17255 2.25925 1.15498 2.17593 1.17001C1.53593 1.29001 0.89595 1.43001 0.255951 1.57001C0.173492 1.58919 0.101555 1.63932 0.0550232 1.71005C0.00849152 1.78078 -0.00907898 1.86669 0.00595093 1.95001C0.0180283 2.03127 0.0591125 2.10538 0.121613 2.15869C0.184113 2.212 0.263771 2.24088 0.345917 2.23999L0.325897 2.20001ZM21.5459 1.72C21.6186 1.7223 21.6898 1.69978 21.748 1.65616C21.8062 1.61253 21.8478 1.55042 21.8659 1.48001C21.8765 1.4393 21.8788 1.39689 21.873 1.35526C21.8671 1.31362 21.8531 1.27356 21.8318 1.23734C21.8104 1.20112 21.7821 1.16945 21.7485 1.14417C21.7149 1.11888 21.6766 1.10048 21.6359 1.09C21.0059 0.919996 20.3659 0.760005 19.7159 0.630005C19.6312 0.615283 19.5441 0.634207 19.4731 0.68277C19.4021 0.731332 19.3529 0.805707 19.3359 0.890015C19.3209 0.973332 19.3384 1.05922 19.385 1.12994C19.4315 1.20067 19.5034 1.25081 19.5859 1.26999C20.2259 1.38999 20.8559 1.53999 21.4659 1.70999L21.5459 1.72ZM4.1459 1.44H4.2059C4.87257 1.32667 5.51261 1.22668 6.12595 1.14001C6.21009 1.12528 6.28519 1.07846 6.33554 1.00946C6.38589 0.940457 6.40754 0.854616 6.3959 0.769989C6.39107 0.728159 6.37781 0.687763 6.35684 0.651245C6.33588 0.614727 6.30764 0.582852 6.27396 0.557587C6.24027 0.532321 6.20178 0.514206 6.16086 0.504303C6.11993 0.4944 6.07743 0.49293 6.03592 0.5C5.38592 0.59 4.74592 0.689988 4.09592 0.799988C4.01241 0.814633 3.93813 0.861841 3.88937 0.931213C3.84062 1.00059 3.82139 1.08648 3.83591 1.17001C3.83582 1.21246 3.84448 1.25445 3.8613 1.29343C3.87811 1.3324 3.90275 1.36751 3.93369 1.39658C3.96462 1.42564 4.00122 1.44805 4.04117 1.4624C4.08112 1.47675 4.12357 1.48275 4.16592 1.48001L4.1459 1.44ZM17.7359 0.950012C17.8137 0.948551 17.8885 0.91964 17.9471 0.868408C18.0056 0.817176 18.0442 0.746918 18.0559 0.670013C18.0615 0.62794 18.0587 0.585158 18.0476 0.54419C18.0365 0.503221 18.0174 0.464869 17.9913 0.431366C17.9652 0.397863 17.9328 0.369866 17.8958 0.34903C17.8588 0.328193 17.8181 0.314933 17.7759 0.309998C17.1359 0.219998 16.4759 0.150006 15.7759 0.100006C15.7344 0.0958936 15.6925 0.10019 15.6527 0.112671C15.6129 0.125152 15.576 0.145559 15.5442 0.172638C15.5125 0.199717 15.4865 0.232913 15.4679 0.270264C15.4493 0.307615 15.4384 0.348361 15.4359 0.390015C15.4318 0.432072 15.436 0.474514 15.4484 0.514923C15.4608 0.555332 15.481 0.592886 15.508 0.625427C15.5349 0.657968 15.5681 0.684865 15.6055 0.704529C15.6429 0.724193 15.6838 0.736231 15.7259 0.73999C16.3759 0.78999 17.0259 0.860012 17.6459 0.950012H17.7359ZM8.00595 0.899994C8.64595 0.829994 9.29594 0.780011 9.93594 0.730011C9.978 0.727465 10.0191 0.716632 10.057 0.698151C10.0948 0.679669 10.1287 0.653904 10.1565 0.622315C10.1844 0.590725 10.2058 0.553933 10.2194 0.514069C10.233 0.474204 10.2386 0.432056 10.2359 0.390015C10.2334 0.347051 10.2223 0.30501 10.2032 0.266449C10.1841 0.227888 10.1574 0.193596 10.1247 0.165588C10.092 0.137581 10.0541 0.116441 10.013 0.103455C9.972 0.0904687 9.92873 0.0858895 9.88589 0.0899964C9.23589 0.0899964 8.58589 0.19001 7.88589 0.26001C7.8438 0.263769 7.80288 0.275808 7.76547 0.295471C7.72807 0.315135 7.69496 0.342032 7.668 0.374573C7.64104 0.407114 7.6208 0.444668 7.60843 0.485077C7.59606 0.525486 7.59179 0.567928 7.59592 0.609985C7.59084 0.663911 7.59954 0.718263 7.62119 0.767914C7.64283 0.817565 7.67673 0.860914 7.7197 0.89389C7.76266 0.926867 7.81329 0.948385 7.86685 0.956451C7.92041 0.964518 7.97514 0.95886 8.02591 0.940003L8.00595 0.899994ZM13.8459 0.640015C13.9301 0.640169 14.0111 0.608132 14.0725 0.550507C14.1338 0.492882 14.1708 0.413996 14.1759 0.329987C14.1773 0.28713 14.17 0.244454 14.1545 0.204468C14.139 0.164482 14.1156 0.128011 14.0858 0.097229C14.0559 0.066447 14.0202 0.0419718 13.9807 0.0252686C13.9413 0.00856537 13.8988 -2.09035e-05 13.8559 3.8215e-08C13.2059 3.8215e-08 12.5459 3.8215e-08 11.8559 3.8215e-08C11.813 -2.09035e-05 11.7706 0.00856537 11.7311 0.0252686C11.6916 0.0419718 11.6559 0.066447 11.626 0.097229C11.5962 0.128011 11.5728 0.164482 11.5573 0.204468C11.5419 0.244454 11.5346 0.28713 11.5359 0.329987C11.5385 0.413111 11.5734 0.49197 11.6331 0.549835C11.6928 0.607701 11.7728 0.640055 11.8559 0.640015H13.8059H13.8459Z" fill="#ED7B30"/>
</g>
</svg>
